<svg xmlns="http://www.w3.org/2000/svg" xmlns:xlink="http://www.w3.org/1999/xlink" version="1.1" width="42.21068063944763" height="28.332768118085326" viewBox="-0.1253722487399287 -0.35324277266952464 42.21068063944763 28.332768118085326">
  <defs>
    <linearGradient id="grad_1" y2="1" x2="0">
      <stop offset="0" stop-color="#F66B73" stop-opacity="1"/>
      <stop offset="1" stop-color="#F6A2A6" stop-opacity="1"/>
    </linearGradient>
    <linearGradient id="grad_2" y2="1" x2="0">
      <stop offset="0" stop-color="#F66B73" stop-opacity="1"/>
      <stop offset="1" stop-color="#F6A2A6" stop-opacity="1"/>
    </linearGradient>
  <linearGradient id="grad_1-.0018654742770060212,0.306093356333518,0.4825997596199816,-0.00294118951889287,-57.5219557389617,-52.27391259372234" y2="4.6987" x2="35.1576" x1="22.5753" y1="4.7754" gradientUnits="userSpaceOnUse">
      <stop offset="0" stop-color="#F66B73" stop-opacity="1"/>
      <stop offset="1" stop-color="#F6A2A6" stop-opacity="1"/>
    </linearGradient><linearGradient id="grad_2-0.0018654742770060212,0.306093356333518,-0.4825997596199816,-0.00294118951889287,99.4465258091688,-51.887825629115106" y2="5.0848" x2="6.767" x1="19.3493" y1="5.1615" gradientUnits="userSpaceOnUse">
      <stop offset="0" stop-color="#F66B73" stop-opacity="1"/>
      <stop offset="1" stop-color="#F6A2A6" stop-opacity="1"/>
    </linearGradient></defs>
  <!-- Exported by Scratch - http://scratch.mit.edu/ -->
  <g id="ID0.2553515573963523">
    <path id="ID0.3038713317364454" fill="#F6A2A6" stroke="#F66B73" stroke-width="1.9304348230361938" stroke-linecap="round" d="M 31.7607 1.3439 C 29.433 1.9674 27.4818 3.839 25.9694 5.6874 C 24.19 7.7071 22.1181 10.0236 22.1085 12.6852 C 22.0998 15.2189 24.1403 17.4988 25.9694 19.3211 C 27.4862 20.8447 29.6034 22.0681 31.7607 22.3374 C 34.3986 22.667 37.4265 22.6221 39.7237 21.2515 C 40.9722 20.503 40.9172 18.2907 40.6889 16.7874 C 40.3965 14.8656 38.3314 13.4048 38.3483 11.4546 C 38.3314 9.4257 40.451 7.8548 40.6889 5.808 C 40.8496 4.4201 40.5475 2.3941 39.3617 1.8265 C 37.0727 0.7368 34.22 0.6856 31.7607 1.3439 Z "/>
    <path id="ID0.30024340096861124" fill="url(#grad_1-.0018654742770060212,0.306093356333518,0.4825997596199816,-0.00294118951889287,-57.5219557389617,-52.27391259372234)" stroke="none" stroke-linecap="round" d="M 23.1687 10.5827 C 22.4138 11.8429 22.4448 13.3537 23.2416 14.6228 C 24.4595 16.5607 27.0542 18.8168 29.0157 19.6996 C 29.8064 20.0554 27.8264 17.6979 28.7834 17.2216 C 29.8444 16.6947 33.2931 18.1941 33.1781 17.6998 C 32.9515 17.0149 27.5542 15.5577 28.0439 14.6701 C 28.5432 13.7659 34.8787 14.7353 35.1114 14.1985 C 35.3641 13.619 29.1335 13.2939 29.1386 12.1534 C 29.1444 10.8934 35.4378 9.9526 35.1782 9.3157 C 34.9468 8.6516 28.6402 10.2016 28.0839 9.3589 C 27.515 8.4943 32.7834 6.546 33.0092 5.824 C 33.1279 5.3452 29.9598 7.0447 28.8401 6.7218 C 28.0428 6.4904 29.7427 4.363 29.0937 4.7918 C 26.924 6.2303 24.4319 8.4727 23.1687 10.5827 Z " stroke-width="0.40410877333141765"/>
    <path id="ID0.3038713317364454" fill="#F6A2A6" stroke="#F66B73" stroke-width="1.9304348230361938" stroke-linecap="round" d="M 10.1639 1.73 C 12.4915 2.3535 14.4427 4.2251 15.9552 6.0735 C 17.7346 8.0932 19.8064 10.4097 19.8161 13.0713 C 19.8248 15.605 17.7843 17.8848 15.9552 19.7072 C 14.4384 21.2308 12.3212 22.4542 10.1639 22.7235 C 7.526 23.0531 4.4981 23.0082 2.2009 21.6376 C 0.9524 20.8891 1.087 18.6869 1.2357 17.1735 C 1.4046 15.4482 3.1719 14.119 3.1902 12.4198 C 3.1719 10.2389 1.3524 8.3248 1.2357 6.1941 C 1.1599 4.7989 1.3771 2.7802 2.5628 2.2126 C 4.8518 1.1229 7.7045 1.0717 10.1639 1.73 Z "/>
    <path id="ID0.30024340096861124" fill="url(#grad_2-0.0018654742770060212,0.306093356333518,-0.4825997596199816,-0.00294118951889287,99.4465258091688,-51.887825629115106)" stroke="none" stroke-linecap="round" d="M 18.7559 10.9688 C 19.5107 12.229 19.4798 13.7398 18.683 15.0089 C 17.4651 16.9468 14.8703 19.2029 12.9089 20.0857 C 12.1181 20.4414 14.0982 18.084 13.1412 17.6076 C 12.0802 17.0808 8.6315 18.5802 8.7464 18.0859 C 8.9731 17.401 14.3704 15.9438 13.8806 15.0562 C 13.3813 14.152 7.0459 15.1214 6.8132 14.5846 C 6.5604 14.0051 12.7911 13.68 12.786 12.5394 C 12.7801 11.2795 6.4867 10.3387 6.7464 9.7018 C 6.9778 9.0377 13.2843 10.5877 13.8406 9.745 C 14.4096 8.8804 9.1411 6.932 8.9153 6.2101 C 8.7966 5.7312 11.9648 7.4308 13.0845 7.1079 C 13.8818 6.8765 12.1819 4.7491 12.8308 5.1779 C 15.0006 6.6163 17.4927 8.8588 18.7559 10.9688 Z " stroke-width="0.40410877333141765"/>
    <path id="ID0.6813340992666781" fill="#F6A2A6" stroke="#F66B73" stroke-width="1.9304348230361938" stroke-linecap="round" d="M 20.9985 14.0124 C 22.3483 13.953 23.6895 15.0915 24.3767 16.2324 C 25.4945 18.1884 26.1865 20.5073 26.09 22.7476 C 26.0273 24.1814 24.4805 26.8908 23.7976 26.512 C 23.0529 26.0554 23.5973 22.7891 23.122 21.0102 C 22.7175 19.4972 22.2547 16.6445 21.3122 16.6667 C 20.3001 16.7411 19.6091 19.5865 19.2128 21.2033 C 18.7785 22.9749 19.693 26.2895 18.9715 26.6809 C 18.2418 27.0327 16.3606 24.318 16.1965 22.7476 C 15.9774 20.6483 16.8003 18.4871 17.8133 16.6185 C 18.4764 15.439 19.6298 14.0732 20.9985 14.0124 Z "/>
    <path id="ID0.33538520289584994" fill="#F6A2A6" stroke="#F66B73" stroke-width="2.535021459760131" stroke-linecap="round" d="M 21.0507 6.8521 C 22.6681 6.8521 24.1986 7.4567 25.1948 8.5703 C 26.1486 9.6356 26.1651 11.2967 26.1208 12.7144 C 26.1651 14.1321 26.1486 15.7932 25.1948 16.8585 C 24.1986 17.972 22.6681 18.5766 21.0507 18.5766 C 19.4334 18.5766 17.9029 17.972 16.9066 16.8585 C 15.916 15.7513 15.8096 14.0358 15.8539 12.5559 C 15.8096 11.1794 15.9509 9.5887 16.9066 8.5703 C 17.9288 7.4802 19.4334 6.8521 21.0507 6.8521 Z "/>
  </g>
</svg>