<svg version="1.1" xmlns="http://www.w3.org/2000/svg" xmlns:xlink="http://www.w3.org/1999/xlink" width="206.50407" height="257.90758" viewBox="0,0,206.50407,257.90758"><g transform="translate(-241.74797,-74.46066)"><g data-paper-data="{&quot;isPaintingLayer&quot;:true}" fill-rule="nonzero" stroke-linejoin="miter" stroke-miterlimit="10" stroke-dasharray="" stroke-dashoffset="0" style="mix-blend-mode: normal"><path d="M345.5,76.2127c29.82,0.0973 59.789,0.1459 89,4.6016c7.303,1.1136 8.158,1.1241 9,9.8606c3.371,34.9921 3.027,70.9097 3,105.8373c-0.032,40.7375 0.426,81.9155 -3,122.2717c-0.857,10.0894 0.384,9.7068 -7.5,10.518c-31.539,3.2461 -63.856,1.98 -95,1.3147c-29.656,-0.6389 -59.563,-0.4154 -89,-4.6016c-7.426,-1.3371 -6.878,0.1131 -7.5,-9.8606c-2.487,-39.8948 -1.083,-80.1852 -1,-120.2996c0.417,-34.1098 -0.278,-68.5786 2.5,-102.5504c0.695,-8.4933 -0.161,-11.813 7.5,-13.1475c30.645,-5.3365 61.508,-4.0665 92,-3.9442z" fill="#f66b73" stroke="#c6565d" stroke-width="3.50408" stroke-linecap="round"/><text transform="translate(255.346,102.30018) scale(1.34802,1.34802)" font-size="22" xml:space="preserve" fill="#7c5843" fill-rule="nonzero" stroke="none" stroke-width="1" stroke-linecap="butt" stroke-linejoin="miter" stroke-miterlimit="10" stroke-dasharray="" stroke-dashoffset="0" font-family="Scratch" font-weight="400" text-anchor="start" style="mix-blend-mode: normal"><tspan x="0" dy="0">Basics:</tspan></text><text transform="translate(254.59387,122.83994) scale(0.70348,0.70348)" font-size="22" xml:space="preserve" fill="#7c5843" fill-rule="nonzero" stroke="none" stroke-width="1" stroke-linecap="butt" stroke-linejoin="miter" stroke-miterlimit="10" stroke-dasharray="" stroke-dashoffset="0" font-family="Scratch" font-weight="400" text-anchor="start" style="mix-blend-mode: normal"><tspan x="0" dy="0">Skin Tone:</tspan></text><text transform="translate(253.657,188.46414) scale(0.70348,0.70348)" font-size="22" xml:space="preserve" fill="#7c5843" fill-rule="nonzero" stroke="none" stroke-width="1" stroke-linecap="butt" stroke-linejoin="miter" stroke-miterlimit="10" stroke-dasharray="" stroke-dashoffset="0" font-family="Scratch" font-weight="400" text-anchor="start" style="mix-blend-mode: normal"><tspan x="0" dy="0">Hair Style:</tspan></text><text transform="translate(252.707,261.96414) scale(0.70348,0.70348)" font-size="22" xml:space="preserve" fill="#7c5843" fill-rule="nonzero" stroke="none" stroke-width="1" stroke-linecap="butt" stroke-linejoin="miter" stroke-miterlimit="10" stroke-dasharray="" stroke-dashoffset="0" font-family="Scratch" font-weight="400" text-anchor="start" style="mix-blend-mode: normal"><tspan x="0" dy="0">Hair Colour:</tspan></text></g></g></svg>