<svg xmlns="http://www.w3.org/2000/svg" xmlns:xlink="http://www.w3.org/1999/xlink" version="1.1" width="206.99556088572564" height="258.9354870331866" viewBox="0.2785423987814726 0.7426441901633085 206.99556088572564 258.9354870331866">
  <!-- Exported by Scratch - http://scratch.mit.edu/ -->
  <path id="ID0.9688214147463441" fill="#FFDB8D" stroke="#EDB56E" stroke-width="3.504075290022504" stroke-linecap="round" d="M 104.5 2.7127 C 134.32 2.81 164.289 2.8586 193.5 7.3143 C 200.803 8.4279 201.658 8.4384 202.5 17.1749 C 205.871 52.167 205.527 88.0846 205.5 123.0122 C 205.468 163.7497 205.926 204.9277 202.5 245.2839 C 201.643 255.3733 202.884 254.9907 195 255.8019 C 163.461 259.048 131.144 257.7819 100 257.1166 C 70.344 256.4777 40.437 256.7012 11 252.515 C 3.574 251.1779 4.122 252.6281 3.5 242.6544 C 1.013 202.7596 2.417 162.4692 2.5 122.3548 C 2.917 88.245 2.222 53.7762 5 19.8044 C 5.695 11.3111 4.839 7.9914 12.5 6.6569 C 43.145 1.3204 74.008 2.5904 104.5 2.7127 Z "/>
  <text id="ID0.36565497471019626" fill="#7C5843" text-anchor="start" font-family="Scratch" font-size="22" transform="matrix(1.34802 0 0 1.34802 14.346 2.40595)" stroke-width="1" alignment-baseline="text-before-edge" xml:space="preserve"><tspan x="0" style="white-space: pre" dy="0.89em">Tops:</tspan></text>
  <text id="ID0.29802050860598683" fill="#7C5843" text-anchor="start" font-family="Scratch" font-size="22" transform="matrix(0.70348 0 0 0.70348 12.907 37.3396)" stroke-width="1" alignment-baseline="text-before-edge" xml:space="preserve"><tspan x="0" style="white-space: pre" dy="0.89em">Shirts:</tspan></text>
  <text id="ID0.29802050860598683" fill="#7C5843" text-anchor="start" font-family="Scratch" font-size="22" transform="matrix(0.70348 0 0 0.70348 12.207 140.19)" stroke-width="1" alignment-baseline="text-before-edge" xml:space="preserve"><tspan x="0" style="white-space: pre" dy="0.89em">Overs:</tspan></text>
</svg>