<svg xmlns="http://www.w3.org/2000/svg" xmlns:xlink="http://www.w3.org/1999/xlink" version="1.1" width="229.49994003772736" height="229.4999247789383" viewBox="0.40338557958602905 0.2184852957725525 229.49994003772736 229.4999247789383">
  <defs>
    <linearGradient id="grad_1" y2="1" x2="0">
      <stop offset="0" stop-color="#55351C" stop-opacity="1"/>
      <stop offset="1" stop-color="#3A2100" stop-opacity="1"/>
    </linearGradient>
    <linearGradient id="grad_2" y2="1" x2="0">
      <stop offset="0" stop-color="#7C5843" stop-opacity="1"/>
      <stop offset="1" stop-color="#55351C" stop-opacity="1"/>
    </linearGradient>
  <linearGradient id="grad_1-.8547486066818237,0,0,0.8547486066818237,-89.77262569665909,-42.94636873006821" y2="223.3078" x2="6.814" x1="6.814" y1="6.6291" gradientUnits="userSpaceOnUse">
      <stop offset="0" stop-color="#55351C" stop-opacity="1"/>
      <stop offset="1" stop-color="#3A2100" stop-opacity="1"/>
    </linearGradient><linearGradient id="grad_2-.8547486066818237,0,0,0.8547486066818237,-89.77262569665909,-42.94636873006821" y2="223.3078" x2="6.814" x1="6.814" y1="6.6291" gradientUnits="userSpaceOnUse">
      <stop offset="0" stop-color="#7C5843" stop-opacity="1"/>
      <stop offset="1" stop-color="#55351C" stop-opacity="1"/>
    </linearGradient></defs>
  <!-- Exported by Scratch - http://scratch.mit.edu/ -->
  <g id="ID0.6866977107711136">
    <path id="ID0.18577765673398972" fill="url(#grad_1-.8547486066818237,0,0,0.8547486066818237,-89.77262569665909,-42.94636873006821)" stroke="url(#grad_2-.8547486066818237,0,0,0.8547486066818237,-89.77262569665909,-42.94636873006821)" stroke-width="12.821229100227356" d="M 6.814 6.6291 L 223.4927 6.6291 L 223.4927 223.3078 L 6.814 223.3078 L 6.814 6.6291 Z " style="stroke-linejoin: round; stroke-linecap: round;"/>
    <g id="ID0.20046509755775332">
      <path id="ID0.2540546557866037" fill="#9DB78E" stroke="none" d="M 99.4473 114.6265 C 103.663 114.6265 107.482 112.9145 110.248 110.1485 C 113.0139 107.3825 114.726 103.5635 114.726 99.3479 C 114.726 95.1323 113.0139 91.3133 110.248 88.5473 C 107.482 85.7813 103.663 84.0693 99.4473 84.0693 C 95.2317 84.0693 91.4127 85.7813 88.6467 88.5473 C 85.8808 91.3133 84.1687 95.1323 84.1687 99.3479 C 84.1687 103.5635 85.8808 107.3825 88.6467 110.1485 C 91.4127 112.9145 95.2317 114.6265 99.4473 114.6265 Z " stroke-width="0.8547486066818237"/>
      <path id="ID0.2540546557866037" fill="#BCDBAA" stroke="none" d="M 130.3465 114.5838 C 134.5621 114.5838 138.3811 112.8717 141.1471 110.1058 C 143.9131 107.3398 145.6251 103.5208 145.6251 99.3052 C 145.6251 95.0895 143.9131 91.2705 141.1471 88.5046 C 138.3811 85.7386 134.5621 84.0265 130.3465 84.0265 C 126.1309 84.0265 122.3119 85.7386 119.5459 88.5046 C 116.7799 91.2705 115.0679 95.0895 115.0679 99.3052 C 115.0679 103.5208 116.7799 107.3398 119.5459 110.1058 C 122.3119 112.8717 126.1309 114.5838 130.3465 114.5838 Z " stroke-width="0.8547486066818237"/>
      <path id="ID0.2540546557866037" fill="#8BA27E" stroke="none" d="M 68.7619 114.3701 C 72.9775 114.3701 76.7965 112.6581 79.5625 109.8921 C 82.3284 107.1261 84.0405 103.3071 84.0405 99.0915 C 84.0405 94.8759 82.3284 91.0568 79.5625 88.2909 C 76.7965 85.5249 72.9775 83.8128 68.7619 83.8128 C 64.5463 83.8128 60.7272 85.5249 57.9613 88.2909 C 55.1953 91.0568 53.4832 94.8759 53.4832 99.0915 C 53.4832 103.3071 55.1953 107.1261 57.9613 109.8921 C 60.7272 112.6581 64.5463 114.3701 68.7619 114.3701 Z " stroke-width="0.8547486066818237"/>
      <path id="ID0.2540546557866037" fill="#CBEDB8" stroke="none" d="M 161.0747 114.3701 C 165.2903 114.3701 169.1094 112.6581 171.8753 109.8921 C 174.6413 107.1261 176.3534 103.3071 176.3534 99.0915 C 176.3534 94.8759 174.6413 91.0568 171.8753 88.2909 C 169.1094 85.5249 165.2903 83.8128 161.0747 83.8128 C 156.8591 83.8128 153.0401 85.5249 150.2741 88.2909 C 147.5082 91.0568 145.7961 94.8759 145.7961 99.0915 C 145.7961 103.3071 147.5082 107.1261 150.2741 109.8921 C 153.0401 112.6581 156.8591 114.3701 161.0747 114.3701 Z " stroke-width="0.8547486066818237"/>
      <path id="ID0.2540546557866037" fill="#DBFFC6" stroke="none" d="M 191.9739 114.5838 C 196.1895 114.5838 200.0085 112.8717 202.7745 110.1058 C 205.5405 107.3398 207.2525 103.5208 207.2525 99.3052 C 207.2525 95.0895 205.5405 91.2705 202.7745 88.5046 C 200.0085 85.7386 196.1895 84.0265 191.9739 84.0265 C 187.7583 84.0265 183.9392 85.7386 181.1733 88.5046 C 178.4073 91.2705 176.6953 95.0895 176.6953 99.3052 C 176.6953 103.5208 178.4073 107.3398 181.1733 110.1058 C 183.9392 112.8717 187.7583 114.5838 191.9739 114.5838 Z " stroke-width="0.8547486066818237"/>
      <path id="ID0.2540546557866037" fill="#718466" stroke="none" d="M 37.8627 114.3701 C 42.0783 114.3701 45.8973 112.6581 48.6633 109.8921 C 51.4293 107.1261 53.1413 103.3071 53.1413 99.0915 C 53.1413 94.8759 51.4293 91.0568 48.6633 88.2909 C 45.8973 85.5249 42.0783 83.8128 37.8627 83.8128 C 33.6471 83.8128 29.8281 85.5249 27.0621 88.2909 C 24.2961 91.0568 22.5841 94.8759 22.5841 99.0915 C 22.5841 103.3071 24.2961 107.1261 27.0621 109.8921 C 29.8281 112.6581 33.6471 114.3701 37.8627 114.3701 Z " stroke-width="0.8547486066818237"/>
    </g>
    <g id="ID0.20046509755775332">
      <path id="ID0.2540546557866037" fill="#A3DAED" stroke="none" d="M 99.4473 114.2846 C 103.663 114.2846 107.482 115.9967 110.248 118.7627 C 113.0139 121.5286 114.726 125.3476 114.726 129.5633 C 114.726 133.7789 113.0139 137.5979 110.248 140.3639 C 107.482 143.1298 103.663 144.8419 99.4473 144.8419 C 95.2317 144.8419 91.4127 143.1298 88.6467 140.3639 C 85.8808 137.5979 84.1687 133.7789 84.1687 129.5633 C 84.1687 125.3476 85.8808 121.5286 88.6467 118.7627 C 91.4127 115.9967 95.2317 114.2846 99.4473 114.2846 Z " stroke-width="0.8547486066818237"/>
      <path id="ID0.2540546557866037" fill="#C8F1FF" stroke="none" d="M 130.3465 114.3274 C 134.5621 114.3274 138.3811 116.0394 141.1471 118.8054 C 143.9131 121.5714 145.6251 125.3904 145.6251 129.606 C 145.6251 133.8216 143.9131 137.6406 141.1471 140.4066 C 138.3811 143.1726 134.5621 144.8846 130.3465 144.8846 C 126.1309 144.8846 122.3119 143.1726 119.5459 140.4066 C 116.7799 137.6406 115.0679 133.8216 115.0679 129.606 C 115.0679 125.3904 116.7799 121.5714 119.5459 118.8054 C 122.3119 116.0394 126.1309 114.3274 130.3465 114.3274 Z " stroke-width="0.8547486066818237"/>
      <path id="ID0.2540546557866037" fill="#6CA8CC" stroke="none" d="M 68.7619 114.5411 C 72.9775 114.5411 76.7965 116.2531 79.5625 119.0191 C 82.3284 121.7851 84.0405 125.6041 84.0405 129.8197 C 84.0405 134.0353 82.3284 137.8543 79.5625 140.6203 C 76.7965 143.3863 72.9775 145.0983 68.7619 145.0983 C 64.5463 145.0983 60.7272 143.3863 57.9613 140.6203 C 55.1953 137.8543 53.4832 134.0353 53.4832 129.8197 C 53.4832 125.6041 55.1953 121.7851 57.9613 119.0191 C 60.7272 116.2531 64.5463 114.5411 68.7619 114.5411 Z " stroke-width="0.8547486066818237"/>
      <path id="ID0.2540546557866037" fill="#DEF6FF" stroke="none" d="M 161.0747 114.5411 C 165.2903 114.5411 169.1094 116.2531 171.8753 119.0191 C 174.6413 121.7851 176.3534 125.6041 176.3534 129.8197 C 176.3534 134.0353 174.6413 137.8543 171.8753 140.6203 C 169.1094 143.3863 165.2903 145.0983 161.0747 145.0983 C 156.8591 145.0983 153.0401 143.3863 150.2741 140.6203 C 147.5082 137.8543 145.7961 134.0353 145.7961 129.8197 C 145.7961 125.6041 147.5082 121.7851 150.2741 119.0191 C 153.0401 116.2531 156.8591 114.5411 161.0747 114.5411 Z " stroke-width="0.8547486066818237"/>
      <path id="ID0.2540546557866037" fill="#ECFBFF" stroke="none" d="M 191.9739 114.3274 C 196.1895 114.3274 200.0085 116.0394 202.7745 118.8054 C 205.5405 121.5714 207.2525 125.3904 207.2525 129.606 C 207.2525 133.8216 205.5405 137.6406 202.7745 140.4066 C 200.0085 143.1726 196.1895 144.8846 191.9739 144.8846 C 187.7583 144.8846 183.9392 143.1726 181.1733 140.4066 C 178.4073 137.6406 176.6953 133.8216 176.6953 129.606 C 176.6953 125.3904 178.4073 121.5714 181.1733 118.8054 C 183.9392 116.0394 187.7583 114.3274 191.9739 114.3274 Z " stroke-width="0.8547486066818237"/>
      <path id="ID0.2540546557866037" fill="#407AA8" stroke="none" d="M 37.8627 114.5411 C 42.0783 114.5411 45.8973 116.2531 48.6633 119.0191 C 51.4293 121.7851 53.1413 125.6041 53.1413 129.8197 C 53.1413 134.0353 51.4293 137.8543 48.6633 140.6203 C 45.8973 143.3863 42.0783 145.0983 37.8627 145.0983 C 33.6471 145.0983 29.8281 143.3863 27.0621 140.6203 C 24.2961 137.8543 22.5841 134.0353 22.5841 129.8197 C 22.5841 125.6041 24.2961 121.7851 27.0621 119.0191 C 29.8281 116.2531 33.6471 114.5411 37.8627 114.5411 Z " stroke-width="0.8547486066818237"/>
    </g>
    <g id="ID0.20046509755775332">
      <path id="ID0.2540546557866037" fill="#A57659" stroke="none" d="M 99.4046 206.5975 C 103.6202 206.5975 107.4392 204.8854 110.2052 202.1195 C 112.9712 199.3535 114.6832 195.5345 114.6832 191.3189 C 114.6832 187.1032 112.9712 183.2842 110.2052 180.5183 C 107.4392 177.7523 103.6202 176.0402 99.4046 176.0402 C 95.189 176.0402 91.37 177.7523 88.604 180.5183 C 85.838 183.2842 84.126 187.1032 84.126 191.3189 C 84.126 195.5345 85.838 199.3535 88.604 202.1195 C 91.37 204.8854 95.189 206.5975 99.4046 206.5975 Z " stroke-width="0.8547486066818237"/>
      <path id="ID0.2540546557866037" fill="#E1AD96" stroke="none" d="M 130.3038 206.5547 C 134.5194 206.5547 138.3384 204.8427 141.1044 202.0767 C 143.8703 199.3108 145.5824 195.4917 145.5824 191.2761 C 145.5824 187.0605 143.8703 183.2415 141.1044 180.4755 C 138.3384 177.7095 134.5194 175.9975 130.3038 175.9975 C 126.0882 175.9975 122.2691 177.7095 119.5032 180.4755 C 116.7372 183.2415 115.0251 187.0605 115.0251 191.2761 C 115.0251 195.4917 116.7372 199.3108 119.5032 202.0767 C 122.2691 204.8427 126.0882 206.5547 130.3038 206.5547 Z " stroke-width="0.8547486066818237"/>
      <path id="ID0.2540546557866037" fill="#7C5843" stroke="none" d="M 68.7191 206.3411 C 72.9348 206.3411 76.7538 204.629 79.5197 201.863 C 82.2857 199.0971 83.9978 195.2781 83.9978 191.0624 C 83.9978 186.8468 82.2857 183.0278 79.5197 180.2618 C 76.7538 177.4959 72.9348 175.7838 68.7191 175.7838 C 64.5035 175.7838 60.6845 177.4959 57.9185 180.2618 C 55.1526 183.0278 53.4405 186.8468 53.4405 191.0624 C 53.4405 195.2781 55.1526 199.0971 57.9185 201.863 C 60.6845 204.629 64.5035 206.3411 68.7191 206.3411 Z " stroke-width="0.8547486066818237"/>
      <path id="ID0.2540546557866037" fill="#F6CEB6" stroke="none" d="M 161.032 206.3411 C 165.2476 206.3411 169.0666 204.629 171.8326 201.863 C 174.5986 199.0971 176.3106 195.2781 176.3106 191.0624 C 176.3106 186.8468 174.5986 183.0278 171.8326 180.2618 C 169.0666 177.4959 165.2476 175.7838 161.032 175.7838 C 156.8164 175.7838 152.9973 177.4959 150.2314 180.2618 C 147.4654 183.0278 145.7534 186.8468 145.7534 191.0624 C 145.7534 195.2781 147.4654 199.0971 150.2314 201.863 C 152.9973 204.629 156.8164 206.3411 161.032 206.3411 Z " stroke-width="0.8547486066818237"/>
      <path id="ID0.2540546557866037" fill="#FFEBDB" stroke="none" d="M 191.9311 206.5547 C 196.1468 206.5547 199.9658 204.8427 202.7317 202.0767 C 205.4977 199.3108 207.2098 195.4917 207.2098 191.2761 C 207.2098 187.0605 205.4977 183.2415 202.7317 180.4755 C 199.9658 177.7095 196.1468 175.9975 191.9311 175.9975 C 187.7155 175.9975 183.8965 177.7095 181.1305 180.4755 C 178.3646 183.2415 176.6525 187.0605 176.6525 191.2761 C 176.6525 195.4917 178.3646 199.3108 181.1305 202.0767 C 183.8965 204.8427 187.7155 206.5547 191.9311 206.5547 Z " stroke-width="0.8547486066818237"/>
      <path id="ID0.2540546557866037" fill="#55351C" stroke="none" d="M 37.82 206.3411 C 42.0356 206.3411 45.8546 204.629 48.6206 201.863 C 51.3865 199.0971 53.0986 195.2781 53.0986 191.0624 C 53.0986 186.8468 51.3865 183.0278 48.6206 180.2618 C 45.8546 177.4959 42.0356 175.7838 37.82 175.7838 C 33.6044 175.7838 29.7853 177.4959 27.0194 180.2618 C 24.2534 183.0278 22.5413 186.8468 22.5413 191.0624 C 22.5413 195.2781 24.2534 199.0971 27.0194 201.863 C 29.7853 204.629 33.6044 206.3411 37.82 206.3411 Z " stroke-width="0.8547486066818237"/>
    </g>
    <g id="ID0.20046509755775332">
      <path id="ID0.2540546557866037" fill="#F66B73" stroke="none" d="M 99.1909 22.3564 C 103.4065 22.3564 107.2256 24.0685 109.9915 26.8345 C 112.7575 29.6004 114.4696 33.4194 114.4696 37.6351 C 114.4696 41.8507 112.7575 45.6697 109.9915 48.4357 C 107.2256 51.2016 103.4065 52.9137 99.1909 52.9137 C 94.9753 52.9137 91.1563 51.2016 88.3903 48.4357 C 85.6244 45.6697 83.9123 41.8507 83.9123 37.6351 C 83.9123 33.4194 85.6244 29.6004 88.3903 26.8345 C 91.1563 24.0685 94.9753 22.3564 99.1909 22.3564 Z " stroke-width="0.8547486066818237"/>
      <path id="ID0.2540546557866037" fill="#F6A2A6" stroke="none" d="M 130.0901 22.4419 C 134.3057 22.4419 138.1247 24.154 140.8907 26.9199 C 143.6567 29.6859 145.3687 33.5049 145.3687 37.7205 C 145.3687 41.9362 143.6567 45.7552 140.8907 48.5211 C 138.1247 51.2871 134.3057 52.9992 130.0901 52.9992 C 125.8745 52.9992 122.0554 51.2871 119.2895 48.5211 C 116.5235 45.7552 114.8115 41.9362 114.8115 37.7205 C 114.8115 33.5049 116.5235 29.6859 119.2895 26.9199 C 122.0554 24.154 125.8745 22.4419 130.0901 22.4419 Z " stroke-width="0.8547486066818237"/>
      <path id="ID0.2540546557866037" fill="#C6565D" stroke="none" d="M 68.5054 22.6556 C 72.7211 22.6556 76.5401 24.3676 79.3061 27.1336 C 82.072 29.8996 83.7841 33.7186 83.7841 37.9342 C 83.7841 42.1498 82.072 45.9689 79.3061 48.7348 C 76.5401 51.5008 72.7211 53.2128 68.5054 53.2128 C 64.2898 53.2128 60.4708 51.5008 57.7048 48.7348 C 54.9389 45.9689 53.2268 42.1498 53.2268 37.9342 C 53.2268 33.7186 54.9389 29.8996 57.7048 27.1336 C 60.4708 24.3676 64.2898 22.6556 68.5054 22.6556 Z " stroke-width="0.8547486066818237"/>
      <path id="ID0.2540546557866037" fill="#F9C6C9" stroke="none" d="M 160.8183 22.6556 C 165.0339 22.6556 168.8529 24.3676 171.6189 27.1336 C 174.3849 29.8996 176.0969 33.7186 176.0969 37.9342 C 176.0969 42.1498 174.3849 45.9689 171.6189 48.7348 C 168.8529 51.5008 165.0339 53.2128 160.8183 53.2128 C 156.6027 53.2128 152.7837 51.5008 150.0177 48.7348 C 147.2517 45.9689 145.5397 42.1498 145.5397 37.9342 C 145.5397 33.7186 147.2517 29.8996 150.0177 27.1336 C 152.7837 24.3676 156.6027 22.6556 160.8183 22.6556 Z " stroke-width="0.8547486066818237"/>
      <path id="ID0.2540546557866037" fill="#FFE1E4" stroke="none" d="M 191.7175 22.4419 C 195.9331 22.4419 199.7521 24.154 202.5181 26.9199 C 205.284 29.6859 206.9961 33.5049 206.9961 37.7205 C 206.9961 41.9362 205.284 45.7552 202.5181 48.5211 C 199.7521 51.2871 195.9331 52.9992 191.7175 52.9992 C 187.5018 52.9992 183.6828 51.2871 180.9169 48.5211 C 178.1509 45.7552 176.4388 41.9362 176.4388 37.7205 C 176.4388 33.5049 178.1509 29.6859 180.9169 26.9199 C 183.6828 24.154 187.5018 22.4419 191.7175 22.4419 Z " stroke-width="0.8547486066818237"/>
      <path id="ID0.2540546557866037" fill="#9C4449" stroke="none" d="M 37.6063 22.6556 C 41.8219 22.6556 45.6409 24.3676 48.4069 27.1336 C 51.1729 29.8996 52.8849 33.7186 52.8849 37.9342 C 52.8849 42.1498 51.1729 45.9689 48.4069 48.7348 C 45.6409 51.5008 41.8219 53.2128 37.6063 53.2128 C 33.3907 53.2128 29.5716 51.5008 26.8057 48.7348 C 24.0397 45.9689 22.3277 42.1498 22.3277 37.9342 C 22.3277 33.7186 24.0397 29.8996 26.8057 27.1336 C 29.5716 24.3676 33.3907 22.6556 37.6063 22.6556 Z " stroke-width="0.8547486066818237"/>
    </g>
    <g id="ID0.20046509755775332">
      <path id="ID0.2540546557866037" fill="#EDB56E" stroke="none" d="M 99.6183 53.0419 C 103.8339 53.0419 107.6529 54.754 110.4189 57.5199 C 113.1849 60.2859 114.8969 64.1049 114.8969 68.3205 C 114.8969 72.5362 113.1849 76.3552 110.4189 79.1211 C 107.6529 81.8871 103.8339 83.5992 99.6183 83.5992 C 95.4027 83.5992 91.5837 81.8871 88.8177 79.1211 C 86.0517 76.3552 84.3397 72.5362 84.3397 68.3205 C 84.3397 64.1049 86.0517 60.2859 88.8177 57.5199 C 91.5837 54.754 95.4027 53.0419 99.6183 53.0419 Z " stroke-width="0.8547486066818237"/>
      <path id="ID0.2540546557866037" fill="#FFDB8D" stroke="none" d="M 130.5175 53.0846 C 134.7331 53.0846 138.5521 54.7967 141.3181 57.5627 C 144.084 60.3286 145.7961 64.1476 145.7961 68.3633 C 145.7961 72.5789 144.084 76.3979 141.3181 79.1639 C 138.5521 81.9298 134.7331 83.6419 130.5175 83.6419 C 126.3018 83.6419 122.4828 81.9298 119.7169 79.1639 C 116.9509 76.3979 115.2388 72.5789 115.2388 68.3633 C 115.2388 64.1476 116.9509 60.3286 119.7169 57.5627 C 122.4828 54.7967 126.3018 53.0846 130.5175 53.0846 Z " stroke-width="0.8547486066818237"/>
      <path id="ID0.2540546557866037" fill="#D28C56" stroke="none" d="M 68.9328 53.2983 C 73.1484 53.2983 76.9675 55.0104 79.7334 57.7764 C 82.4994 60.5423 84.2115 64.3613 84.2115 68.577 C 84.2115 72.7926 82.4994 76.6116 79.7334 79.3776 C 76.9675 82.1435 73.1484 83.8556 68.9328 83.8556 C 64.7172 83.8556 60.8982 82.1435 58.1322 79.3776 C 55.3663 76.6116 53.6542 72.7926 53.6542 68.577 C 53.6542 64.3613 55.3663 60.5423 58.1322 57.7764 C 60.8982 55.0104 64.7172 53.2983 68.9328 53.2983 Z " stroke-width="0.8547486066818237"/>
      <path id="ID0.2540546557866037" fill="#FFEFC0" stroke="none" d="M 161.2457 53.2983 C 165.4613 53.2983 169.2803 55.0104 172.0463 57.7764 C 174.8122 60.5423 176.5243 64.3613 176.5243 68.577 C 176.5243 72.7926 174.8122 76.6116 172.0463 79.3776 C 169.2803 82.1435 165.4613 83.8556 161.2457 83.8556 C 157.0301 83.8556 153.211 82.1435 150.4451 79.3776 C 147.6791 76.6116 145.967 72.7926 145.967 68.577 C 145.967 64.3613 147.6791 60.5423 150.4451 57.7764 C 153.211 55.0104 157.0301 53.2983 161.2457 53.2983 Z " stroke-width="0.8547486066818237"/>
      <path id="ID0.2540546557866037" fill="#FFFDE1" stroke="none" d="M 192.1448 53.0846 C 196.3605 53.0846 200.1795 54.7967 202.9454 57.5627 C 205.7114 60.3286 207.4235 64.1476 207.4235 68.3633 C 207.4235 72.5789 205.7114 76.3979 202.9454 79.1639 C 200.1795 81.9298 196.3605 83.6419 192.1448 83.6419 C 187.9292 83.6419 184.1102 81.9298 181.3442 79.1639 C 178.5783 76.3979 176.8662 72.5789 176.8662 68.3633 C 176.8662 64.1476 178.5783 60.3286 181.3442 57.5627 C 184.1102 54.7967 187.9292 53.0846 192.1448 53.0846 Z " stroke-width="0.8547486066818237"/>
      <path id="ID0.2540546557866037" fill="#935C31" stroke="none" d="M 38.0337 53.2983 C 42.2493 53.2983 46.0683 55.0104 48.8343 57.7764 C 51.6002 60.5423 53.3123 64.3613 53.3123 68.577 C 53.3123 72.7926 51.6002 76.6116 48.8343 79.3776 C 46.0683 82.1435 42.2493 83.8556 38.0337 83.8556 C 33.818 83.8556 29.999 82.1435 27.2331 79.3776 C 24.4671 76.6116 22.755 72.7926 22.755 68.577 C 22.755 64.3613 24.4671 60.5423 27.2331 57.7764 C 29.999 55.0104 33.818 53.2983 38.0337 53.2983 Z " stroke-width="0.8547486066818237"/>
    </g>
    <g id="ID0.20046509755775332">
      <path id="ID0.2540546557866037" fill="#BEACDE" stroke="none" d="M 99.661 144.9274 C 103.8767 144.9274 107.6957 146.6394 110.4616 149.4054 C 113.2276 152.1714 114.9397 155.9904 114.9397 160.206 C 114.9397 164.4216 113.2276 168.2406 110.4616 171.0066 C 107.6957 173.7726 103.8767 175.4846 99.661 175.4846 C 95.4454 175.4846 91.6264 173.7726 88.8604 171.0066 C 86.0945 168.2406 84.3824 164.4216 84.3824 160.206 C 84.3824 155.9904 86.0945 152.1714 88.8604 149.4054 C 91.6264 146.6394 95.4454 144.9274 99.661 144.9274 Z " stroke-width="0.8547486066818237"/>
      <path id="ID0.2540546557866037" fill="#E5CCFF" stroke="none" d="M 130.5602 144.9701 C 134.7758 144.9701 138.5948 146.6822 141.3608 149.4481 C 144.1268 152.2141 145.8388 156.0331 145.8388 160.2487 C 145.8388 164.4644 144.1268 168.2834 141.3608 171.0493 C 138.5948 173.8153 134.7758 175.5274 130.5602 175.5274 C 126.3446 175.5274 122.5256 173.8153 119.7596 171.0493 C 116.9936 168.2834 115.2816 164.4644 115.2816 160.2487 C 115.2816 156.0331 116.9936 152.2141 119.7596 149.4481 C 122.5256 146.6822 126.3446 144.9701 130.5602 144.9701 Z " stroke-width="0.8547486066818237"/>
      <path id="ID0.2540546557866037" fill="#9A8ACC" stroke="none" d="M 68.9756 145.1838 C 73.1912 145.1838 77.0102 146.8959 79.7762 149.6618 C 82.5421 152.4278 84.2542 156.2468 84.2542 160.4624 C 84.2542 164.6781 82.5421 168.4971 79.7762 171.263 C 77.0102 174.029 73.1912 175.7411 68.9756 175.7411 C 64.7599 175.7411 60.9409 174.029 58.175 171.263 C 55.409 168.4971 53.6969 164.6781 53.6969 160.4624 C 53.6969 156.2468 55.409 152.4278 58.175 149.6618 C 60.9409 146.8959 64.7599 145.1838 68.9756 145.1838 Z " stroke-width="0.8547486066818237"/>
      <path id="ID0.2540546557866037" fill="#EEDEFF" stroke="none" d="M 161.2884 145.1838 C 165.504 145.1838 169.323 146.8959 172.089 149.6618 C 174.855 152.4278 176.567 156.2468 176.567 160.4624 C 176.567 164.6781 174.855 168.4971 172.089 171.263 C 169.323 174.029 165.504 175.7411 161.2884 175.7411 C 157.0728 175.7411 153.2538 174.029 150.4878 171.263 C 147.7218 168.4971 146.0098 164.6781 146.0098 160.4624 C 146.0098 156.2468 147.7218 152.4278 150.4878 149.6618 C 153.2538 146.8959 157.0728 145.1838 161.2884 145.1838 Z " stroke-width="0.8547486066818237"/>
      <path id="ID0.2540546557866037" fill="#F8F4FF" stroke="none" d="M 192.1876 144.9701 C 196.4032 144.9701 200.2222 146.6822 202.9882 149.4481 C 205.7541 152.2141 207.4662 156.0331 207.4662 160.2487 C 207.4662 164.4644 205.7541 168.2834 202.9882 171.0493 C 200.2222 173.8153 196.4032 175.5274 192.1876 175.5274 C 187.972 175.5274 184.1529 173.8153 181.387 171.0493 C 178.621 168.2834 176.9089 164.4644 176.9089 160.2487 C 176.9089 156.0331 178.621 152.2141 181.387 149.4481 C 184.1529 146.6822 187.972 144.9701 192.1876 144.9701 Z " stroke-width="0.8547486066818237"/>
      <path id="ID0.2540546557866037" fill="#6D58AB" stroke="none" d="M 38.0764 145.1838 C 42.292 145.1838 46.111 146.8959 48.877 149.6618 C 51.643 152.4278 53.355 156.2468 53.355 160.4624 C 53.355 164.6781 51.643 168.4971 48.877 171.263 C 46.111 174.029 42.292 175.7411 38.0764 175.7411 C 33.8608 175.7411 30.0418 174.029 27.2758 171.263 C 24.5098 168.4971 22.7978 164.6781 22.7978 160.4624 C 22.7978 156.2468 24.5098 152.4278 27.2758 149.6618 C 30.0418 146.8959 33.8608 145.1838 38.0764 145.1838 Z " stroke-width="0.8547486066818237"/>
    </g>
  </g>
</svg>