<svg xmlns="http://www.w3.org/2000/svg" xmlns:xlink="http://www.w3.org/1999/xlink" version="1.1" width="80.30941772460938" height="79.492919921875" viewBox="0.4202916622161865 0.9790310859680176 80.30941772460938 79.492919921875">
  <!-- Exported by Scratch - http://scratch.mit.edu/ -->
  <path id="ID0.21381877968087792" fill="#FFFFFF" stroke="#CCCCCC" stroke-width="3" stroke-linecap="round" d="M 63.75 78.75 C 61.676 80.473 52.658 63.514 50 54.75 C 46.791 43.612 45.255 31.644 46.5 20.25 C 47.079 15.169 51.31 10.552 55.5 7.8 C 60.699 4.385 67.249 1.492 73.5 2.8 C 77.144 3.564 78.182 9.168 78.5 12.8 C 79.526 24.577 79.566 36.676 78 48.3 C 77.608 51.206 75.166 52.205 73 52.3 C 69.493 52.298 64.303 51.848 63 48.55 C 59.752 40.325 61.324 22.223 61.25 22.05 C 61.166 21.853 61.443 37.396 61.75 45.05 C 62.206 56.46 65.825 77.027 63.75 78.75 Z "/>
  <path id="ID0.21381877968087792" fill="#FFFFFF" stroke="#CCCCCC" stroke-width="3" stroke-linecap="round" d="M 17.4 78.85 C 19.474 80.573 28.492 63.614 31.15 54.85 C 34.359 43.712 35.895 31.744 34.65 20.35 C 34.071 15.269 29.84 10.652 25.65 7.9 C 20.451 4.485 13.901 1.592 7.65 2.9 C 4.006 3.664 2.968 9.268 2.65 12.9 C 1.624 24.677 1.584 36.776 3.15 48.4 C 3.542 51.306 5.984 52.305 8.15 52.4 C 11.657 52.398 16.847 51.948 18.15 48.65 C 21.398 40.425 19.826 22.323 19.9 22.15 C 19.984 21.953 19.707 37.496 19.4 45.15 C 18.944 56.56 15.325 77.127 17.4 78.85 Z "/>
</svg>