<svg xmlns="http://www.w3.org/2000/svg" xmlns:xlink="http://www.w3.org/1999/xlink" version="1.1" width="82.25775146484375" height="57.68410110473633" viewBox="0.30165648460388184 0.06617426872253418 82.25775146484375 57.68410110473633">
  <!-- Exported by Scratch - http://scratch.mit.edu/ -->
  <path id="ID0.21381877968087792" fill="#FFFFFF" stroke="#CCCCCC" stroke-width="3" stroke-linecap="round" d="M 35.75 13.5 C 39.119 14.941 43.331 14.861 46.75 13.5 C 49.653 12.343 50.03 7.47 53 6.5 C 60.274 4.124 69.657 -0.727 75.75 3.75 C 82.093 8.543 81.358 19.247 80.5 27 C 80.162 30.05 75.79 31.561 72.75 32 C 69.858 32.302 66.46 31.211 64.5 29 C 62.316 26.536 62.048 17.483 61.75 19.5 C 61.146 23.576 62.521 34.893 62.25 42.5 C 62.102 44.784 62.333 47.802 60.5 49 C 54.778 52.772 48.017 56.286 41.25 56.25 C 34.274 56.211 27.453 52.999 21.5 49.25 C 19.594 48.121 19.605 45.143 19.5 42.75 C 19.177 35.175 21.289 24.154 20.5 20 C 20.111 17.959 19.414 27.29 17 29.75 C 14.911 31.864 11.803 32.772 9 32.5 C 6.316 32.24 2.418 30.901 2.25 28.25 C 1.726 19.969 0.494 8.803 7 3.5 C 13.077 -1.17 22.785 3.772 30 6.25 C 32.914 7.251 32.934 12.264 35.75 13.5 Z "/>
</svg>