<svg xmlns="http://www.w3.org/2000/svg" xmlns:xlink="http://www.w3.org/1999/xlink" version="1.1" width="80.97962951660156" height="59.27873992919922" viewBox="0.25007784366607666 0.47153472900390625 80.97962951660156 59.27873992919922">
  <!-- Exported by Scratch - http://scratch.mit.edu/ -->
  <path id="ID0.21381877968087792" fill="#BCDBAA" stroke="#9DB78E" stroke-width="3" stroke-linecap="round" d="M 36.25 14.25 C 39.474 15.665 43.436 16.691 46.75 15.5 C 50.504 14.151 52.195 9.046 56 7.25 C 61.509 4.517 67.749 0.942 74 2.25 C 77.644 3.014 78.682 8.618 79 12.25 C 80.026 24.027 80.066 36.126 78.5 47.75 C 78.108 50.656 75.666 51.655 73.5 51.75 C 69.993 51.748 64.803 51.298 63.5 48 C 60.252 39.775 61.824 21.673 61.75 21.5 C 61.666 21.303 62.521 36.893 62.25 44.5 C 62.102 46.784 62.333 49.802 60.5 51 C 54.778 54.772 48.017 58.286 41.25 58.25 C 34.274 58.211 27.453 54.999 21.5 51.25 C 19.594 50.121 19.605 47.143 19.5 44.75 C 19.177 37.175 20.675 21.804 20.5 22 C 20.334 22.187 21.107 40.447 17 48.25 C 15.282 51.514 9.617 50.674 6 50 C 3.998 49.436 2.432 47.592 2.25 45 C 1.524 34.632 1.383 23.993 3.25 13.75 C 4.017 9.54 5.601 3.724 9.75 2.5 C 15.394 0.841 21.294 4.259 26.5 6.5 C 30.321 8.262 32.599 12.649 36.25 14.25 Z "/>
  <path id="ID0.014704836998134851" fill="#FFFFFF" stroke="#E5E5E5" stroke-width="3" stroke-linecap="round" d="M 33.75 11.5 C 36.132 12.819 39.053 13.672 40.75 16 C 41.426 16.927 40.393 18.548 39.436 19.186 C 38.121 20.064 36.472 19.958 35 19.75 C 32.653 19.427 29.969 19.044 28.5 17.25 C 26.191 14.42 23.157 8.113 24.5 6.5 C 25.698 5.067 30.715 9.653 33.75 11.5 Z "/>
  <path id="ID0.014704836998134851" fill="#FFFFFF" stroke="#E5E5E5" stroke-width="3" stroke-linecap="round" d="M 49.25 10.75 C 46.709 12.228 43.682 13.35 41.8 15.85 C 41.11 16.767 42.157 18.398 43.114 19.036 C 44.429 19.914 46.078 19.808 47.55 19.6 C 49.897 19.277 52.581 18.894 54.05 17.1 C 56.359 14.27 59.239 8.213 58.05 6.35 C 56.959 4.911 52.133 9.056 49.25 10.75 Z "/>
</svg>