<svg xmlns="http://www.w3.org/2000/svg" xmlns:xlink="http://www.w3.org/1999/xlink" version="1.1" width="46.11970138549805" height="51.852989196777344" viewBox="-0.005662202835083008 0.8972840309143066 46.11970138549805 51.852989196777344">
  <!-- Exported by Scratch - http://scratch.mit.edu/ -->
  <path id="ID0.21381877968087792" fill="#C8F1FF" stroke="#A3DAED" stroke-width="3" stroke-linecap="round" d="M 17.75 8.5 C 21.243 9.596 25.221 9.477 28.75 8.5 C 31.569 7.717 33.09 4.664 35.75 3.75 C 37.869 3.021 40.414 2.518 42.5 3.25 C 43.807 3.915 44.115 4.741 44.25 7.25 C 44.786 17.312 44.682 27.588 44.25 37.5 C 44.142 39.978 44.333 42.802 42.5 44 C 36.778 47.772 30.017 51.286 23.25 51.25 C 16.274 51.211 9.453 47.999 3.5 44.25 C 1.594 43.121 1.518 40.423 1.5 37.75 C 1.426 27.057 2.081 16.027 3.25 5.25 C 3.543 2.56 4.268 2.716 5.5 2.5 C 7.775 2.147 10.297 2.738 12.5 3.75 C 14.641 4.734 15.351 7.736 17.75 8.5 Z "/>
</svg>