<svg xmlns="http://www.w3.org/2000/svg" xmlns:xlink="http://www.w3.org/1999/xlink" version="1.1" width="99.76929473876953" height="68.20648193359375" viewBox="0.4309062957763672 0.5 99.76929473876953 68.20648193359375">
  <!-- Exported by Scratch - http://scratch.mit.edu/ -->
  <path id="ID0.6428285632282495" fill="#A57659" stroke="#7C5843" stroke-width="3" stroke-linecap="round" d="M 50.875 2 C 64.29 2 75.846 8.181 85.249 16.251 C 92.467 22.449 95.044 32.569 97.5 41.5 C 99.387 48.576 98.641 56.077 98 63.25 C 97.84 65.043 96.399 65.864 95.25 65.5 C 91.567 64.035 88.196 61.449 85.5 58.5 C 83.2 55.976 81.905 52.946 80.75 50 C 79.633 46.973 79.473 41.385 78.75 40.75 C 78.068 40.15 77.735 44.902 77.25 47 C 76.819 49.818 78.826 55.037 76 55.5 C 66.401 57.074 56.318 55.375 47 52 C 41.403 49.972 37.831 44.375 33.75 40 C 31.389 37.681 30.371 33.459 27.75 32 C 26.662 31.412 27.051 33.889 26.25 35.5 C 23.236 42.407 20.97 49.767 17 56 C 14.438 60.021 10.953 63.273 7 66.25 C 5.984 67.014 3.571 68.066 3.25 66 C 2.046 57.188 1.011 47.872 3.25 39.5 C 5.552 30.891 9.591 21.635 16.501 16.251 C 26.277 8.637 37.46 2 50.875 2 Z "/>
</svg>