<svg xmlns="http://www.w3.org/2000/svg" xmlns:xlink="http://www.w3.org/1999/xlink" version="1.1" width="47.958274841308594" height="70.06898498535156" viewBox="0.4602813720703125 0.21554851531982422 47.958274841308594 70.06898498535156">
  <!-- Exported by Scratch - http://scratch.mit.edu/ -->
  <g id="ID0.5968425003811717">
    <path id="ID0.017830292228609324" fill="#666666" stroke="#555353" stroke-width="3" stroke-linecap="round" d="M 5.25 3.75 C 7.467 5.076 9.439 6.62 11.75 7.75 C 14.636 8.884 17.641 9.571 20.75 10.5 C 22.705 11.081 25.74 10.062 26.75 11.75 C 27.801 13.698 25.44 15.927 25 18 C 23.52 24.963 21.746 31.921 21 39 C 20.112 47.423 21.771 55.812 20.25 64 C 19.853 66.141 17.584 67.799 15.5 68.25 C 12.527 69.154 9.144 68.861 6.25 67.75 C 4.488 67.075 2.773 65.563 2.5 63.5 C 1.41 55.255 2.32 46.969 2.25 38.5 C 2.187 30.758 2.094 22.991 2.25 15.25 C 2.336 10.979 1.779 6.215 3 2 C 3.324 0.913 4.427 3.257 5.25 3.75 Z "/>
    <path id="ID0.017830292228609324" fill="#666666" stroke="#555353" stroke-width="3" stroke-linecap="round" d="M 43.75 4.25 C 40.037 6.228 36.089 8.152 32 9.75 C 29.825 10.657 26.7 9.858 25 11.75 C 23.496 13.428 24.315 16.347 24.5 18.5 C 25.097 25.44 26.604 32.306 27.15 39.25 C 27.763 47.04 26.888 55.21 28.25 63 C 28.606 65.027 30.518 66.991 32.5 67.75 C 35.277 68.813 38.452 68.641 41.25 67.75 C 43.226 67.314 45.625 66.093 46 64 C 47.501 55.632 46.698 46.864 46.75 38.25 C 46.665 30.706 46.231 23.147 45.9 15.5 C 45.719 11.333 45.858 7.084 45 3 C 44.782 1.983 44.678 3.755 43.75 4.25 Z "/>
    <path id="ID0.02243475941941142" fill="#666666" stroke="none" stroke-linecap="round" d="M 25.25 12.25 C 28.23 12.195 32.66 11.131 34 11.75 C 34.868 11.982 30.814 12.66 30.05 14.1 C 28.489 17.043 29.499 21.566 27.6 23.8 C 26.749 24.716 26.013 20.427 24.55 20.4 C 22.941 20.374 21.626 24.432 20.75 23.4 C 18.876 21.282 19.996 17.102 19.05 14.1 C 18.771 13.212 16.419 12.108 17.25 11.75 C 19.518 11.183 22.581 12.298 25.25 12.25 Z " stroke-width="1"/>
  </g>
  <path id="ID0.6773295858874917" fill="none" stroke="#555353" stroke-width="3" stroke-linecap="round" d="M 2.5 20.75 C 2.5 20.75 4.725 20.857 5.75 20.5 C 6.71 20.166 7.554 19.49 8.25 18.75 C 8.915 18.043 9.75 16.25 9.75 16.25 "/>
  <path id="ID0.23825775040313601" fill="none" stroke="#555353" stroke-width="3" stroke-linecap="round" d="M 40.75 16 C 40.75 16 41.057 18.231 41.5 19.25 C 41.905 20.182 42.555 21.009 43.25 21.75 C 43.819 22.357 45.25 23.25 45.25 23.25 "/>
  <path id="ID0.12599905533716083" fill="none" stroke="#555353" stroke-width="3" stroke-linecap="round" d="M 2.75 60.25 C 2.75 60.25 5.034 63.377 6.75 64 C 9.159 64.863 11.964 65.182 14.5 64.75 C 16.463 64.212 19.5 61.25 19.5 61.25 "/>
  <path id="ID0.12599905533716083" fill="none" stroke="#555353" stroke-width="3" stroke-linecap="round" d="M 45.7 60.1 C 45.7 60.1 43.416 63.227 41.7 63.85 C 39.291 64.713 36.486 65.032 33.95 64.6 C 31.987 64.062 28.95 61.1 28.95 61.1 "/>
  <path id="ID0.9668671060353518" fill="none" stroke="#555353" stroke-width="3" stroke-linecap="round" d="M 2.25 6.5 C 2.25 6.5 8.434 11.882 12.25 13 C 18.266 14.789 24.732 15.867 31 15 C 36.274 14.269 45.5 8.25 45.5 8.25 "/>
</svg>