<svg xmlns="http://www.w3.org/2000/svg" xmlns:xlink="http://www.w3.org/1999/xlink" version="1.1" width="47.025489807128906" height="46.1254997253418" viewBox="0.5503008365631104 0.21554851531982422 47.025489807128906 46.1254997253418">
  <!-- Exported by Scratch - http://scratch.mit.edu/ -->
  <g id="ID0.5968425003811717">
    <path id="ID0.017830292228609324" fill="#FFDB8D" stroke="#EDB56E" stroke-width="3" stroke-linecap="round" d="M 5.25 3.75 C 7.467 5.076 9.439 6.62 11.75 7.75 C 14.636 8.884 17.641 9.571 20.75 10.5 C 22.705 11.081 25.74 10.062 26.75 11.75 C 27.801 13.698 25.44 15.927 25 18 C 23.52 24.963 22.616 32.067 21 39 C 20.596 40.733 20.317 40.469 19.75 41 C 18.362 42.084 16.967 43.342 15.25 43.75 C 12.687 44.355 9.831 44.353 7.35 43.75 C 5.71 43.348 4.468 41.959 3.25 40.75 C 2.721 40.161 2.34 40.433 2.25 38.5 C 1.892 30.766 2.094 22.991 2.25 15.25 C 2.336 10.979 1.779 6.215 3 2 C 3.324 0.913 4.427 3.257 5.25 3.75 Z "/>
    <path id="ID0.017830292228609324" fill="#FFDB8D" stroke="#EDB56E" stroke-width="3" stroke-linecap="round" d="M 43.75 4.25 C 40.037 6.228 36.089 8.152 32 9.75 C 29.825 10.657 26.7 9.858 25 11.75 C 23.496 13.428 24.315 16.347 24.5 18.5 C 25.097 25.44 26.068 32.369 27.15 39.25 C 27.421 40.97 27.344 40.942 27.9 41.5 C 29.202 42.791 30.599 44.049 32.3 44.35 C 35.12 45.005 38.207 45.037 40.9 44.25 C 42.72 43.71 44.12 42.093 45.4 40.75 C 45.872 40.253 45.846 40.685 45.9 38.75 C 46.115 31.011 46.153 23.238 45.9 15.5 C 45.765 11.359 45.858 7.084 45 3 C 44.782 1.983 44.678 3.755 43.75 4.25 Z "/>
    <path id="ID0.02243475941941142" fill="#FFDB8D" stroke="none" stroke-linecap="round" d="M 25.25 12.25 C 28.23 12.195 32.66 11.131 34 11.75 C 34.868 11.982 30.814 12.66 30.05 14.1 C 28.489 17.043 29.499 21.566 27.6 23.8 C 26.749 24.716 26.013 20.427 24.55 20.4 C 22.941 20.374 21.626 24.432 20.75 23.4 C 18.876 21.282 19.996 17.102 19.05 14.1 C 18.771 13.212 16.419 12.108 17.25 11.75 C 19.518 11.183 22.581 12.298 25.25 12.25 Z " stroke-width="1"/>
  </g>
</svg>