<svg xmlns="http://www.w3.org/2000/svg" xmlns:xlink="http://www.w3.org/1999/xlink" version="1.1" width="84.64345061779022" height="63.90162551403046" viewBox="0.8100669980049133 -0.5726986527442932 84.64345061779022 63.90162551403046">
  <!-- Exported by Scratch - http://scratch.mit.edu/ -->
  <path id="ID0.017830292228609324" fill="#F9C6C9" stroke="#F6A2A6" stroke-width="4.852717280387878" stroke-linecap="round" d="M 17.0053 20.7918 C 19.8684 22.2638 22.476 24.3844 25.4976 25.6445 C 30.03 27.529 35.0898 29.2355 40.1366 29.8502 C 45.3727 30.5085 51.0116 30.2497 56.3932 29.2032 C 61.2007 28.3976 65.6991 26.3109 70.3852 24.3504 C 72.129 23.6419 73.7385 20.1496 75.238 21.4388 C 79.3482 24.9425 82.7128 30.3258 83.0023 35.6735 C 83.2805 40.8691 81.2133 46.8606 77.3408 50.2316 C 75.0471 52.5302 70.9239 50.6878 68.0398 49.4228 C 66.1084 48.6286 64.9049 45.3854 63.5914 44.9745 C 62.9266 44.7351 64.7124 47.5545 63.9958 48.614 C 61.3268 52.5593 58.5575 57.5285 54.2904 59.1283 C 49.2468 61.0063 42.7053 61.9364 38.1147 59.1283 C 33.3137 56.1746 33.3606 48.2242 30.0268 43.3569 C 29.1938 42.1405 28.4756 43.9425 28.0048 44.5701 C 26.9971 45.9321 26.9841 48.5121 25.5785 49.8272 C 23.3026 51.9398 19.9574 53.8226 16.6818 54.2755 C 14.0258 54.6346 10.8424 53.1998 8.594 51.4448 C 6.2792 49.6331 4.3058 46.8363 3.7413 43.7613 C 2.8872 40.0231 3.091 35.6637 4.55 32.0339 C 6.5105 27.1569 10.2229 23.037 14.0937 19.4977 C 15.061 18.6129 16.0623 20.2127 17.0053 20.7918 Z "/>
  <path id="ID0.017830292228609324" fill="#FFFFFF" stroke="#E5E5E5" stroke-width="3.7320574522018433" stroke-linecap="round" d="M 63.6519 11.0096 C 61.45 12.1416 59.4446 13.7725 57.1208 14.7416 C 53.6351 16.1909 49.7438 17.5034 45.8624 17.9761 C 41.8355 18.4824 37.4989 18.2834 33.36 17.4785 C 29.6628 16.859 26.2032 15.2542 22.5993 13.7464 C 21.2582 13.2015 20.0204 10.5157 18.8672 11.5072 C 15.7062 14.2017 13.1186 18.3418 12.8959 22.4545 C 12.682 26.4503 14.2718 31.0582 17.25 33.6507 C 19.014 35.4185 22.185 34.0015 24.4031 33.0287 C 25.8885 32.4179 26.814 29.9236 27.8242 29.6077 C 28.3355 29.4235 26.9621 31.5919 27.5132 32.4067 C 29.5658 35.4409 31.6955 39.2625 34.9773 40.4928 C 38.8561 41.9371 43.8869 42.6524 47.4175 40.4928 C 51.1097 38.2212 51.0736 32.1069 53.6376 28.3636 C 54.2782 27.4281 54.8306 28.814 55.1926 29.2967 C 55.9676 30.3441 55.9776 32.3283 57.0586 33.3397 C 58.8089 34.9644 61.3816 36.4124 63.9007 36.7608 C 65.9434 37.0369 68.3916 35.9335 70.1208 34.5837 C 71.901 33.1904 73.4187 31.0395 73.8529 28.6746 C 74.5097 25.7997 74.353 22.4471 73.2309 19.6555 C 71.7231 15.9048 68.8681 12.7363 65.8911 10.0144 C 65.1472 9.3339 64.3772 10.5642 63.6519 11.0096 Z "/>
  <path id="ID0.017830292228609324" fill="#F9C6C9" stroke="#F6A2A6" stroke-width="3" stroke-linecap="round" d="M 25.25 3.75 C 27.467 5.076 29.439 6.62 31.75 7.75 C 34.636 8.884 37.643 10.103 40.75 10.5 C 44.008 10.909 47.661 10.501 51 9.75 C 54.457 8.973 57.755 7.385 61 5.75 C 62.611 5.04 64.113 1.661 65.5 2.75 C 67.988 4.71 68.576 8.421 68.5 11.5 C 68.419 14.848 67.394 18.416 65 20.5 C 63.582 21.921 61.033 20.782 59.25 20 C 58.056 19.509 57.312 17.504 56.5 17.25 C 56.089 17.102 57.193 18.845 56.75 19.5 C 55.1 21.939 53.388 25.011 50.75 26 C 47.632 27.161 43.588 27.736 40.75 26 C 37.782 24.174 37.811 19.259 35.75 16.25 C 35.235 15.498 34.791 16.612 34.5 17 C 33.877 17.842 33.869 19.437 33 20.25 C 31.593 21.556 29.525 22.72 27.5 23 C 25.858 23.222 23.89 22.335 22.5 21.25 C 21.069 20.13 19.849 18.401 19.5 16.5 C 18.972 14.189 19.422 11.679 20 9.25 C 20.62 6.707 21.311 3.8 23 2 C 23.648 1.31 24.427 3.257 25.25 3.75 Z "/>
</svg>