<svg xmlns="http://www.w3.org/2000/svg" xmlns:xlink="http://www.w3.org/1999/xlink" version="1.1" width="81.12178802490234" height="59.814178466796875" viewBox="0.39030516147613525 1.0123205184936523 81.12178802490234 59.814178466796875">
  <!-- Exported by Scratch - http://scratch.mit.edu/ -->
  <path id="ID0.017830292228609324" fill="#EEDEFF" stroke="#E5CCFF" stroke-width="3" stroke-linecap="round" d="M 23.25 4.75 C 25.467 6.076 27.439 7.62 29.75 8.75 C 32.636 9.884 35.643 11.103 38.75 11.5 C 42.008 11.909 45.661 11.501 49 10.75 C 52.457 9.973 55.755 8.385 59 6.75 C 60.611 6.04 62.507 1.814 63.5 3.75 C 67.473 11.493 67.079 20.972 70.25 29 C 71.921 33.231 75.356 36.371 78 40.25 C 78.661 41.22 79.342 41.995 79.75 43 C 80.032 43.694 80.161 44.421 79.75 45 C 78.942 46.86 77.821 48.71 76.25 50 C 74.086 51.772 71.748 53.256 69 54.25 C 62.542 56.572 55.884 58.958 49 59.25 C 38.796 59.682 28.464 58.242 18.5 56 C 14.117 55.013 10.333 52.239 6.75 49.5 C 4.988 48.337 3.966 46.279 2.75 44.5 C 2.433 44.035 2.126 43.66 2 43 C 1.885 42.327 1.681 42.448 2.5 41 C 5.777 35.21 10.132 30.073 13 24 C 16.196 17.235 17.565 9.459 21 3 C 21.859 1.385 22.427 4.257 23.25 4.75 Z "/>
  <path id="ID0.4668342610821128" fill="none" stroke="#E5CCFF" stroke-width="3" stroke-linecap="round" d="M 20.75 4.25 C 20.75 4.25 18.243 10.65 18.25 14 C 18.259 16.664 18.531 19.922 20.5 21.75 C 22.465 23.574 25.883 24.479 28.5 23.75 C 30.584 22.947 31.037 19.952 32 18 C 33.094 15.785 33.93 10.039 34.5 11 C 35.19 12.171 33.219 19.77 35.25 23.5 C 36.709 26.374 40.465 28.632 43.75 28.5 C 47.587 28.343 51.874 26.408 53.75 23.25 C 55.753 19.62 53.152 11.23 53.75 11 C 54.348 10.77 55.315 19.136 58 22 C 59.294 23.367 62.21 23.147 63.25 21.75 C 65.277 19.066 65.585 15.595 65.75 12.5 C 65.841 9.606 64 4.25 64 4.25 "/>
  <path id="ID0.33255170192569494" fill="none" stroke="#E5CCFF" stroke-width="3" stroke-linecap="round" d="M 2.5 42.5 C 2.5 42.5 4.214 40.957 5.25 40.5 C 7.081 39.692 9.019 39.033 11 38.75 C 12.003 38.607 13.132 38.729 14 39.25 C 14.914 39.799 15.596 40.763 16 41.75 C 16.38 42.678 16.292 43.748 16.25 44.75 C 16.208 45.762 15.957 46.759 15.75 47.75 C 15.54 48.758 15.338 49.777 15 50.75 C 14.67 51.7 13.217 53.746 13.75 53.5 C 14.698 53.062 16.635 50.531 18.25 49.25 C 19.067 48.602 20.029 48.13 21 47.75 C 21.959 47.375 22.971 47.029 24 47 C 26.004 46.944 28.135 46.763 30 47.5 C 31.874 48.241 33.353 49.797 34.75 51.25 C 35.473 52.002 35.87 53.029 36.25 54 C 36.625 54.959 36.285 57.336 37 57 C 38.41 56.336 39.042 53.416 40.5 52 C 42.007 50.536 43.814 49.317 45.75 48.5 C 47.63 47.706 49.722 47.475 51.75 47.25 C 52.746 47.139 53.777 47.257 54.75 47.5 C 55.8 47.762 56.8 48.232 57.75 48.75 C 58.642 49.237 59.546 49.767 60.25 50.5 C 61.647 51.953 63.486 55.484 64 55.25 C 64.514 55.016 63 51.276 63 49.25 C 63 48.197 63.382 47.103 64 46.25 C 65.174 44.629 66.655 43.21 68.25 42 C 69.112 41.346 70.19 40.971 71.25 40.75 C 72.228 40.546 73.259 40.626 74.25 40.75 C 75.272 40.878 76.297 41.11 77.25 41.5 C 78.149 41.868 79.75 43 79.75 43 "/>
  <path id="ID0.46682840678840876" fill="none" stroke="#E5CCFF" stroke-width="3" stroke-linecap="round" d="M 20.5 22.25 L 14 38.5 "/>
  <path id="ID0.7735895272344351" fill="none" stroke="#E5CCFF" stroke-width="3" stroke-linecap="round" d="M 32.75 19.75 L 29.5 45.25 "/>
  <path id="ID0.26248634746298194" fill="none" stroke="#E5CCFF" stroke-width="3" stroke-linecap="round" d="M 46.5 28.5 L 49 46.75 "/>
  <path id="ID0.13431791262701154" fill="none" stroke="#E5CCFF" stroke-width="3" stroke-linecap="round" d="M 62.25 23.75 L 68.25 40.75 "/>
</svg>