<svg xmlns="http://www.w3.org/2000/svg" xmlns:xlink="http://www.w3.org/1999/xlink" version="1.1" width="99.51344174781946" height="74.63417691627649" viewBox="7.995363858145937 5.73517813960956 99.51344174781946 74.63417691627649">
  <!-- Exported by Scratch - http://scratch.mit.edu/ -->
  <g id="ID0.610603756736964">
    <path id="ID0.7013144814409316" fill="#A3DAED" stroke="#6CA8CC" stroke-width="2.649634957274175" stroke-linecap="round" d="M 56.9435 40.3715 C 67.4029 37.4842 78.6483 33.6913 89.5637 35.0827 C 95.6917 35.8648 101.228 41.2013 104.1883 46.6704 C 106.5507 50.9675 106.9237 57.7115 103.9954 61.8292 C 99.3324 68.3483 91.6354 73.2317 83.8219 75.3281 C 71.4748 78.6427 57.9916 80.3119 45.4758 77.5353 C 32.8623 74.7359 15.6927 67.4623 11.3368 58.9999 C 8.9592 54.2493 25.3189 53.887 32.0081 51.1103 C 40.3555 47.6396 48.2274 42.7771 56.9435 40.3715 Z "/>
    <path id="ID0.16288871178403497" fill="#A3DAED" stroke="#6CA8CC" stroke-width="2.8582540687374847" stroke-linecap="round" d="M 47.4218 10.7404 C 59.3181 8.2626 73.474 9.2173 83.6418 14.8476 C 91.9994 19.5504 96.3354 29.4268 97.2019 38.5057 C 97.6887 43.6327 93.9497 47.1999 86.6414 51.4961 C 79.3342 55.792 68.819 59.7128 56.8345 62.2362 C 44.8501 64.7595 33.6467 65.4116 25.2275 64.4269 C 16.8074 63.4424 11.5272 61.7986 10.3255 56.7977 C 8.0971 47.5128 9.9861 36.4629 16.3399 28.5669 C 23.5286 19.6486 35.5616 13.2123 47.4218 10.7404 Z "/>
    <path id="ID0.16288871178403497" fill="#FFFFFF" stroke="#6CA8CC" stroke-width="2.864744848405392" stroke-linecap="round" d="M 50.7324 10.4903 C 61.5409 7.6839 74.7783 8.6983 83.6107 14.173 C 92.4635 19.6605 97.909 30.0435 98.1355 39.7716 C 98.2568 45.5243 90.3871 50.2393 84.4832 53.0257 C 73.2347 58.3338 60.5385 61.8239 48.291 63.3538 C 42.7482 64.047 34.7661 64.1229 32.3853 59.7078 C 27.4248 50.4927 26.2377 38.6914 30.015 28.6167 C 32.9828 20.7017 41.5707 13.0656 50.7324 10.4903 Z "/>
    <g id="ID0.4567029932513833">
      <path id="ID0.5495943366549909" fill="none" stroke="#666666" stroke-width="2.649634957274175" stroke-linecap="round" d="M 62.4301 23.1719 C 62.4301 23.1719 67.444 28.3421 69.1397 31.4618 C 71.775 36.3089 75.2695 46.6432 75.2695 46.6432 "/>
      <path id="ID0.6503665409982204" fill="none" stroke="#666666" stroke-width="2.649634957274175" stroke-linecap="round" d="M 71.2265 25.1625 C 71.2265 25.1625 67.7928 23.3907 66.4047 23.6956 C 64.7227 24.1301 62.7348 25.277 62.3678 27.0277 C 61.9454 29.1582 63.0753 32.0514 64.9835 33.0206 C 67.818 34.7118 71.9843 32.1269 74.6496 33.9188 C 76.7924 35.3594 77.9079 38.9767 76.8901 41.3446 C 75.8759 43.6566 72.6067 44.3377 70.1239 44.5744 C 68.5662 44.7209 65.9049 42.755 65.9049 42.755 "/>
    </g>
    <path id="ID0.21144700841978192" fill="#A3DAED" stroke="#6CA8CC" stroke-width="1.76642330484945" stroke-linecap="round" d="M 45.3486 7.356 C 46.8386 7.0423 48.2684 7.1329 49.3737 7.5338 C 50.4796 7.9337 51.2271 8.6292 51.4554 9.5677 C 51.6542 10.4175 51.1811 11.3042 50.5457 11.6772 C 49.5359 12.518 48.1384 12.6453 46.9636 12.8827 C 45.5889 13.1568 44.1426 13.7249 42.8129 13.531 C 41.8649 13.3497 40.8155 12.6437 40.6522 11.8423 C 40.4659 10.8932 40.8863 9.9536 41.7371 9.1417 C 42.5868 8.3292 43.8587 7.6697 45.3486 7.356 Z "/>
  </g>
</svg>