<svg xmlns="http://www.w3.org/2000/svg" xmlns:xlink="http://www.w3.org/1999/xlink" version="1.1" width="111" height="64.50180053710938" viewBox="0.25 0.24819910526275635 111 64.50180053710938">
  <!-- Exported by Scratch - http://scratch.mit.edu/ -->
  <path id="ID0.7362062940374017" fill="#7F7F7F" stroke="#666666" stroke-width="3" d="M 55.75 21.75 C 70.648 21.75 84.148 24.075 93.924 27.831 C 103.699 31.588 109.75 36.775 109.75 42.5 C 109.75 48.225 103.699 53.412 93.924 57.169 C 84.148 60.925 70.648 63.25 55.75 63.25 C 40.852 63.25 27.352 60.925 17.576 57.169 C 7.801 53.412 1.75 48.225 1.75 42.5 C 1.75 36.775 7.801 31.588 17.576 27.831 C 27.352 24.075 40.852 21.75 55.75 21.75 Z "/>
  <path id="ID0.3704973026178777" fill="#7F7F7F" stroke="#666666" stroke-width="3" d="M 64.75 1.75 C 68.103 1.622 68.828 8.358 72.25 9 C 74.654 9.272 75.123 3.261 77.5 3.75 C 81.612 4.598 85.766 7.771 87.25 11.75 C 90.727 21.077 92.914 31.414 91.25 41.375 C 90.559 45.512 87.384 46.963 81.139 48.886 C 74.893 50.809 66.268 52 56.75 52 C 47.232 52 38.607 50.809 32.361 48.886 C 26.116 46.963 22.528 45.56 22.25 41.375 C 21.535 30.605 21.924 17.477 29.75 10.25 C 38.587 2.088 52.766 2.212 64.75 1.75 Z "/>
</svg>