<svg xmlns="http://www.w3.org/2000/svg" xmlns:xlink="http://www.w3.org/1999/xlink" version="1.1" width="99.5261904549721" height="74.62102382899553" viewBox="8.02750268816337 5.7676350200115145 99.5261904549721 74.62102382899553">
  <!-- Exported by Scratch - http://scratch.mit.edu/ -->
  <g id="ID0.610603756736964">
    <path id="ID0.7013144814409316" fill="#F66B73" stroke="#C5555C" stroke-width="2.6496348957833677" stroke-linecap="round" d="M 56.9883 40.3909 C 67.4478 37.5035 78.6932 33.7106 89.6086 35.1021 C 95.7366 35.8841 101.2729 41.2206 104.2332 46.6897 C 106.5956 50.9868 106.9686 57.7308 104.0402 61.8485 C 99.3773 68.3676 91.6803 73.251 83.8668 75.3475 C 71.5197 78.662 58.0365 80.3312 45.5207 77.5546 C 32.9071 74.7552 15.7376 67.4816 11.3817 59.0192 C 9.0041 54.2686 25.3638 53.9064 32.053 51.1296 C 40.4003 47.659 48.2723 42.7965 56.9883 40.3909 Z "/>
    <path id="ID0.16288871178403497" fill="#F66B73" stroke="#C5555C" stroke-width="2.858254047040228" stroke-linecap="round" d="M 47.4539 10.698 C 59.3502 8.2203 73.5061 9.175 83.6739 14.8053 C 92.0315 19.508 96.3675 29.3845 97.234 38.4634 C 97.7208 43.5904 93.9818 47.1576 86.6735 51.4537 C 79.3663 55.7497 68.8511 59.6705 56.8666 62.1938 C 44.8822 64.7172 33.6788 65.3693 25.2597 64.3846 C 16.8396 63.4001 11.5593 61.7563 10.3577 56.7554 C 8.1292 47.4705 10.0182 36.4205 16.372 28.5246 C 23.5607 19.6062 35.5938 13.1699 47.4539 10.698 Z "/>
    <path id="ID0.16288871178403497" fill="#FFFFFF" stroke="#C5555C" stroke-width="2.864744837296307" stroke-linecap="round" d="M 50.7612 10.4779 C 61.5697 7.6714 74.8072 8.6859 83.6395 14.1606 C 92.4923 19.6481 97.9378 30.031 98.1643 39.7592 C 98.2857 45.5119 90.4159 50.2268 84.5121 53.0133 C 73.2636 58.3214 60.5674 61.8115 48.3198 63.3414 C 42.777 64.0346 34.7949 64.1105 32.4142 59.6954 C 27.4536 50.4803 26.2665 38.679 30.0438 28.6043 C 33.0116 20.6893 41.5995 13.0532 50.7612 10.4779 Z "/>
    <g id="ID0.4567029932513833">
      <path id="ID0.5495943366549909" fill="none" stroke="#666666" stroke-width="2.6496348957833677" stroke-linecap="round" d="M 62.4746 23.2135 C 62.4746 23.2135 67.4885 28.3837 69.1842 31.5034 C 71.8195 36.3505 75.3141 46.6848 75.3141 46.6848 "/>
      <path id="ID0.6503665409982204" fill="none" stroke="#666666" stroke-width="2.6496348957833677" stroke-linecap="round" d="M 71.2451 25.2008 C 71.2451 25.2008 67.8114 23.429 66.4233 23.7339 C 64.7413 24.1684 62.7534 25.3153 62.3864 27.066 C 61.964 29.1966 63.0939 32.0897 65.0021 33.0589 C 67.8367 34.7501 72.0029 32.1652 74.6683 33.9571 C 76.811 35.3977 77.9265 39.015 76.9087 41.3829 C 75.8945 43.6949 72.6253 44.376 70.1425 44.6127 C 68.5848 44.7592 65.9235 42.7933 65.9235 42.7933 "/>
    </g>
    <path id="ID0.21144700841978192" fill="#F66B73" stroke="#C5555C" stroke-width="1.7664232638555786" stroke-linecap="round" d="M 45.3946 7.3885 C 46.8846 7.0747 48.3144 7.1654 49.4197 7.5663 C 50.5256 7.9662 51.2731 8.6617 51.5014 9.6001 C 51.7002 10.45 51.2271 11.3367 50.5917 11.7097 C 49.5819 12.5505 48.1844 12.6777 47.0096 12.9152 C 45.6349 13.1893 44.1885 13.7574 42.8588 13.5635 C 41.9109 13.3822 40.8615 12.6762 40.6981 11.8748 C 40.5118 10.9257 40.9323 9.986 41.783 9.1742 C 42.6328 8.3617 43.9046 7.7022 45.3946 7.3885 Z "/>
  </g>
</svg>