<svg xmlns="http://www.w3.org/2000/svg" xmlns:xlink="http://www.w3.org/1999/xlink" version="1.1" width="68.04740142822266" height="49.982566833496094" viewBox="0.376298189163208 0.5931224822998047 68.04740142822266 49.982566833496094">
  <!-- Exported by Scratch - http://scratch.mit.edu/ -->
  <g id="ID0.013177489396184683">
    <path id="ID0.9093863544985652" fill="#666666" stroke="#555353" stroke-width="3" stroke-linecap="round" d="M 22.55 11.05 C 20.291 10.999 18.054 10.26 15.8 9.45 C 14.345 8.922 13.338 7.193 11.8 7.05 C 11.095 6.984 11.166 7.374 11.05 9.05 C 10.749 15.618 12.746 22.581 10.7 28.85 C 9.765 31.716 4.231 30.72 3.1 33.4 C 1.526 37.173 1.216 42.451 3.7 45.55 C 6.219 48.689 11.28 49.408 15.3 48.95 C 20.312 48.487 25.272 46.213 29.2 42.95 C 31.302 41.204 31.694 37.925 31.9 35.2 C 32.56 26.451 32.766 17.46 31.7 8.7 C 31.434 6.51 29.788 9.44 28.8 9.7 C 26.848 10.213 24.729 11.084 22.55 11.05 Z "/>
    <path id="ID0.9093863544985652" fill="#666666" stroke="#555353" stroke-width="3" stroke-linecap="round" d="M 22.35 6.1 C 20.091 6.049 17.854 5.31 15.6 4.5 C 14.145 3.972 13.138 2.243 11.6 2.1 C 10.895 2.034 10.966 2.424 10.85 4.1 C 10.549 10.668 12.223 17.52 10.5 23.9 C 9.48 27.675 4.705 29.49 3.2 33.1 C 2.264 35.345 1.68 38.888 3.5 40.6 C 6.411 43.337 11.08 44.458 15.1 44 C 20.112 43.537 25.072 41.263 29 38 C 31.102 36.254 31.494 32.975 31.7 30.25 C 32.36 21.501 32.566 12.51 31.5 3.75 C 31.234 1.56 29.588 4.49 28.6 4.75 C 26.648 5.263 24.529 6.134 22.35 6.1 Z "/>
    <path id="ID0.1912180883809924" fill="none" stroke="#555353" stroke-width="3" stroke-linecap="round" d="M 8.1 27.6 C 8.1 27.6 10.506 26.085 11.85 26.1 C 13.65 26.121 15.528 26.927 17.1 27.9 C 18.108 28.52 19.5 30.6 19.5 30.6 "/>
  </g>
  <g id="ID0.013177489396184683">
    <path id="ID0.9093863544985652" fill="#666666" stroke="#555353" stroke-width="3" stroke-linecap="round" d="M 46.25 11.05 C 48.509 10.999 50.746 10.26 53 9.45 C 54.455 8.922 55.462 7.193 57 7.05 C 57.705 6.984 57.634 7.374 57.75 9.05 C 58.051 15.618 56.054 22.581 58.1 28.85 C 59.035 31.716 64.569 30.72 65.7 33.4 C 67.274 37.173 67.584 42.451 65.1 45.55 C 62.581 48.689 57.52 49.408 53.5 48.95 C 48.488 48.487 43.528 46.213 39.6 42.95 C 37.498 41.204 37.106 37.925 36.9 35.2 C 36.24 26.451 36.034 17.46 37.1 8.7 C 37.366 6.51 39.012 9.44 40 9.7 C 41.952 10.213 44.071 11.084 46.25 11.05 Z "/>
    <path id="ID0.9093863544985652" fill="#666666" stroke="#555353" stroke-width="3" stroke-linecap="round" d="M 46.45 6.1 C 48.709 6.049 50.946 5.31 53.2 4.5 C 54.655 3.972 55.662 2.243 57.2 2.1 C 57.905 2.034 57.834 2.424 57.95 4.1 C 58.251 10.668 56.577 17.52 58.3 23.9 C 59.32 27.675 64.095 29.49 65.6 33.1 C 66.536 35.345 67.12 38.888 65.3 40.6 C 62.389 43.337 57.72 44.458 53.7 44 C 48.688 43.537 43.728 41.263 39.8 38 C 37.698 36.254 37.306 32.975 37.1 30.25 C 36.44 21.501 36.234 12.51 37.3 3.75 C 37.566 1.56 39.212 4.49 40.2 4.75 C 42.152 5.263 44.271 6.134 46.45 6.1 Z "/>
    <path id="ID0.1912180883809924" fill="none" stroke="#555353" stroke-width="3" stroke-linecap="round" d="M 60.7 27.6 C 60.7 27.6 58.294 26.085 56.95 26.1 C 55.15 26.121 53.272 26.927 51.7 27.9 C 50.692 28.52 49.3 30.6 49.3 30.6 "/>
  </g>
</svg>