<svg xmlns="http://www.w3.org/2000/svg" xmlns:xlink="http://www.w3.org/1999/xlink" version="1.1" width="68.85769653320312" height="31.461578369140625" viewBox="-0.053849220275878906 0.6243472099304199 68.85769653320312 31.461578369140625">
  <!-- Exported by Scratch - http://scratch.mit.edu/ -->
  <g id="ID0.9542824807576835">
    <path id="ID0.8994924095459282" fill="#FFFFFF" stroke="#CCCCCC" stroke-width="3" stroke-linecap="round" d="M 11.75 7.05 C 12.255 6.524 12.88 7.804 13.5 8.05 C 15.916 9.093 18.339 10.411 21 10.8 C 23.509 11.342 26.299 11.596 28.75 10.8 C 30.316 10.284 31.843 5.408 32.25 6.75 C 33.093 11.032 32.137 17.173 31.25 22.05 C 30.926 23.83 29.979 25.862 28.537 26.759 C 25.302 28.766 21.591 30.225 17.75 30.55 C 13.808 30.671 9.058 30.629 6 28.05 C 3.032 25.547 1.093 20.953 1.5 17 C 1.876 14.807 6.222 15.858 7.75 14.3 C 9.677 12.33 9.844 9.041 11.75 7.05 Z "/>
    <path id="ID0.8994924095459282" fill="#A3DAED" stroke="#6CA8CC" stroke-width="3" stroke-linecap="round" d="M 11.75 2.25 C 12.255 1.724 12.88 3.004 13.5 3.25 C 15.916 4.293 18.339 5.611 21 6 C 23.509 6.542 26.116 6.148 28.75 6 C 29.592 5.944 31.042 4.543 31.25 5.5 C 32.082 9.327 31.795 13.449 31.25 17.25 C 30.866 19.085 29.979 21.062 28.537 21.959 C 25.302 23.966 21.591 25.425 17.75 25.75 C 13.808 25.871 9.394 25.367 6 23.25 C 3.958 21.976 2.95 19.081 3.25 16.75 C 3.62 13.874 6.261 11.919 7.75 9.5 C 9.239 7.086 9.844 4.241 11.75 2.25 Z "/>
    <path id="ID0.8994924095459282" fill="#FFFFFF" stroke="#CCCCCC" stroke-width="3" stroke-linecap="round" d="M 6.25 14.75 C 10.301 14.861 14.497 16.358 18 18.5 C 19.464 19.395 20.321 21.438 20.5 23.25 C 20.417 24.433 19.449 26.134 18.25 26.25 C 14.313 26.628 9.998 26.238 6.5 24.5 C 4.182 23.148 2.346 20.403 2.25 17.75 C 2.19 16.065 4.581 14.692 6.25 14.75 Z "/>
    <path id="ID0.03318764083087444" fill="none" stroke="#666666" stroke-width="3" stroke-linecap="round" d="M 13 6.5 L 19.75 8.25 "/>
    <path id="ID0.256268966011703" fill="none" stroke="#666666" stroke-width="3" stroke-linecap="round" d="M 10.5 11 L 17.5 12.75 "/>
  </g>
  <g id="ID0.9542824807576835">
    <path id="ID0.8994924095459282" fill="#FFFFFF" stroke="#CCCCCC" stroke-width="3" stroke-linecap="round" d="M 57 7.05 C 56.495 6.524 55.87 7.804 55.25 8.05 C 52.834 9.093 50.411 10.411 47.75 10.8 C 45.241 11.342 42.451 11.596 40 10.8 C 38.434 10.284 36.907 5.408 36.5 6.75 C 35.657 11.032 36.613 17.173 37.5 22.05 C 37.824 23.83 38.771 25.862 40.213 26.759 C 43.448 28.766 47.159 30.225 51 30.55 C 54.942 30.671 59.692 30.629 62.75 28.05 C 65.718 25.547 67.657 20.953 67.25 17 C 66.874 14.807 62.528 15.858 61 14.3 C 59.073 12.33 58.906 9.041 57 7.05 Z "/>
    <path id="ID0.8994924095459282" fill="#A3DAED" stroke="#6CA8CC" stroke-width="3" stroke-linecap="round" d="M 57 2.25 C 56.495 1.724 55.87 3.004 55.25 3.25 C 52.834 4.293 50.411 5.611 47.75 6 C 45.241 6.542 42.634 6.148 40 6 C 39.158 5.944 37.708 4.543 37.5 5.5 C 36.668 9.327 36.955 13.449 37.5 17.25 C 37.884 19.085 38.771 21.062 40.213 21.959 C 43.448 23.966 47.159 25.425 51 25.75 C 54.942 25.871 59.356 25.367 62.75 23.25 C 64.792 21.976 65.8 19.081 65.5 16.75 C 65.13 13.874 62.489 11.919 61 9.5 C 59.511 7.086 58.906 4.241 57 2.25 Z "/>
    <path id="ID0.8994924095459282" fill="#FFFFFF" stroke="#CCCCCC" stroke-width="3" stroke-linecap="round" d="M 62.5 14.75 C 58.449 14.861 54.253 16.358 50.75 18.5 C 49.286 19.395 48.429 21.438 48.25 23.25 C 48.333 24.433 49.301 26.134 50.5 26.25 C 54.437 26.628 58.752 26.238 62.25 24.5 C 64.568 23.148 66.404 20.403 66.5 17.75 C 66.56 16.065 64.169 14.692 62.5 14.75 Z "/>
    <path id="ID0.03318764083087444" fill="none" stroke="#666666" stroke-width="3" stroke-linecap="round" d="M 55.75 6.5 L 49 8.25 "/>
    <path id="ID0.256268966011703" fill="none" stroke="#666666" stroke-width="3" stroke-linecap="round" d="M 58.25 11 L 51.25 12.75 "/>
  </g>
</svg>