<svg xmlns="http://www.w3.org/2000/svg" xmlns:xlink="http://www.w3.org/1999/xlink" version="1.1" width="32.5921739999794" height="32.00117439670792" viewBox="0.8972122935283657 8.829712179087448 32.5921739999794 32.00117439670792">
  <!-- Exported by Scratch - http://scratch.mit.edu/ -->
  <path id="ID0.006469495128840208" fill="none" stroke="#A3DAED" stroke-width="4.168975055217743" d="M 11.5281 21.6536 C 13.8861 21.6536 16.0223 22.6116 17.5698 24.1583 C 19.1165 25.7058 20.0745 27.842 20.0745 30.2 C 20.0745 32.558 19.1165 34.6942 17.5698 36.2417 C 16.0223 37.7884 13.8861 38.7464 11.5281 38.7464 C 9.1701 38.7464 7.034 37.7884 5.4864 36.2417 C 3.9397 34.6942 2.9817 32.558 2.9817 30.2 C 2.9817 27.842 3.9397 25.7058 5.4864 24.1583 C 7.034 22.6116 9.1701 21.6536 11.5281 21.6536 Z "/>
  <g id="ID0.8702167612500489">
    <path id="ID0.03734267549589276" fill="none" stroke="#A3DAED" stroke-width="4.1689753000282295" stroke-linecap="round" d="M 18.5693 23.4717 L 28.7247 13.4639 "/>
    <path id="ID0.03355742758139968" fill="none" stroke="#A3DAED" stroke-width="4.1689753000282295" stroke-linecap="round" d="M 17.4317 10.9142 L 31.4049 10.9576 L 31.392 24.7836 "/>
  </g>
</svg>