<svg xmlns="http://www.w3.org/2000/svg" xmlns:xlink="http://www.w3.org/1999/xlink" version="1.1" width="22.09280014038086" height="38.34640121459961" viewBox="-0.01830005645751953 -0.34640002250671387 22.09280014038086 38.34640121459961">
  <!-- Exported by Scratch - http://scratch.mit.edu/ -->
  <path id="ID0.006469495128840208" fill="none" stroke="#F9C6C9" stroke-width="4.168975055217743" d="M 11.0281 2.1536 C 13.3861 2.1536 15.5223 3.1116 17.0698 4.6583 C 18.6165 6.2058 19.5745 8.342 19.5745 10.7 C 19.5745 13.058 18.6165 15.1942 17.0698 16.7417 C 15.5223 18.2884 13.3861 19.2464 11.0281 19.2464 C 8.6701 19.2464 6.534 18.2884 4.9864 16.7417 C 3.4397 15.1942 2.4817 13.058 2.4817 10.7 C 2.4817 8.342 3.4397 6.2058 4.9864 4.6583 C 6.534 3.1116 8.6701 2.1536 11.0281 2.1536 Z "/>
  <path id="ID0.18994408752769232" fill="none" stroke="#F9C6C9" stroke-width="5" stroke-linecap="round" d="M 10.9 21 L 10.9 35.5 "/>
  <path id="ID0.6677934532053769" fill="none" stroke="#F9C6C9" stroke-width="5" stroke-linecap="round" d="M 4.9 29.15 L 17 29.15 "/>
</svg>