<svg version="1.1" xmlns="http://www.w3.org/2000/svg" xmlns:xlink="http://www.w3.org/1999/xlink" width="63.94609" height="170.8795" viewBox="0,0,63.94609,170.8795"><g transform="translate(-211.76589,-119.0469)"><g data-paper-data="{&quot;isPaintingLayer&quot;:true}" fill-rule="evenodd" stroke="none" stroke-width="1" stroke-linecap="butt" stroke-linejoin="miter" stroke-miterlimit="10" stroke-dasharray="" stroke-dashoffset="0" style="mix-blend-mode: normal"><path d="M235.86708,119.13012c-0.5185,-0.03627 -0.13976,-0.06615 0.8423,-0.06668c0.98206,-0.00053 1.40667,0.02881 0.94365,0.06561c-0.46356,0.03681 -1.26691,0.03681 -1.78594,0.00107M248.36015,119.12425c-0.22084,-0.04267 -0.04001,-0.07735 0.40168,-0.07735c0.44222,0 0.62305,0.03467 0.40168,0.07735c-0.22084,0.04214 -0.58251,0.04214 -0.80335,0M270.23582,119.12639c-0.27152,-0.04107 -0.09175,-0.07575 0.39901,-0.07735c0.49129,-0.00107 0.7132,0.03254 0.49396,0.07468c-0.21978,0.04267 -0.62145,0.04374 -0.89297,0.00267M214.71955,120.34475c0.05814,-0.1515 0.24858,-0.26618 0.42355,-0.25445c0.29819,0.0192 0.29872,0.0256 0.00587,0.10242c-0.1723,0.04481 -0.31259,0.20964 -0.31259,0.36594c0,0.1563 -0.05014,0.23418 -0.11149,0.17337c-0.06135,-0.06135 -0.06348,-0.23578 -0.00533,-0.38727M214.00368,121.18545c0.07681,-0.12269 0.30086,-0.22351 0.49823,-0.22351c0.3542,0 0.3542,0.00693 -0.02294,0.5361c-0.56277,0.79055 -0.98899,0.5105 -0.47529,-0.31259M212.69356,122.32327c0,-0.20057 0.1515,-0.28539 0.49129,-0.27579c0.27952,0.008 0.37554,0.05708 0.22298,0.11362c-0.14723,0.05441 -0.36807,0.17817 -0.49076,0.27525c-0.1595,0.12589 -0.22351,0.09388 -0.22351,-0.11309M238.7311,122.4801l0.11522,-0.5361l0.06081,0.50783c0.03361,0.27899 0.01494,0.55317 -0.04161,0.60972c-0.19417,0.19417 -0.24965,-0.04641 -0.13443,-0.58145M211.80112,123.46215c0,-0.57771 0.14669,-0.66466 0.52597,-0.31259c0.13229,0.12269 0.19204,0.13603 0.13283,0.02987c-0.05921,-0.10669 0.00907,-0.19364 0.15256,-0.19364c0.3398,0 0.3334,0.0208 -0.1627,0.55637c-0.54357,0.58678 -0.64866,0.57344 -0.64866,-0.08002M213.62761,186.135c0,-0.34353 0.03681,-0.48436 0.08215,-0.31259c0.04481,0.1723 0.04481,0.45342 0,0.62519c-0.04534,0.17177 -0.08215,0.03147 -0.08215,-0.31259M213.63134,187.83132c-0.0016,-0.39261 0.03307,-0.57451 0.07788,-0.40381c0.04481,0.1707 0.04641,0.49236 0.00373,0.71427c-0.04321,0.22191 -0.07948,0.08268 -0.08162,-0.31046M220.13232,190.09576c-0.32273,-0.1563 -0.24005,-0.1867 0.5073,-0.18457c0.82309,0.0016 0.8535,0.016 0.38567,0.18617c-0.35047,0.12802 -0.62625,0.12749 -0.89297,-0.0016M230.52419,190.24779l-0.42141,-0.351l0.58038,-0.00587c0.46302,-0.0048 0.58038,0.06615 0.58038,0.351c0,0.45022 -0.20377,0.45182 -0.73934,0.00587M253.40432,190.15283c0,-0.18457 0.18083,-0.26618 0.58038,-0.26192l0.58038,0.0064l-0.44649,0.25552c-0.57504,0.3286 -0.71427,0.3286 -0.71427,0M263.58227,190.06322c-0.19257,-0.12429 -0.01654,-0.17283 0.62465,-0.17283c0.64172,0 0.81776,0.04854 0.62519,0.17283c-0.14723,0.09549 -0.42888,0.17337 -0.62519,0.17337c-0.1963,0 -0.47743,-0.07788 -0.62465,-0.17337M265.36768,190.01201c-0.14723,-0.05441 -0.00907,-0.10562 0.30673,-0.11309c0.44489,-0.0112 0.55104,0.04748 0.47049,0.25818c-0.06668,0.17337 -0.17817,0.21444 -0.30726,0.11309c-0.11095,-0.08748 -0.32273,-0.20377 -0.46996,-0.25818M230.80637,192.64665c0.43048,-0.3254 0.45715,-0.3254 0.45715,0.00587c0,0.16003 -0.1611,0.26565 -0.40168,0.26192c-0.39208,-0.00533 -0.39314,-0.01227 -0.05548,-0.26778M253.40432,192.7416c0,-0.22351 0.18937,-0.22351 0.53557,0c0.21657,0.14029 0.19097,0.1739 -0.13389,0.17603c-0.22084,0.0016 -0.40168,-0.07788 -0.40168,-0.17603M213.64628,198.09836c0,-0.73667 0.03147,-1.03807 0.07041,-0.66946c0.03841,0.36807 0.03841,0.97085 0,1.33892c-0.03894,0.3686 -0.07041,0.06721 -0.07041,-0.66946M223.55111,271.44526c4.8724,-0.10722 4.82333,-0.11149 5.05324,0.44329c0.74628,1.80035 -1.46535,4.90548 -3.51908,4.94068c-1.02206,0.01707 -1.73527,-0.27152 -2.07827,-0.84069c-0.1611,-0.26725 -0.67586,-0.8823 -1.14422,-1.36666c-0.78042,-0.80709 -0.8487,-0.94792 -0.81722,-1.68192c0.06561,-1.49789 -0.03414,-1.43868 2.50555,-1.49469M257.11063,271.43725c0.46569,-0.03627 0.95272,-0.08108 1.08181,-0.09869c0.12909,-0.0176 0.39208,0.05174 0.58411,0.1547c0.24485,0.13123 0.65399,0.12642 1.37253,-0.01494c3.454,-0.67906 4.6921,1.07807 2.46074,3.49294c-0.5425,0.58678 -1.02953,1.19756 -1.08341,1.35813c-0.23631,0.70574 -3.4796,0.64279 -3.4796,-0.06775c0,-0.09068 -0.45609,-0.61078 -1.01406,-1.15542c-1.65472,-1.61524 -1.61418,-3.53508 0.07788,-3.66897M224.03121,279.94449c0.38621,-0.28219 2.15615,-0.18244 2.50075,0.14083c0.09815,0.09282 0.18404,1.14262 0.1915,2.34552c0.0144,2.38713 0.25178,3.17234 0.99379,3.28543c0.61505,0.09388 0.61825,0.19204 0.02721,0.81456c-0.30139,0.31793 -0.60278,0.75801 -0.66893,0.97832c-0.24165,0.80229 -0.56331,0.93831 -2.21696,0.93831c-1.95718,0 -1.98705,-0.02934 -1.98705,-1.97531c0,-1.33412 0.05494,-1.61791 0.40168,-2.058c0.35794,-0.45502 0.40168,-0.71267 0.40168,-2.35992c0,-1.64192 0.04001,-1.87823 0.35634,-2.10974M258.62719,279.90661c2.4266,-0.54357 2.80587,-0.19044 2.80961,2.61597c0.0016,0.91484 0.08322,1.81368 0.18137,1.99718c0.26298,0.49076 0.25872,3.34838 -0.00533,3.66577c-0.3318,0.40008 -3.25449,0.36967 -3.66204,-0.03787c-0.39314,-0.39314 -0.11682,-5.43891 0.32166,-5.8774c0.06561,-0.06561 0.00107,-0.28699 -0.14243,-0.49236c-0.57664,-0.82309 -0.34833,-1.68192 0.49716,-1.87129M256.32755,286.48335c0,-1.03113 0.02934,-1.45255 0.06561,-0.93725c0.03574,0.51583 0.03574,1.35919 0,1.87503c-0.03627,0.5153 -0.06561,0.09335 -0.06561,-0.93778" fill="#504d50"/><path d="M218.22902,120.21299c0.31793,-0.14776 11.61717,-0.13709 17.31426,0.01654l4.0125,0.10775l0.1499,0.75908c0.08215,0.41715 0.22511,0.75855 0.31739,0.75855c0.09282,0 0.16803,0.08535 0.16803,0.18937c0,0.10402 -0.07095,0.14456 -0.15843,0.09068c-0.08695,-0.05388 -0.21337,0.26725 -0.28005,0.7132c-0.09549,0.63532 -0.21551,0.84603 -0.55584,0.97565c-0.24858,0.09442 -0.43422,0.30939 -0.43422,0.5025c0,0.29072 -0.1755,0.34993 -1.26958,0.42835c-1.51336,0.10829 -2.18869,0.66466 -2.01425,1.65845c0.06775,0.38674 -0.0144,0.67906 -0.29019,1.03006l-0.38514,0.48916l0.0048,40.84145c0.0048,43.04294 -0.0128,44.0634 -0.78362,45.51328c-0.28912,0.5441 -0.41715,1.07541 -0.41235,1.7118c0.00587,0.74734 -0.06935,0.98579 -0.39421,1.24877c-0.3318,0.26832 -0.42355,0.57718 -0.52917,1.77741c-0.08908,1.00979 -0.21444,1.51549 -0.41235,1.66005c-0.41448,0.30299 -0.65613,1.06154 -0.65613,2.05853c0,0.65559 -0.09282,0.96072 -0.37127,1.2205c-0.26725,0.24858 -0.41608,0.70147 -0.53024,1.60831c-0.10562,0.84123 -0.27152,1.37573 -0.49823,1.60191c-0.24538,0.24538 -0.37554,0.72814 -0.47102,1.74273c-0.09975,1.06367 -0.21124,1.46001 -0.46249,1.63551c-0.1819,0.12749 -0.38567,0.52383 -0.45235,0.8807c-0.24218,1.28985 -0.18137,39.14672 0.06295,39.24061c0.12269,0.04694 0.22298,0.21871 0.22298,0.38141c0,0.23151 0.11309,0.27312 0.52063,0.1915l0.52063,-0.10402l-0.0256,1.51549l-0.0256,1.51549l-0.49503,-0.10882c-0.46889,-0.10295 -0.49503,-0.07521 -0.49503,0.53024c0,0.55851 -0.05494,0.63959 -0.43422,0.63959c-0.3414,0 -0.44702,0.10509 -0.49129,0.49076c-0.04428,0.38567 -0.16163,0.50303 -0.54731,0.54731c-0.38567,0.04481 -0.49129,0.1499 -0.49129,0.49129c0,0.3638 -0.08695,0.43475 -0.53557,0.43475c-0.45235,0 -0.53557,0.06935 -0.53557,0.44595c0,0.70307 -2.18815,0.61825 -2.37379,-0.09175c-0.05228,-0.20004 -0.28379,-0.3494 -0.59691,-0.38514c-0.40701,-0.04694 -0.52277,-0.15843 -0.56758,-0.54944c-0.04481,-0.38567 -0.1499,-0.49129 -0.49129,-0.49129c-0.33927,0 -0.43422,-0.09335 -0.43422,-0.42675c0,-0.30406 -0.12589,-0.45875 -0.43582,-0.53664c-0.71534,-0.17923 -0.78468,-1.41307 -0.31633,-5.64322c0.12322,-1.11221 0.13123,-8.35414 0.04267,-37.8174c-0.00427,-1.50802 -0.04374,-1.69633 -0.42408,-2.05373c-0.33233,-0.31206 -0.44168,-0.65133 -0.53077,-1.64298c-0.09388,-1.04713 -0.18564,-1.30905 -0.56331,-1.61364c-0.39528,-0.31899 -0.45075,-0.50143 -0.45075,-1.48188c0,-0.96285 -0.06188,-1.17516 -0.44649,-1.53149c-0.36327,-0.33606 -0.44649,-0.58251 -0.44649,-1.31865c0,-1.00393 -0.24005,-1.80941 -0.62785,-2.10547c-0.14296,-0.10935 -0.29232,-0.62785 -0.34087,-1.18476c-0.12269,-1.41681 -0.27579,-1.90863 -0.65879,-2.11347c-0.27685,-0.1483 -0.3366,-0.38621 -0.3366,-1.34266c0,-1.03166 -0.05494,-1.21623 -0.49129,-1.64512l-0.49076,-0.48276v-10.10594c0,-10.49375 -0.01334,-10.69592 -0.71694,-10.69592c-0.86523,0 -0.48329,-1.85636 0.44915,-2.18229c0.22191,-0.07788 0.37234,-49.08463 0.18937,-61.87909c-0.00907,-0.65346 -0.07788,-0.78895 -0.47582,-0.93991c-0.41235,-0.15683 -0.45715,-0.25765 -0.39688,-0.8887c0.03734,-0.39154 0.0112,-0.7116 -0.05868,-0.7116c-0.06935,0 -0.1515,-0.17763 -0.18297,-0.39421c-0.06028,-0.41555 -1.13782,-0.78202 -1.79821,-0.61238c-0.1723,0.04428 -0.26778,0.00747 -0.21284,-0.08108c0.14243,-0.23098 1.99398,-0.20111 2.44207,0.03894c0.45449,0.24271 20.80933,0.23151 21.10699,-0.01174c0.10402,-0.08482 0.72867,-0.21124 1.38907,-0.28112c0.69347,-0.07361 1.29091,-0.23685 1.41521,-0.38674c0.11842,-0.14243 0.44222,-0.37661 0.71907,-0.5201c0.44062,-0.22724 0.5041,-0.36274 0.5041,-1.06847c0,-1.92304 -0.82736,-2.23936 -4.91028,-1.87663c-1.17836,0.10455 -2.20736,0.19097 -2.28684,0.19204c-0.07948,0.00107 -0.10562,0.06508 -0.05761,0.14243c0.1659,0.26832 -10.69806,0.52703 -13.02384,0.30993c-1.28345,-0.11949 -1.78168,-0.64439 -0.96925,-1.021M248.40656,120.2338c5.67576,-0.1771 25.73881,-0.02881 25.96019,0.19257c0.43528,0.43422 0.24538,3.29663 -0.22351,3.36278c-0.343,0.04854 -0.40701,0.14669 -0.3494,0.53717c0.06668,0.45502 0.03841,0.47422 -0.61345,0.41181c-1.98812,-0.18937 -2.81334,0.36967 -2.81334,1.90703c0,0.52917 -0.09869,0.76708 -0.40168,0.96819l-0.40168,0.26672l-0.01067,31.10891l-0.01067,31.10891l0.40168,0.15256c0.46036,0.1755 0.72707,0.59905 0.78202,1.24131c0.06401,0.75481 0.01547,0.8519 -0.51903,1.03807c-0.72547,0.25285 -0.72174,0.19204 -0.68707,11.25283l0.03094,9.7016l-0.40114,0.30246c-0.30246,0.22831 -0.44862,0.60812 -0.59425,1.54536c-0.10669,0.68333 -0.33553,1.42321 -0.5089,1.64405c-0.1835,0.23258 -0.36807,0.8887 -0.44008,1.56563c-0.06881,0.64066 -0.22458,1.26478 -0.34567,1.38693c-0.359,0.36007 -0.64332,1.3736 -0.64332,2.29431c0,0.68386 -0.08962,0.94205 -0.44115,1.26798c-0.36114,0.33446 -0.46302,0.64599 -0.56277,1.71926c-0.07575,0.81456 -0.20964,1.34426 -0.35367,1.39974c-0.26298,0.10082 -0.5233,0.84443 -0.7052,2.01319c-0.06775,0.43742 -0.28592,1.10688 -0.48436,1.48775c-0.35634,0.68386 -0.3606,0.93938 -0.32913,20.45246c0.03467,21.6799 0.01334,21.25048 1.05514,21.11126c0.17283,-0.02294 0.21871,0.23098 0.1787,0.98899c-0.04374,0.83163 -0.11469,1.02953 -0.38247,1.06794c-0.44008,0.06401 -0.4961,0.13656 -0.63586,0.82416c-0.08695,0.42568 -0.22991,0.60545 -0.5153,0.64652c-0.28379,0.04107 -0.39528,0.17923 -0.39528,0.49129c0,0.34033 -0.09335,0.43368 -0.43422,0.43368c-0.3414,0 -0.44649,0.10562 -0.49129,0.49129c-0.04428,0.38781 -0.1611,0.50303 -0.55637,0.54837c-0.33553,0.03841 -0.55477,0.20057 -0.66519,0.49076c-0.25712,0.6764 -2.31671,0.66519 -2.31671,-0.0128c0,-0.37447 -0.08375,-0.44595 -0.52383,-0.44595c-0.43635,0 -0.5329,-0.08055 -0.58038,-0.48436c-0.04001,-0.3462 -0.18297,-0.51317 -0.5025,-0.58731c-0.28272,-0.06561 -0.46729,-0.24858 -0.50356,-0.49823c-0.04107,-0.28325 -0.17977,-0.39421 -0.49129,-0.39421c-0.35367,0 -0.43422,-0.09122 -0.43635,-0.49129c-0.0032,-0.59371 -0.13976,-0.81776 -0.66679,-1.09568c-0.60972,-0.32059 -0.60652,-2.16308 0.00373,-2.16308c1.08234,0 1.04287,0.84443 0.98526,-21.10539l-0.05174,-19.93236l-0.38247,-0.51797c-0.22618,-0.30513 -0.46142,-1.0226 -0.57504,-1.75074c-0.13069,-0.8423 -0.30139,-1.31972 -0.5377,-1.50589c-0.27205,-0.21444 -0.3606,-0.55317 -0.41395,-1.5827c-0.05601,-1.07221 -0.13709,-1.36346 -0.44649,-1.60724c-0.29019,-0.22778 -0.41981,-0.62145 -0.55851,-1.69526c-0.10669,-0.82416 -0.30139,-1.53096 -0.47476,-1.72246c-0.1611,-0.17817 -0.36487,-0.82949 -0.45235,-1.44721c-0.08962,-0.63586 -0.31739,-1.33839 -0.52437,-1.61844c-0.25605,-0.34567 -0.36594,-0.76761 -0.36594,-1.4008c0,-0.92818 -0.38727,-2.14388 -0.6828,-2.14388c-0.36914,0 -0.39368,-2.74773 -0.39048,-43.23124l0.0032,-42.08969l-0.44702,-0.5313c-0.27045,-0.32113 -0.44702,-0.75428 -0.44702,-1.09461c0,-1.33039 -0.62945,-1.79555 -2.4298,-1.79555c-0.68066,0 -0.79162,-0.05601 -0.88977,-0.44649c-0.06721,-0.26778 -0.23951,-0.44649 -0.43048,-0.44649c-0.52223,0 -0.70467,-1.41947 -0.37874,-2.94617l0.11416,-0.53557l3.30197,-0.10349M252.61537,120.923c-0.23258,-0.31846 -4.57101,-0.58145 -6.2332,-0.37821c-1.02366,0.12536 -1.68406,2.14761 -0.90631,2.776c0.1563,0.12696 0.49183,0.42141 0.74521,0.65506c0.35634,0.32913 0.72601,0.44542 1.63445,0.51477c0.64599,0.04908 1.31545,0.1627 1.48829,0.25178c0.27845,0.14403 16.19671,0.1915 19.50561,0.05868c2.12147,-0.08535 3.85407,-0.39954 4.26535,-0.77295c0.20751,-0.18884 0.55797,-0.43635 0.77882,-0.54997c0.34033,-0.1755 0.40114,-0.34993 0.39634,-1.13835c-0.01067,-1.70166 -0.38887,-1.87396 -4.01197,-1.82542c-3.23155,0.04321 -3.02778,0.0192 -3.41186,0.40328c-0.47529,0.47582 -13.90294,0.48063 -14.25074,0.00533M227.29103,127.21487c-2.87255,-0.01227 -6.26627,-0.03947 -7.54118,-0.06081c-2.37379,-0.03894 -3.21448,0.19897 -2.84055,0.80335c0.06668,0.10829 0.14563,13.34336 0.17443,29.41045c0.02934,16.06762 0.06828,29.29416 0.08642,29.39231c0.01867,0.09815 -0.02294,0.46356 -0.09175,0.81189c-0.28592,1.44188 -0.51797,1.40134 8.19944,1.44134l7.67401,0.03574l0.12856,-0.60865c0.09709,-0.45662 0.05868,-0.66306 -0.15203,-0.82362c-0.20057,-0.1531 -0.24591,-0.35794 -0.15683,-0.71427c0.27365,-1.09941 0.31366,-1.66005 0.11842,-1.66005c-0.13229,0 -0.1979,-0.62359 -0.1979,-1.8857c0,-1.037 0.07041,-1.84195 0.1563,-1.78861c0.1755,0.10882 0.10189,-5.25594 -0.07948,-5.82885c-0.06348,-0.19951 -0.04641,-0.31953 0.03787,-0.26778c0.08428,0.05228 0.1531,-1.50482 0.1531,-3.45933c0,-1.95451 -0.04428,-3.55428 -0.09869,-3.55428c-0.05441,0 -0.05228,-0.42195 0.00427,-0.93725c0.22191,-2.02119 0.09869,-39.48759 -0.13123,-39.8946c-0.21764,-0.38461 -0.27472,-0.38887 -5.44318,-0.41128M253.58302,127.27782c-0.24538,0.00587 -0.61612,-0.04854 -0.82309,-0.12109c-0.24698,-0.08642 -0.45129,-0.04161 -0.59425,0.13123c-0.23578,0.28325 -0.22991,-0.80335 -0.19897,39.02723c0.0112,13.81439 -0.04641,21.55401 -0.16216,21.95088c-0.24698,0.84283 -0.82256,0.78682 7.62493,0.74254l7.63453,-0.04054l0.38407,-0.47849c0.29232,-0.3638 0.34247,-0.55744 0.20857,-0.80762c-0.11416,-0.21284 -0.15523,-7.25419 -0.11682,-19.90996c0.03307,-10.769 0.06081,-23.87872 0.06295,-29.13253c0.0016,-5.25434 0.06348,-9.83442 0.13763,-10.17796c0.28325,-1.31225 0.47102,-1.27971 -7.04402,-1.23437c-3.66684,0.02187 -6.86799,0.04481 -7.11337,0.05068M218.8094,128.76344c-0.1723,-0.04534 -0.03147,-0.08215 0.31206,-0.08215c0.34407,0 0.48436,0.03681 0.31259,0.08215c-0.17177,0.04481 -0.45289,0.04481 -0.62465,0M218.45627,132.38973c0,-0.44168 0.03467,-0.62252 0.07735,-0.40168c0.04214,0.22084 0.04214,0.58251 0,0.80335c-0.04267,0.22084 -0.07735,0.04054 -0.07735,-0.40168M231.54945,189.48551c-0.36754,-0.24485 -13.36097,-0.15576 -13.856,0.09495c-0.49503,0.25071 -0.68653,3.06459 -0.24965,3.6631c0.44382,0.60705 13.04517,0.75268 14.12965,0.16323c0.99913,-0.54357 0.98259,-3.24862 -0.024,-3.92129M267.33553,189.70635c-0.1915,-0.30352 -13.79999,-0.50196 -14.25234,-0.20804c-0.79429,0.51583 -0.86737,3.08166 -0.10775,3.7954l0.42728,0.40168l6.78104,-0.00427c5.21113,-0.0032 6.84345,-0.05654 7.05362,-0.23098c0.31473,-0.26085 0.39368,-3.28596 0.09815,-3.75379M252.72792,194.12533c-0.25178,-0.52383 -0.34993,-0.57024 -0.71694,-0.33766c-0.23258,0.14776 -0.22084,0.97085 0.0176,1.20877c0.1979,0.19844 0.14723,1.10901 -0.08268,1.47655c-0.15896,0.25498 -0.15736,0.69827 0.00747,1.87769c0.11896,0.8487 0.17283,1.61311 0.12002,1.69846c-0.08962,0.14563 -0.10722,4.93802 -0.03841,10.66712c0.02774,2.32578 0.06295,2.57329 0.43688,3.07899c0.27259,0.3686 0.45875,0.96819 0.56598,1.81848c0.11042,0.87964 0.27312,1.3896 0.53077,1.66379c0.20431,0.21764 0.37341,0.63159 0.37554,0.91964c0.00747,0.8743 0.30352,1.87769 0.62412,2.11187c0.29072,0.21231 0.38087,0.66359 0.42355,2.11774c0.0128,0.43635 0.15896,0.80869 0.42035,1.07007c0.31366,0.31366 0.42355,0.68173 0.50623,1.69846c0.08428,1.0274 0.19417,1.39173 0.52863,1.747c0.31473,0.33553 0.45235,0.74468 0.5425,1.61578c0.08855,0.8535 0.22244,1.26158 0.49983,1.51976c0.24058,0.22404 0.37874,0.57131 0.37874,0.95218c0,0.36754 0.10349,0.63852 0.26778,0.70147c0.14776,0.05654 0.26832,0.04001 0.26832,-0.03681c0,-0.94845 1.95718,-1.26104 2.41006,-0.38514c0.42035,0.81242 0.80389,0.59691 0.80389,-0.45182c0,-0.23204 0.18937,-0.62732 0.42141,-0.8775c0.28646,-0.30886 0.45822,-0.76548 0.53557,-1.42001c0.06188,-0.53077 0.30939,-1.35493 0.54891,-1.83075c0.23951,-0.47636 0.48649,-1.34799 0.54891,-1.93691c0.07735,-0.72974 0.23364,-1.20023 0.49129,-1.47548c0.27685,-0.29659 0.39688,-0.7004 0.45075,-1.51762c0.04481,-0.68066 0.17337,-1.19276 0.3302,-1.31705c0.33446,-0.26405 0.60118,-1.2109 0.60118,-2.13534c0,-0.53557 0.12056,-0.86417 0.44595,-1.2157c0.24591,-0.26458 0.45662,-0.63799 0.46889,-0.82949c0.01227,-0.1915 0.04267,-0.42835 0.06721,-0.5265c0.02454,-0.09815 0.05441,-0.45395 0.06668,-0.79055c0.01227,-0.33713 0.1515,-0.74148 0.30993,-0.89991c0.5425,-0.5425 0.74948,-1.68139 0.56384,-3.103c-0.09815,-0.75054 -0.10722,-1.59124 -0.02027,-1.96411c0.08268,-0.359 0.10402,-3.54521 0.04694,-7.08029c-0.08482,-5.23461 -0.05921,-6.50258 0.13816,-6.83011c0.1915,-0.31793 0.1947,-0.40381 0.0144,-0.41341c-0.12482,-0.0064 -3.48014,-0.02667 -7.45583,-0.04481l-7.22912,-0.03254l-0.23525,-0.49129M233.1935,194.47206c-0.05388,-0.55424 -1.2157,-1.03647 -1.2157,-0.50463c0,0.70307 -0.3302,0.73828 -6.93307,0.73828c-3.50467,0 -6.61887,-0.07095 -6.92133,-0.15736c-1.10155,-0.31633 -1.05247,-0.7116 -1.11648,8.96012c-0.06135,9.27432 -0.03361,9.65359 0.73828,10.15182c0.09975,0.06401 0.24858,0.60918 0.33073,1.21143c0.08215,0.60225 0.30459,1.39333 0.49343,1.7582c0.18937,0.36487 0.42515,1.2125 0.52437,1.88356c0.11042,0.75214 0.29072,1.30158 0.46942,1.43228c0.1883,0.13763 0.32326,0.58731 0.38514,1.27971c0.11149,1.25144 0.35634,1.98545 0.70734,2.11987c0.16216,0.06241 0.25178,0.36914 0.25285,0.86097c0.00107,1.12395 0.30939,2.06493 0.71854,2.19509c0.30566,0.09655 0.35153,0.27472 0.35153,1.35759c0,1.08768 0.05601,1.30212 0.44222,1.68832c0.24325,0.24325 0.44435,0.48063 0.44649,0.52757c0.00213,0.04641 0.00427,0.351 0.00427,0.67586c0,0.88764 0.44595,1.40614 0.79749,0.92658c0.53344,-0.72761 0.65986,-0.80335 1.34746,-0.80335c0.60172,0 0.74254,0.07788 0.98259,0.54144c0.34727,0.6716 0.54144,0.57024 0.68973,-0.359c0.07308,-0.45609 0.20964,-0.718 0.37447,-0.718c0.40861,0 0.62892,-0.60332 0.62892,-1.71926c0,-0.86043 0.07521,-1.10688 0.45715,-1.50536c0.3462,-0.36167 0.48116,-0.73134 0.55797,-1.52776c0.05708,-0.58731 0.26672,-1.32452 0.47582,-1.67125c0.21551,-0.35794 0.42408,-1.10688 0.49236,-1.76727c0.07895,-0.76281 0.21284,-1.19916 0.40008,-1.30372c0.3478,-0.1947 0.64972,-1.23704 0.65133,-2.24523c0.00053,-0.41768 0.08535,-0.75908 0.18884,-0.75908c0.32166,0 0.70467,-1.1949 0.70467,-2.19829c0,-0.72601 0.08535,-1.03753 0.34887,-1.27598c0.51637,-0.46676 1.08234,-3.89195 0.6844,-4.13786c-0.22564,-0.13923 -0.1611,-1.64672 0.09228,-2.17268c0.22404,-0.46462 0.25872,-2.84215 0.06615,-4.58915c-0.06135,-0.56117 -0.05068,-0.59958 0.05014,-0.17817c0.08322,0.34567 0.12749,-0.0144 0.12536,-1.01726c-0.00213,-0.89457 -0.07255,-1.51016 -0.16697,-1.45201c-0.21124,0.13069 -0.02454,-2.93603 0.19577,-3.21608c0.23364,-0.29712 0.06188,-1.21783 -0.27312,-1.46268c-0.25498,-0.18617 -0.24378,-0.24858 0.11042,-0.60278c0.27792,-0.27792 0.37874,-0.56331 0.3398,-0.96445M225.98305,238.15246c-0.79055,-0.57771 -2.16362,-0.07842 -2.07133,0.75374c0.10402,0.93938 0.65773,1.20236 1.69899,0.80655c0.59958,-0.22831 0.83643,-1.22103 0.37234,-1.5603M260.68945,238.13059c-0.25978,-0.25978 -1.36293,-0.27259 -1.79448,-0.02134c-0.44489,0.25925 -0.42248,1.34266 0.03307,1.58644c1.27224,0.68066 2.72052,-0.60598 1.76141,-1.5651M227.58496,270.84034c-1.11861,-0.11042 -3.1222,-0.17337 -3.46627,-0.10989c-0.14616,0.02721 -0.90311,0.10722 -1.68299,0.1787l-1.41734,0.12909l-0.16216,0.62519c-0.32593,1.25411 -0.07895,2.67038 0.55691,3.19261c0.31259,0.25712 0.56811,0.52437 0.56704,0.59371c-0.00107,0.06881 0.17923,0.32273 0.40008,0.56331c0.22084,0.24058 0.49343,0.55264 0.60545,0.69347c0.30939,0.38994 2.24897,0.75641 2.70665,0.51156c0.20324,-0.10882 0.5377,-0.1979 0.74308,-0.1979c0.23098,0 0.43582,-0.1659 0.53877,-0.43582c0.09068,-0.23951 0.3302,-0.5233 0.5313,-0.63105c0.20111,-0.10775 0.3654,-0.31526 0.3654,-0.46089c0,-0.14616 0.20111,-0.3574 0.44755,-0.46942c0.57398,-0.26138 0.8759,-1.32986 0.74254,-2.62877c-0.12216,-1.1917 -0.3622,-1.44454 -1.47602,-1.5539M263.55987,271.20734c-0.48116,-0.48116 -7.02428,-0.5297 -7.59506,-0.05601c-0.6876,0.57078 -0.47316,3.41719 0.28699,3.81033c0.27472,0.14243 0.5425,0.42248 0.59478,0.62305c0.05281,0.20004 0.20324,0.36434 0.33553,0.3654c0.13176,0.00053 0.36594,0.22138 0.51957,0.49076c0.57024,0.99699 3.71965,1.17889 4.05091,0.23364c0.05388,-0.15363 0.30673,-0.49396 0.56171,-0.75695c0.25552,-0.26245 0.54464,-0.56704 0.64279,-0.6764c0.09815,-0.10989 0.33927,-0.31046 0.53557,-0.44595c0.48276,-0.33286 0.5345,-3.12007 0.06721,-3.58789M224.38274,278.91069c0.8679,-0.58891 1.30585,-0.59371 1.45095,-0.016c0.09175,0.36647 0.22031,0.44649 0.71747,0.44649c0.56758,0 0.60438,0.03627 0.58785,0.58038c-0.01654,0.53504 -0.02774,0.5457 -0.14189,0.13443c-0.21231,-0.76228 -2.52742,-0.89084 -4.23601,-0.23525c-0.10989,0.04214 -0.23791,-0.06988 -0.28485,-0.24805c-0.07255,-0.27792 0.0096,-0.31579 0.57024,-0.26245c0.48169,0.04588 0.83589,-0.05974 1.33626,-0.39954M258.85016,278.9843c0.08802,-0.27685 0.27045,-0.3574 0.80922,-0.3574c0.51317,0 0.74628,0.09388 0.8871,0.3574c0.14189,0.26458 0.37394,0.35687 0.89937,0.35687h0.70787v2.49968v2.50021h0.53557c0.48223,0 0.53557,0.05601 0.53557,0.56331c0,0.5345 -0.01654,0.54784 -0.32646,0.26778c-0.17977,-0.1627 -0.41181,-0.29552 -0.51637,-0.29552c-0.33393,0 -0.40701,-0.5121 -0.40701,-2.84321v-2.2783l-0.99272,-0.22191c-0.58251,-0.13069 -1.3768,-0.1739 -1.91984,-0.10509c-1.64085,0.20804 -1.53309,0.05388 -1.59657,2.28951l-0.05708,1.99825l-0.03787,-2.18709l-0.03841,-2.18762h0.70254c0.54517,0 0.72707,-0.07948 0.81509,-0.35687M222.51411,283.77562c0,-0.31099 0.04748,-0.5185 0.10509,-0.46036c0.1979,0.1979 -0.13763,2.4282 -0.37927,2.52102c-0.3574,0.13709 -0.64226,-0.32486 -0.72494,-1.17569c-0.04107,-0.42141 -0.02721,-0.66573 0.03094,-0.54304c0.24111,0.51156 0.96819,0.25445 0.96819,-0.34193M227.00778,283.6268c0.02347,-0.43795 0.02507,-0.43742 0.09709,0.03361c0.05601,0.3654 0.1883,0.49343 0.55371,0.53557c0.39314,0.04534 0.48596,0.15256 0.5121,0.59105c0.0176,0.29499 -0.00747,0.39901 -0.05601,0.23204c-0.04854,-0.1675 -0.26352,-0.359 -0.47849,-0.42622c-0.49556,-0.1547 -0.65879,-0.40488 -0.62839,-0.96605M256.4401,284.56404c0,-0.22831 0.14456,-0.31259 0.53557,-0.31259c0.29446,0 0.5345,0.08055 0.5329,0.1787c-0.0048,0.29019 -0.24858,0.54997 -0.48863,0.51957c-0.12269,-0.016 -0.30352,-0.03841 -0.40168,-0.05068c-0.09815,-0.01227 -0.17817,-0.16323 -0.17817,-0.335M228.04958,287.56035c0,-0.29766 0.04001,-0.5409 0.08908,-0.5409c0.04908,0 0.08962,0.42141 0.08962,0.93725v0.93725h-0.67c-0.61292,0 -0.66893,0.04161 -0.66253,0.49129l0.00693,0.49076h-2.08787c-2.00252,0 -2.08467,-0.0144 -1.99505,-0.35794c0.12376,-0.47209 -0.24325,-0.8919 -0.77935,-0.8919c-0.5265,0 -0.71107,-0.41181 -0.44649,-0.99326c0.29446,-0.64599 0.92018,-0.58571 0.92018,0.08802c0,0.91004 0.3622,1.08394 2.26177,1.08394c1.12875,0 1.86009,-0.08535 2.17482,-0.25392c0.26032,-0.13976 0.61452,-0.29766 0.78628,-0.35153c0.20751,-0.06455 0.31259,-0.27952 0.31259,-0.63906M262.71384,287.74652c0.23204,-0.09282 0.44168,-0.1739 0.46676,-0.1803c0.02454,-0.0064 0.04428,0.19204 0.04428,0.44062c0,0.45875 -0.06295,0.5057 -0.93725,0.6972c-0.40168,0.08802 -0.49129,0.20431 -0.49129,0.63959v0.53237h-1.96411h-1.96411v-0.44008c0,-0.47369 -0.44542,-0.80976 -1.07274,-0.80976c-0.46782,0 -0.42461,-0.49343 0.06935,-0.78415c0.25818,-0.15256 0.3558,-0.14136 0.42408,0.04748c0.38087,1.05567 3.91222,1.41254 4.65316,0.47049c0.19204,-0.24431 0.5393,-0.52063 0.77188,-0.61345" fill="#949394"/><path d="M245.86153,119.14079c1.94064,-0.10135 6.91813,0.07788 7.14111,0.25712c0.79589,0.63959 -0.42035,0.84656 -4.98923,0.8487c-3.14194,0.0016 -2.9739,-0.07895 -3.1206,1.49309c-0.13283,1.42534 0.01174,2.07933 0.46036,2.07933c0.20804,0 0.37714,0.1691 0.44649,0.44649c0.09815,0.39048 0.20911,0.44649 0.88977,0.44649c1.80035,0 2.4298,0.46516 2.4298,1.79555c0,0.34033 0.17657,0.77348 0.44702,1.09461l0.44702,0.5313l-0.0032,42.08969c-0.0032,40.48351 0.02134,43.23124 0.39048,43.23124c0.29552,0 0.6828,1.2157 0.6828,2.14388c0,0.63319 0.10989,1.05514 0.36594,1.4008c0.20697,0.28005 0.43475,0.98259 0.52437,1.61844c0.08748,0.61772 0.29126,1.26904 0.45235,1.44721c0.17337,0.1915 0.36807,0.89831 0.47476,1.72246c0.13869,1.07381 0.26832,1.46748 0.55851,1.69526c0.30939,0.24378 0.39048,0.53504 0.44649,1.60724c0.05334,1.02953 0.14189,1.36826 0.41395,1.5827c0.23631,0.18617 0.40701,0.66359 0.5377,1.50589c0.11362,0.72814 0.34887,1.44561 0.57504,1.75074l0.38247,0.51797l0.05174,19.93236c0.05761,21.94982 0.09709,21.10539 -0.98526,21.10539h-0.40541v-20.44446v-20.445h-0.42728c-0.53504,0 -0.64439,-0.28219 -0.64439,-1.66805c0,-0.97352 -0.04748,-1.12448 -0.40168,-1.28025c-0.33873,-0.14883 -0.41021,-0.3366 -0.45555,-1.20343c-0.04214,-0.80869 -0.14669,-1.12075 -0.49076,-1.46535c-0.24058,-0.24058 -0.43795,-0.58145 -0.43848,-0.75801c-0.00053,-0.17603 -0.12216,-0.55211 -0.26992,-0.83536c-0.16376,-0.31419 -0.20644,-0.59318 -0.10935,-0.71427c0.42461,-0.53077 0.32913,-1.5747 -0.16003,-1.7454c-0.43582,-0.15203 -0.47582,-0.25125 -0.51263,-1.26158c-0.03307,-0.91378 -0.11202,-1.15969 -0.47529,-1.47175c-0.32486,-0.27899 -0.43635,-0.55477 -0.43795,-1.08287c-0.0032,-1.15649 -0.20377,-2.04786 -0.46142,-2.04786c-0.33286,0 -0.60812,-0.58145 -0.60812,-1.28505c0,-0.44489 -0.10082,-0.63852 -0.40168,-0.77081c-0.3574,-0.1563 -0.40168,-0.30406 -0.40168,-1.33679c0,-1.06741 0.03254,-1.16502 0.40168,-1.2173c0.60278,-0.08588 0.56918,-1.04873 -0.04428,-1.28238c-0.64332,-0.24431 -0.64599,-1.34533 -0.00427,-1.63765l0.44275,-0.20164l0.04854,-7.07069c0.07148,-10.40787 0.00213,-13.40951 -0.31046,-13.40951c-0.13923,0 -0.34513,-0.1707 -0.45662,-0.37981c-0.24645,-0.46089 0.03734,-1.2269 0.45449,-1.2269c0.24218,0 0.27152,-3.08593 0.27152,-28.29557c0,-25.07842 -0.03041,-28.28384 -0.26778,-28.19315c-0.14723,0.05654 -0.26778,0.0096 -0.26778,-0.10509c0,-0.11469 -0.08215,-0.15736 -0.18297,-0.09495c-0.10029,0.06188 -0.17123,0.04641 -0.15736,-0.03414c0.0144,-0.08108 0.016,-0.72974 0.00427,-1.44188l-0.0208,-1.29465h-0.94418c-0.83269,0 -0.94738,-0.04428 -0.97245,-0.37714c-0.03894,-0.52063 -0.12962,-0.57718 -0.88177,-0.54891c-0.80069,0.03041 -1.12982,-0.21497 -1.12982,-0.8423c0,-0.34353 -0.29659,-0.76815 -1.07167,-1.53469l-1.07114,-1.06047v1.01726c0,0.88124 -0.05814,1.05514 -0.43582,1.30212c-0.23951,0.15736 -0.46036,0.46036 -0.49076,0.67373c-0.03361,0.23631 -0.20324,0.40968 -0.43262,0.44222c-0.20751,0.02987 -0.46676,0.25071 -0.57664,0.49129c-0.1835,0.40274 -0.29659,0.43688 -1.43761,0.43688h-1.23864l-0.06828,1.20556c-0.07095,1.25197 -0.14509,7.73269 -0.21711,19.06073c-0.06455,10.19929 -0.28912,16.83684 -0.57718,17.07581c-0.45609,0.37821 -0.3414,22.04957 0.11789,22.29548c0.20697,0.11095 0.3574,0.37394 0.3574,0.62519c0,0.25125 -0.15043,0.51423 -0.3574,0.62465c-0.50996,0.27312 -0.50996,1.53469 0,1.69633c0.47956,0.15203 0.47956,1.13568 0,1.7454c-0.54731,0.6956 -0.5169,2.65331 0.04481,2.89976l0.40168,0.17603l0.04961,9.0172c0.05281,9.66159 0.04961,9.72934 -0.49396,9.87176c-0.31099,0.08108 -0.3622,0.25178 -0.38141,1.27118c-0.03094,1.64405 -0.024,1.61738 -0.45182,1.67872c-0.35794,0.05068 -0.38941,0.1723 -0.44649,1.75127c-0.05388,1.48722 -0.10935,1.73367 -0.44862,1.99825c-0.29766,0.23258 -0.41235,0.56704 -0.49716,1.45201c-0.11362,1.18209 -0.31419,1.61791 -0.74468,1.61791c-0.35527,0 -0.30192,0.23578 0.11149,0.49396c0.45289,0.28325 0.45875,0.84283 0.01227,1.15542c-0.18937,0.13283 -0.39901,0.45875 -0.46569,0.72441c-0.07842,0.31206 -0.24058,0.48276 -0.45875,0.48276c-0.26939,0 -0.3398,0.13549 -0.34833,0.67c-0.02454,1.62538 -0.16803,2.22496 -0.61612,2.57756c-0.39154,0.30779 -0.44489,0.48703 -0.44489,1.49735c0,0.63105 -0.06028,1.13835 -0.13389,1.12662c-0.67106,-0.10615 -1.13195,0.57024 -0.53557,0.78628c0.17817,0.06455 0.17817,0.15683 0.0016,0.45662c-0.17283,0.29286 -0.22298,4.66436 -0.22618,19.82514c-0.00427,17.47696 -0.03307,19.46027 -0.28432,19.55682c-0.47796,0.1835 -0.78575,0.11842 -0.78575,-0.16643c0,-0.15043 -0.10029,-0.31206 -0.22298,-0.359c-0.24431,-0.09388 -0.30513,-37.95076 -0.06295,-39.24061c0.06668,-0.35687 0.27045,-0.75321 0.45235,-0.8807c0.25125,-0.1755 0.36274,-0.57184 0.46249,-1.63551c0.09549,-1.01459 0.22564,-1.49735 0.47102,-1.74273c0.22671,-0.22618 0.39261,-0.76068 0.49823,-1.60191c0.11416,-0.90684 0.26298,-1.35973 0.53024,-1.60831c0.27845,-0.25978 0.37127,-0.56491 0.37127,-1.2205c0,-0.99699 0.24165,-1.75554 0.65613,-2.05853c0.1979,-0.14456 0.32326,-0.65026 0.41235,-1.66005c0.10562,-1.20023 0.19737,-1.50909 0.52917,-1.77741c0.32486,-0.26298 0.40008,-0.50143 0.39421,-1.24877c-0.0048,-0.63639 0.12322,-1.16769 0.41235,-1.7118c0.77081,-1.44988 0.78842,-2.47034 0.78362,-45.51328l-0.0048,-40.84145l0.38514,-0.48916c0.27579,-0.351 0.35794,-0.64332 0.29019,-1.03006c-0.17443,-0.99379 0.5009,-1.55016 2.01425,-1.65845c1.09408,-0.07842 1.26958,-0.13763 1.26958,-0.42835c0,-0.1931 0.18564,-0.40808 0.43422,-0.5025c0.34033,-0.12962 0.46036,-0.34033 0.55584,-0.97565c0.06668,-0.44595 0.1931,-0.76708 0.28005,-0.7132c0.08748,0.05388 0.15843,0.01334 0.15843,-0.09068c0,-0.10402 -0.07521,-0.18937 -0.16803,-0.18937c-0.09228,0 -0.23525,-0.3414 -0.31739,-0.75855l-0.1499,-0.75908l-4.05038,-0.09762c-4.24828,-0.10242 -4.59448,-0.16643 -3.90955,-0.72121c0.43582,-0.35367 8.27146,-0.55211 8.21705,-0.20804c-0.07895,0.5009 0.07895,0.74308 0.55264,0.8471c0.29232,0.06455 0.52383,0.17123 0.51423,0.23738c-0.00907,0.06668 -0.00693,0.31686 0.0048,0.55584l0.0208,0.43528l0.49129,-0.45555c0.49983,-0.46356 1.7422,-0.86097 2.69332,-0.86097c0.40968,0 0.55104,-0.09709 0.63639,-0.43742c0.09815,-0.39208 0.21604,-0.44329 1.13515,-0.49129M269.07666,119.13652c4.67877,-0.08748 5.9206,0.06401 5.67896,0.69347c-0.08162,0.21231 0.3382,0.3414 0.84016,0.25872c0.18564,-0.03094 0.13496,4.1448 -0.05388,4.44992c-0.30459,0.49343 -1.68566,0.3238 -1.74807,-0.21497c-0.04428,-0.38247 0.02667,-0.48863 0.3574,-0.53557c0.46622,-0.06615 0.69667,-2.11081 0.34247,-3.04165l-0.17283,-0.45555l-4.02104,-0.07201c-4.26269,-0.07628 -4.3571,-0.09175 -4.05038,-0.66519c0.18297,-0.34193 0.38141,-0.37074 2.82721,-0.41715M229.69203,119.56967c0.3254,-0.3254 0.82202,-0.25712 1.03593,0.14243c0.17603,0.32966 0.13549,0.3574 -0.5297,0.3574c-0.74414,0 -0.8759,-0.13016 -0.50623,-0.49983M211.93341,124.81708c0.36754,-0.367 2.00999,0.13923 2.00999,0.61932c0,0.19097 0.06241,0.34673 0.13869,0.34673c0.07628,0 0.10829,0.32006 0.07095,0.7116c-0.06028,0.63105 -0.01547,0.73187 0.39688,0.8887c0.39794,0.15096 0.46676,0.28646 0.47582,0.93991c0.18297,12.79446 0.03254,61.80121 -0.18937,61.87909c-0.93245,0.32593 -1.31439,2.18229 -0.44915,2.18229c0.7036,0 0.71694,0.20217 0.71694,10.69592v10.10594l0.49076,0.48276c0.43635,0.42888 0.49129,0.61345 0.49129,1.64512c0,0.95645 0.05974,1.19436 0.3366,1.34266c0.38301,0.20484 0.5361,0.69667 0.65879,2.11347c0.04854,0.55691 0.1979,1.07541 0.34087,1.18476c0.38781,0.29606 0.62785,1.10155 0.62785,2.10547c0,0.73614 0.08322,0.98259 0.44649,1.31865c0.38461,0.35634 0.44649,0.56864 0.44649,1.53149c0,0.98046 0.05548,1.16289 0.45075,1.48188c0.37767,0.30459 0.46942,0.56651 0.56331,1.61364c0.08908,0.99166 0.19844,1.33092 0.53077,1.64298c0.38034,0.3574 0.41981,0.5457 0.42408,2.05373c0.08855,29.46326 0.08055,36.70519 -0.04267,37.8174c-0.46836,4.23015 -0.39901,5.46398 0.31633,5.64322c0.30993,0.07788 0.43582,0.23258 0.43582,0.53664c0,0.3334 0.09495,0.42675 0.43422,0.42675c0.3414,0 0.44649,0.10562 0.49129,0.49129c0.04481,0.39101 0.16056,0.5025 0.56758,0.54944c0.31313,0.03574 0.54464,0.1851 0.59691,0.38514c0.18564,0.71 2.37379,0.79482 2.37379,0.09175c0,-0.37661 0.08322,-0.44595 0.53557,-0.44595c0.44862,0 0.53557,-0.07095 0.53557,-0.43475c0,-0.3414 0.10562,-0.44649 0.49129,-0.49129c0.38567,-0.04428 0.50303,-0.16163 0.54731,-0.54731c0.04428,-0.38567 0.1499,-0.49076 0.49129,-0.49076c0.37714,0 0.43422,-0.08215 0.43422,-0.62519c0,-0.65506 0.03467,-0.6828 0.64812,-0.51797c0.33766,0.09068 0.57024,1.13248 0.24698,1.10795c-0.71054,-0.05494 -0.89511,0.06241 -0.89511,0.57078c0,0.29446 -0.06028,0.52597 -0.13389,0.51423c-0.52757,-0.08322 -0.75855,0.05921 -0.75855,0.46782c0,0.35687 -0.08962,0.44649 -0.44649,0.44649c-0.31099,0 -0.44649,0.09709 -0.44649,0.32113c0,0.17657 -0.08055,0.40168 -0.1787,0.49983c-0.26939,0.26939 0.19204,1.10741 0.6764,1.22904c0.22458,0.05654 0.39581,0.20057 0.38034,0.32059c-0.20857,1.63551 0.04801,4.523 0.41661,4.68463c0.49716,0.21818 0.62039,1.00286 0.21978,1.40347c-0.46249,0.46249 -0.59852,0.34727 -0.65666,-0.55797c-0.04961,-0.77668 -0.09549,-0.85296 -0.54517,-0.90471l-0.49129,-0.05654v-2.39833v-2.39886h-0.60545c-0.49716,0 -0.62572,-0.08002 -0.71747,-0.44649c-0.14456,-0.57611 -0.58305,-0.57291 -1.44134,0.0096c-1.06687,0.72387 -2.56369,0.43368 -1.78381,-0.34567c0.26192,-0.26245 0.26298,-0.31419 0.00747,-0.56918c-0.15416,-0.15416 -0.28059,-0.39528 -0.28059,-0.53557c0,-0.15576 -0.18083,-0.25498 -0.46516,-0.25498c-0.31579,0 -0.43582,-0.07735 -0.37394,-0.23951c0.13336,-0.34673 -0.11789,-0.66733 -0.54837,-0.69933c-0.20537,-0.01547 -0.36914,-0.07201 -0.36434,-0.12536c0.06348,-0.702 -0.06135,-0.89991 -0.56918,-0.89991c-0.29446,0 -0.52597,-0.06028 -0.51477,-0.13443c0.13763,-0.87003 -0.05868,-1.76194 -0.42248,-1.92144c-0.57024,-0.25018 -0.57078,-1.33146 -0.00107,-1.61524l0.40061,-0.20004l0.008,-19.26824c0.0048,-10.59724 0.00533,-19.76433 0.00107,-20.37138c-0.0064,-1.00606 -0.04267,-1.10848 -0.40861,-1.16076c-0.37501,-0.05334 -0.40541,-0.1563 -0.45395,-1.53843c-0.03894,-1.11541 -0.11789,-1.50696 -0.31899,-1.5843c-0.49289,-0.18884 -0.78949,-1.07487 -0.78949,-2.35885c0,-1.15649 -0.02881,-1.25037 -0.40168,-1.30372c-0.37127,-0.05228 -0.40594,-0.16056 -0.45342,-1.41521c-0.04748,-1.24611 -0.08802,-1.37466 -0.49129,-1.5587c-0.29499,-0.13443 -0.45075,-0.3622 -0.47422,-0.69507c-0.0192,-0.27205 -0.05174,-0.6956 -0.07255,-0.94098c-0.02134,-0.24538 -0.04588,-0.62732 -0.05441,-0.84816c-0.0096,-0.22618 -0.13069,-0.40168 -0.27845,-0.40168c-0.45395,0 -0.63105,-0.64172 -0.63105,-2.28631c0,-1.54056 -0.01387,-1.59497 -0.40061,-1.57417c-0.49876,0.02667 -0.44382,1.23544 -0.46996,-10.32305l-0.02187,-9.89737l-0.40221,-0.12536c-0.61505,-0.19204 -0.66199,-0.37447 -0.65399,-2.53915l0.008,-2.01585l0.52383,-0.10455l0.52437,-0.10509v-30.60001v-30.60001h-0.44649c-0.24591,0 -0.45769,-0.10029 -0.47156,-0.22298c-0.03734,-0.32966 -0.08855,-0.8839 -0.12322,-1.33946c-0.02294,-0.30139 -0.14189,-0.40168 -0.47689,-0.40168c-0.44595,0 -0.65026,-0.62892 -0.31366,-0.96605M271.30269,124.83788c0.22191,-0.04267 0.86577,-0.08855 1.43014,-0.10189l1.02686,-0.024v0.53557c0,0.53024 -0.0096,0.53557 -0.98206,0.53557h-0.98206l-0.00267,1.20556c-0.00267,1.28398 -0.08322,1.52136 -0.57771,1.70326c-0.29552,0.10935 -0.31206,1.59444 -0.31206,27.75467v27.63944l0.40168,0.17657c0.57238,0.25125 0.56331,1.77314 -0.0128,2.2399c-0.61238,0.49556 -0.58091,2.48955 0.03894,2.48955h0.42782l0.02614,2.31564l0.02614,2.31618l-0.45395,0.11362c-0.53824,0.13549 -0.64972,1.17036 -0.1819,1.68726c0.24431,0.26992 0.24431,0.32486 0,0.52703c-0.23738,0.19737 -0.27205,1.3672 -0.27205,9.12602v8.89931l-0.40221,0.22298c-0.22084,0.12269 -0.44168,0.21231 -0.49076,0.19951c-0.04908,-0.0128 -0.07788,0.51263 -0.06455,1.16716c0.03734,1.78594 -0.08268,2.32151 -0.5345,2.38606c-0.32593,0.04641 -0.38994,0.18724 -0.42782,0.94738c-0.08322,1.65205 -0.19844,2.03772 -0.58625,1.96304c-0.26245,-0.05068 -0.35207,0.03094 -0.3542,0.3238c-0.02027,2.74773 -0.17817,3.51588 -0.72174,3.51588c-0.31206,0 -0.34673,0.13283 -0.34673,1.34319c0,1.25944 -0.02774,1.35599 -0.44595,1.54643c-0.42835,0.19524 -0.59585,0.89884 -0.45449,1.91077c0.08642,0.61879 -0.18244,1.09194 -0.62039,1.09194h-0.44329v20.51488c0,21.23555 0.00747,21.01364 -0.65986,20.58156c-0.54944,-0.35634 -0.58251,-1.50856 -0.61185,-21.12779c-0.02881,-19.51095 -0.02454,-19.76967 0.3318,-20.453c0.19844,-0.38087 0.41661,-1.05034 0.48436,-1.48775c0.1819,-1.16876 0.44222,-1.91237 0.7052,-2.01319c0.14403,-0.05548 0.27792,-0.58518 0.35367,-1.39974c0.09975,-1.07327 0.20164,-1.3848 0.56277,-1.71926c0.35153,-0.32593 0.44115,-0.58411 0.44115,-1.26798c0,-0.92071 0.28432,-1.93424 0.64332,-2.29431c0.12109,-0.12216 0.27685,-0.74628 0.34567,-1.38693c0.07201,-0.67693 0.25658,-1.33306 0.44008,-1.56563c0.17337,-0.22084 0.40221,-0.96072 0.5089,-1.64405c0.14563,-0.93725 0.29179,-1.31705 0.59425,-1.54536l0.40114,-0.30246l-0.03094,-9.7016c-0.03467,-11.06079 -0.03841,-10.99998 0.68707,-11.25283c0.5345,-0.18617 0.58305,-0.28325 0.51903,-1.03807c-0.05494,-0.64226 -0.32166,-1.0658 -0.78202,-1.24131l-0.40168,-0.15256l0.01067,-31.10891l0.01067,-31.10891l0.40168,-0.26672c0.30299,-0.20111 0.40168,-0.43902 0.40168,-0.96819c0,-0.89777 0.41928,-1.70753 0.93565,-1.80728M217.10934,127.43838c0.28219,-0.28165 0.61292,-0.31739 2.64051,-0.28432c1.27491,0.02134 4.66863,0.04854 7.54118,0.06081c5.16846,0.0224 5.22554,0.02667 5.44318,0.41128c0.22991,0.40701 0.35313,37.87341 0.13123,39.8946c-0.05654,0.5153 -0.05868,0.93725 -0.00427,0.93725c0.05441,0 0.09869,1.59977 0.09869,3.55428c0,1.95451 -0.06881,3.51161 -0.1531,3.45933c-0.08428,-0.05174 -0.10135,0.06828 -0.03787,0.26778c0.18137,0.57291 0.25498,5.93767 0.07948,5.82885c-0.08588,-0.05334 -0.1563,0.75161 -0.1563,1.78861c0,1.26211 0.06561,1.8857 0.1979,1.8857c0.19524,0 0.15523,0.56064 -0.11842,1.66005c-0.08908,0.35634 -0.04374,0.56117 0.15683,0.71427c0.21071,0.16056 0.24911,0.367 0.15203,0.82362l-0.12856,0.60865l-7.67401,-0.03574c-8.71741,-0.04001 -8.48536,0.00053 -8.19944,-1.44134c0.06881,-0.34833 0.11042,-0.71374 0.09175,-0.81189c-0.01814,-0.09815 -0.05708,-13.32469 -0.08642,-29.39231c-0.02881,-16.06709 -0.10775,-29.30216 -0.17443,-29.41045c-0.06721,-0.10829 0.02294,-0.34193 0.20004,-0.51903M252.16568,127.28795c0.14296,-0.17283 0.34727,-0.21764 0.59425,-0.13123c0.20697,0.07255 0.57771,0.12696 0.82309,0.12109c0.24538,-0.00587 3.44653,-0.02881 7.11337,-0.05068c7.51504,-0.04534 7.32727,-0.07788 7.04402,1.23437c-0.07415,0.34353 -0.13603,4.92361 -0.13763,10.17796c-0.00213,5.25381 -0.02987,18.36353 -0.06295,29.13253c-0.03841,12.65577 0.00267,19.69712 0.11682,19.90996c0.13389,0.25018 0.08375,0.44382 -0.20857,0.80762l-0.38407,0.47849l-7.63453,0.04054c-8.44749,0.04428 -7.87191,0.10029 -7.62493,-0.74254c0.11576,-0.39688 0.17337,-8.1365 0.16216,-21.95088c-0.03094,-39.83059 -0.03681,-38.74398 0.19897,-39.02723M231.01922,128.87973c-0.0128,-0.01547 -2.81601,-0.05654 -6.2284,-0.09175l-6.20493,-0.06348l-0.00373,1.52029c-0.00213,1.09301 0.00053,55.85713 0.00373,57.63134c0,0.3238 0.36807,0.27312 0.65026,-0.08962c0.21391,-0.27525 0.26885,-0.28059 0.46569,-0.04428c0.1915,0.22938 1.00126,0.26032 5.63842,0.21764c3.63857,-0.03307 5.3781,0.01014 5.30289,0.13229c-0.06401,0.10295 -0.0032,0.13976 0.13976,0.08482c0.17283,-0.06668 0.28966,-0.54517 0.37127,-1.52296c0.09282,-1.11381 -0.03947,-57.66015 -0.13496,-57.7743M260.02532,128.81891c-3.33077,0 -6.18305,-0.04908 -6.33828,-0.10882c-0.25712,-0.09815 -0.28272,2.57916 -0.28272,29.55128v29.65903h6.33882h6.33882v-22.56807c0,-19.89556 -0.03201,-22.58034 -0.26778,-22.67102c-0.21764,-0.08322 -0.26778,-0.50676 -0.26778,-2.25643c0,-1.74967 0.05014,-2.17322 0.26778,-2.25697c0.22831,-0.08748 0.26778,-0.78095 0.26778,-4.72571v-4.62329h-6.05663M252.01098,193.78767c0.37287,-0.23685 0.49876,-0.1819 0.6812,0.29766c0.09388,0.24805 0.29286,0.4977 0.44168,0.55477c0.23631,0.09068 0.27045,1.20183 0.27045,8.85023c0,8.56004 0.008,8.75208 0.36114,9.04227c0.47262,0.38834 0.62412,1.07327 0.69773,3.15581c0.00693,0.1979 0.1931,0.43848 0.41448,0.53557c0.35527,0.1563 0.40754,0.3254 0.45395,1.47068c0.04374,1.07274 0.12322,1.36506 0.46516,1.70699c0.35847,0.35794 0.41715,0.61025 0.44862,1.91557c0.03574,1.47602 0.18137,1.84142 0.66199,1.65685c0.28165,-0.10829 0.40648,0.37661 0.46836,1.81848c0.04107,0.95858 0.08855,1.07701 0.44809,1.12822c0.37714,0.05388 0.40168,0.14136 0.40168,1.45361c0,1.34106 0.0176,1.40134 0.44649,1.50909c0.29072,0.07308 0.44595,0.23685 0.44595,0.47102c0,0.1979 0.14083,0.40861 0.31259,0.46889c0.17177,0.06028 0.45022,0.27899 0.61772,0.48543c0.30513,0.37554 0.30566,0.37554 0.21124,0.0064c-0.06455,-0.25178 0.07735,-0.55424 0.44595,-0.94845c0.49129,-0.52597 0.5457,-0.7052 0.59265,-1.95184c0.04801,-1.26904 0.08215,-1.3768 0.45395,-1.42961c0.36007,-0.05121 0.40328,-0.16163 0.41928,-1.07114c0.03307,-1.91023 0.03094,-1.90277 0.55637,-1.96304l0.48489,-0.05601l0.05068,-1.81902c0.04854,-1.7326 0.06988,-1.82168 0.45289,-1.87609c0.38194,-0.05388 0.57184,-1.11435 0.41395,-2.31244c-0.04107,-0.31419 0.48436,-0.80816 0.75108,-0.70574c0.1595,0.06135 0.20697,-0.18777 0.17443,-0.92018c-0.06828,-1.56723 0.1595,-2.58023 0.62785,-2.7872l0.39848,-0.17657v-8.79262v-8.79262l0.44649,-0.11202c0.83109,-0.20857 1.38213,0.04641 1.10261,0.5105c-0.19417,0.3222 -0.21978,1.62325 -0.13549,6.82638c0.05708,3.53508 0.03574,6.72129 -0.04694,7.08029c-0.08695,0.37287 -0.07788,1.21357 0.02027,1.96411c0.18564,1.42161 -0.02134,2.56049 -0.56384,3.103c-0.15843,0.15843 -0.29766,0.56277 -0.30993,0.89991c-0.01227,0.3366 -0.04214,0.6924 -0.06668,0.79055c-0.02454,0.09815 -0.05494,0.335 -0.06721,0.5265c-0.01227,0.1915 -0.22298,0.56491 -0.46889,0.82949c-0.3254,0.35153 -0.44595,0.68013 -0.44595,1.2157c0,0.92444 -0.26672,1.87129 -0.60118,2.13534c-0.15683,0.12429 -0.28539,0.63639 -0.3302,1.31705c-0.05388,0.81722 -0.1739,1.22103 -0.45075,1.51762c-0.25765,0.27525 -0.41395,0.74574 -0.49129,1.47548c-0.06241,0.58891 -0.30939,1.46055 -0.54891,1.93691c-0.23951,0.47582 -0.48703,1.29998 -0.54891,1.83075c-0.07735,0.65453 -0.24911,1.11115 -0.53557,1.42001c-0.23204,0.25018 -0.42141,0.64546 -0.42141,0.8775c0,1.04873 -0.38354,1.26424 -0.80389,0.45182c-0.45289,-0.8759 -2.41006,-0.56331 -2.41006,0.38514c0,0.07681 -0.12056,0.09335 -0.26832,0.03681c-0.1643,-0.06295 -0.26778,-0.33393 -0.26778,-0.70147c0,-0.38087 -0.13816,-0.72814 -0.37874,-0.95218c-0.27739,-0.25818 -0.41128,-0.66626 -0.49983,-1.51976c-0.09015,-0.8711 -0.22778,-1.28025 -0.5425,-1.61578c-0.33446,-0.35527 -0.44435,-0.7196 -0.52863,-1.747c-0.08268,-1.01673 -0.19257,-1.3848 -0.50623,-1.69846c-0.26138,-0.26138 -0.40754,-0.63372 -0.42035,-1.07007c-0.04267,-1.45415 -0.13283,-1.90543 -0.42355,-2.11774c-0.32059,-0.23418 -0.61665,-1.23757 -0.62412,-2.11187c-0.00213,-0.28806 -0.17123,-0.702 -0.37554,-0.91964c-0.25765,-0.27419 -0.42035,-0.78415 -0.53077,-1.66379c-0.10722,-0.8503 -0.29339,-1.44988 -0.56598,-1.81848c-0.37394,-0.5057 -0.40915,-0.75321 -0.43688,-3.07899c-0.06881,-5.7291 -0.05121,-10.52149 0.03841,-10.66712c0.05281,-0.08535 -0.00107,-0.84976 -0.12002,-1.69846c-0.16483,-1.17943 -0.16643,-1.62271 -0.00747,-1.87769c0.22991,-0.36754 0.28059,-1.27811 0.08268,-1.47655c-0.23845,-0.23791 -0.25018,-1.061 -0.0176,-1.20877M231.9778,193.96743c0,-0.09709 0.26085,-0.15203 0.58038,-0.12109c0.75908,0.07308 0.92444,0.96178 0.29552,1.59017c-0.3542,0.3542 -0.3654,0.41661 -0.11042,0.60278c0.335,0.24485 0.50676,1.16556 0.27312,1.46268c-0.22031,0.28005 -0.40701,3.34678 -0.19577,3.21608c0.09442,-0.05814 0.16483,0.55744 0.16697,1.45201c0.00213,1.00286 -0.04214,1.36293 -0.12536,1.01726c-0.10082,-0.42141 -0.11149,-0.38301 -0.05014,0.17817c0.19257,1.747 0.1579,4.12453 -0.06615,4.58915c-0.25338,0.52597 -0.31793,2.03346 -0.09228,2.17268c0.39794,0.24591 -0.16803,3.67111 -0.6844,4.13786c-0.26352,0.23845 -0.34887,0.54997 -0.34887,1.27598c0,1.00339 -0.38301,2.19829 -0.70467,2.19829c-0.10349,0 -0.1883,0.3414 -0.18884,0.75908c-0.0016,1.00819 -0.30352,2.05053 -0.65133,2.24523c-0.18724,0.10455 -0.32113,0.5409 -0.40008,1.30372c-0.06828,0.66039 -0.27685,1.40934 -0.49236,1.76727c-0.20911,0.34673 -0.41875,1.08394 -0.47582,1.67125c-0.07681,0.79642 -0.21177,1.16609 -0.55797,1.52776c-0.38194,0.39848 -0.45715,0.64492 -0.45715,1.50536c0,1.11595 -0.22031,1.71926 -0.62892,1.71926c-0.16483,0 -0.30139,0.26192 -0.37447,0.718c-0.1483,0.92925 -0.34247,1.0306 -0.68973,0.359c-0.24005,-0.46356 -0.38087,-0.54144 -0.98259,-0.54144c-0.6876,0 -0.81402,0.07575 -1.34746,0.80335c-0.35153,0.47956 -0.79749,-0.03894 -0.79749,-0.92658c0,-0.32486 -0.00213,-0.62945 -0.00427,-0.67586c-0.00213,-0.04694 -0.20324,-0.28432 -0.44649,-0.52757c-0.38621,-0.38621 -0.44222,-0.60065 -0.44222,-1.68832c0,-1.08287 -0.04588,-1.26104 -0.35153,-1.35759c-0.40915,-0.13016 -0.71747,-1.07114 -0.71854,-2.19509c-0.00107,-0.49183 -0.09068,-0.79855 -0.25285,-0.86097c-0.351,-0.13443 -0.59585,-0.86843 -0.70734,-2.11987c-0.06188,-0.6924 -0.19684,-1.14209 -0.38514,-1.27971c-0.1787,-0.13069 -0.359,-0.68013 -0.46942,-1.43228c-0.09922,-0.67106 -0.335,-1.51869 -0.52437,-1.88356c-0.18884,-0.36487 -0.41128,-1.15596 -0.49343,-1.7582c-0.08215,-0.60225 -0.23098,-1.14742 -0.33073,-1.21143c-0.77188,-0.49823 -0.79962,-0.8775 -0.73828,-10.15182c0.06561,-9.86696 -0.03894,-9.20977 1.41521,-8.91211c0.95218,0.19524 1.12075,0.55584 0.42461,0.90844c-0.40648,0.20591 -0.43208,1.11328 -0.05228,1.83822c0.16376,0.31153 0.16376,0.45449 0.00213,0.61612c-0.38994,0.38994 -0.29179,14.2262 0.10189,14.37183c0.45982,0.16963 0.57451,0.41501 0.57771,1.2381c0.0016,0.47582 0.09388,0.77455 0.25872,0.83803c0.58305,0.22351 0.6764,0.80869 0.20537,1.28025l-0.44542,0.44542h0.44915c0.24645,0 0.40221,0.07468 0.34567,0.1659c-0.05654,0.09175 -0.0208,0.21657 0.07895,0.27845c0.09975,0.06188 0.18137,0.45982 0.18137,0.88444c0,0.60065 0.07308,0.79109 0.3302,0.8583c0.39901,0.10455 0.56277,0.81242 0.56277,2.43513c0,1.0578 0.04321,1.20396 0.40168,1.36133c0.37074,0.1627 0.40541,0.30886 0.45235,1.88036l0.05068,1.70433l0.5297,0.19951c0.52223,0.19737 0.5297,0.21818 0.5297,1.54216c0,1.25624 0.0256,1.34639 0.40168,1.39974c0.25392,0.03574 0.40221,0.18083 0.40274,0.39368c0.0016,0.64119 1.23277,0.77615 1.81048,0.19844c0.12216,-0.12216 0.23791,-0.73401 0.25818,-1.36026c0.04481,-1.3896 0.23364,-1.94811 0.69987,-2.07026c0.31633,-0.08268 0.35527,-0.24538 0.35527,-1.49682c0,-1.34266 0.0192,-1.4088 0.43902,-1.51442c0.41288,-0.10349 0.44222,-0.1931 0.49129,-1.47655c0.04748,-1.26264 0.08215,-1.3704 0.45342,-1.42321c0.30086,-0.04267 0.40328,-0.17763 0.40754,-0.53557c0.02934,-2.31031 0.23685,-3.24649 0.72067,-3.24649c0.31313,0 0.34513,-0.13603 0.34513,-1.49149c0,-1.35919 0.04107,-1.5363 0.46409,-1.99292l0.46462,-0.50143l0.03041,-8.29386l0.03041,-8.29386l-0.38141,-0.14509c-0.6908,-0.26245 -0.6764,-0.88657 0.02027,-0.88657c0.57451,0 1.15702,-0.3718 1.15702,-0.73828M254.15273,194.99483c-0.26672,-0.26618 -0.25125,-0.28912 0.19524,-0.28912c0.49343,0 0.64386,0.23791 0.28912,0.45715c-0.10775,0.06668 -0.3254,-0.00907 -0.48436,-0.16803M261.84754,195.0119c-0.28912,-0.28912 -0.27205,-0.30619 0.30619,-0.30619c0.57824,0 0.59531,0.01707 0.30619,0.30619c-0.28912,0.28912 -0.32326,0.28912 -0.61238,0M264.48058,195.07378c-0.18404,-0.34407 -0.14883,-0.36807 0.53664,-0.36807c0.60225,0 0.72334,0.05601 0.67426,0.31259c-0.08962,0.47262 -0.96605,0.51317 -1.2109,0.05548M253.75692,273.19279c0.20537,-0.5393 0.71907,-0.61558 0.71907,-0.10722c0,0.1931 0.1803,0.44595 0.40168,0.56224c0.52703,0.27792 0.66359,0.50196 0.66679,1.09568c0.00213,0.40008 0.08268,0.49129 0.43635,0.49129c0.31153,0 0.45022,0.11095 0.49129,0.39421c0.03627,0.24965 0.22084,0.43262 0.50356,0.49823c0.31953,0.07415 0.46249,0.24111 0.5025,0.58731c0.04748,0.40381 0.14403,0.48436 0.58038,0.48436c0.44008,0 0.52383,0.07148 0.52383,0.44595c0,0.678 2.0596,0.6892 2.31671,0.0128c0.11042,-0.29019 0.32966,-0.45235 0.66519,-0.49076c0.39528,-0.04534 0.5121,-0.16056 0.55637,-0.54837c0.04481,-0.38567 0.1499,-0.49129 0.49129,-0.49129c0.34087,0 0.43422,-0.09335 0.43422,-0.43368c0,-0.31206 0.11149,-0.45022 0.39528,-0.49129c0.28539,-0.04107 0.42835,-0.22084 0.5153,-0.64652c0.14189,-0.69827 0.17443,-0.73828 0.68226,-0.83643c0.359,-0.06881 0.38674,-0.0128 0.3366,0.67533c-0.04481,0.61558 -0.12482,0.76068 -0.44489,0.80602c-0.23578,0.03361 -0.41288,0.20377 -0.44649,0.42835c-0.04588,0.30673 -0.27099,0.5233 -0.82789,0.79429c-0.03201,0.01547 -0.08002,0.17657 -0.10669,0.3574c-0.02614,0.18083 -0.14083,0.33873 -0.25392,0.351c-0.11362,0.01227 -0.327,0.03254 -0.47422,0.04481c-0.16056,0.01334 -0.26778,0.20057 -0.26778,0.46836c0,0.24591 -0.10029,0.44755 -0.22351,0.44915c-0.13816,0.0016 -0.15523,0.05281 -0.04428,0.13389c0.09815,0.07255 0.1867,0.23204 0.1963,0.35473c0.04161,0.52117 0.09282,0.59691 0.5073,0.75481c0.23951,0.09122 0.43902,0.30993 0.44222,0.48649c0.07468,3.78046 0.13816,4.34964 0.52277,4.7081c0.30459,0.28379 0.34887,0.43422 0.20697,0.7004c-0.34087,0.63639 -0.53664,0.57558 -0.53664,-0.16697c0,-0.686 -0.02827,-0.72441 -0.53557,-0.72441h-0.53557v-2.50021v-2.49968h-0.70787c-0.52543,0 -0.75748,-0.09228 -0.89937,-0.35687c-0.14083,-0.26352 -0.37394,-0.3574 -0.8871,-0.3574c-0.53877,0 -0.72121,0.08055 -0.80922,0.3574c-0.08855,0.27899 -0.26992,0.35687 -0.83056,0.35687h-0.71747l0.05228,2.45541l0.05228,2.45487h-0.43848h-0.43902l-0.03201,-2.42073l-0.03201,-2.42073l0.49076,-0.1851c0.48169,-0.1819 0.55637,-0.5409 0.39314,-1.8921c-0.00907,-0.07415 -0.21711,-0.13389 -0.46302,-0.13389c-0.35047,0 -0.44595,-0.09122 -0.44595,-0.42408c0,-0.3286 -0.12109,-0.44862 -0.53717,-0.53184c-0.29552,-0.05921 -0.52703,-0.16963 -0.51477,-0.24538c0.09869,-0.60492 -0.04588,-0.76281 -0.69827,-0.76281c-1.0594,0 -1.41414,-0.77668 -0.93298,-2.04199M221.60727,279.82447c0.11629,-0.30566 0.31686,-0.48329 0.54517,-0.48329c0.3462,0 0.36167,0.10882 0.36167,2.49968v2.50021h-0.42728c-0.23471,0 -0.46249,-0.10082 -0.50623,-0.22351c-0.16803,-0.47529 -0.14723,-3.83487 0.02667,-4.29309M228.22828,287.4654c0,-1.1949 0.03627,-1.33892 0.33766,-1.33892c0.55851,0 0.83109,1.97371 0.34033,2.46394c-0.51156,0.5121 -0.678,0.23578 -0.678,-1.12502M263.22487,287.80627c0,-0.55957 0.03841,-0.62039 0.26778,-0.42995c0.14723,0.12216 0.26778,0.40488 0.26778,0.62785c0,0.22298 -0.12056,0.45129 -0.26778,0.50783c-0.14723,0.05654 -0.26778,0.30352 -0.26778,0.54891c0,0.47582 -0.44115,0.81509 -1.0594,0.81509c-0.62305,0 -0.51583,-1.0322 0.12216,-1.17196c0.89404,-0.19577 0.93725,-0.23738 0.93725,-0.89777M221.47605,289.10251c-0.03894,-0.57238 -0.01334,-0.60172 0.45395,-0.51743c0.64599,0.11629 0.94151,0.36167 0.94151,0.78308c0,0.87163 -1.33626,0.61772 -1.39547,-0.26565M256.46784,289.20653c-0.03254,-0.48276 0.024,-0.58038 0.33553,-0.58038c0.62252,0 1.06474,0.3382 1.06474,0.81402c0,0.78308 -1.34693,0.55851 -1.40027,-0.23364M226.86428,289.07264c0.13656,-0.35634 1.16289,-0.35473 1.29998,0.00213c0.14616,0.38034 -0.25765,0.80122 -0.76708,0.80122c-0.45929,0 -0.70147,-0.36487 -0.5329,-0.80335" fill="#b5b5b5"/><path d="M215.14897,120.19272c0.50356,-0.13176 3.37398,-0.10989 3.08006,0.02294c-0.81616,0.36967 -0.31259,0.89884 0.96925,1.01833c2.32578,0.21711 13.18973,-0.04161 13.02384,-0.30993c-0.04801,-0.07735 -0.02187,-0.14136 0.05761,-0.14243c0.07948,-0.00107 1.10848,-0.08748 2.28684,-0.19204c4.08292,-0.36274 4.91028,-0.04641 4.91028,1.87663c0,0.70574 -0.06348,0.84123 -0.5041,1.06847c-0.27685,0.14349 -0.60065,0.37767 -0.71907,0.5201c-0.12429,0.1499 -0.72174,0.31313 -1.41521,0.38674c-0.66039,0.06988 -1.28505,0.1963 -1.38907,0.28112c-0.31366,0.25658 -20.65517,0.25338 -21.13473,-0.0032c-0.23044,-0.12322 -0.85723,-0.19044 -1.45895,-0.1563c-1.23597,0.06988 -1.33999,-0.12056 -0.5105,-0.93138c0.29979,-0.29286 0.49343,-0.61505 0.43102,-0.71587c-0.17017,-0.27579 0.23258,-0.66626 0.81989,-0.79535c0.28646,-0.06295 0.67426,-0.32913 0.86097,-0.59158c0.35047,-0.49236 0.37927,-0.56811 0.37927,-1.00019c0,-0.13976 0.14029,-0.29126 0.31259,-0.33606M246.38217,120.54479c1.66219,-0.20324 6.00062,0.05974 6.2332,0.37821c0.3478,0.47529 13.77545,0.47049 14.25074,-0.00533c0.38407,-0.38407 0.1803,-0.36007 3.41186,-0.40328c3.6231,-0.04854 4.0013,0.12376 4.01197,1.82542c0.0048,0.78842 -0.05601,0.96285 -0.39634,1.13835c-0.22084,0.11362 -0.57131,0.36114 -0.77882,0.54997c-0.41128,0.37341 -2.14388,0.6876 -4.26535,0.77295c-3.3089,0.13283 -19.22716,0.08535 -19.50561,-0.05868c-0.17283,-0.08908 -0.8423,-0.20271 -1.48829,-0.25178c-0.90844,-0.06935 -1.27811,-0.18564 -1.63445,-0.51477c-0.25338,-0.23364 -0.58891,-0.5281 -0.74521,-0.65506c-0.77775,-0.62839 -0.11736,-2.65064 0.90631,-2.776M238.86552,123.06154c0.05654,-0.05654 0.07521,-0.33073 0.04161,-0.60972l-0.06081,-0.50783l-0.11522,0.5361c-0.11522,0.53504 -0.05974,0.77562 0.13443,0.58145M217.69345,189.58046c0.49503,-0.25071 13.48846,-0.3398 13.856,-0.09495c1.00659,0.67266 1.02313,3.37772 0.024,3.92129c-1.08448,0.58945 -13.68583,0.44382 -14.12965,-0.16323c-0.43688,-0.59852 -0.24538,-3.41239 0.24965,-3.6631M253.08319,189.49831c0.45235,-0.29392 14.06084,-0.09549 14.25234,0.20804c0.29552,0.46782 0.21657,3.49294 -0.09815,3.75379c-0.21017,0.17443 -1.84249,0.22778 -7.05362,0.23098l-6.78104,0.00427l-0.42728,-0.40168c-0.75961,-0.71374 -0.68653,-3.27956 0.10775,-3.7954M221.02529,190.09736c0.46782,-0.17017 0.43742,-0.18457 -0.38567,-0.18617c-0.74734,-0.00213 -0.83003,0.02827 -0.5073,0.18457c0.26672,0.12909 0.5425,0.12962 0.89297,0.0016M231.26353,190.24192c0,-0.28485 -0.11736,-0.3558 -0.58038,-0.351l-0.58038,0.00587l0.42141,0.351c0.53557,0.44595 0.73934,0.44435 0.73934,-0.00587M254.11859,190.15283l0.44649,-0.25552l-0.58038,-0.0064c-0.39954,-0.00427 -0.58038,0.07735 -0.58038,0.26192c0,0.3286 0.13923,0.3286 0.71427,0M264.83211,190.06322c0.19257,-0.12429 0.01654,-0.17283 -0.62519,-0.17283c-0.64119,0 -0.81722,0.04854 -0.62465,0.17283c0.14723,0.09549 0.42835,0.17337 0.62465,0.17337c0.1963,0 0.47796,-0.07788 0.62519,-0.17337M266.1449,190.1571c0.08055,-0.21071 -0.0256,-0.26939 -0.47049,-0.25818c-0.31579,0.00747 -0.45395,0.05868 -0.30673,0.11309c0.14723,0.05441 0.359,0.1707 0.46996,0.25818c0.12909,0.10135 0.24058,0.06028 0.30726,-0.11309M231.26353,192.65251c0,-0.33126 -0.02667,-0.33126 -0.45715,-0.00587c-0.33766,0.25552 -0.3366,0.26245 0.05548,0.26778c0.24058,0.00373 0.40168,-0.10189 0.40168,-0.26192M253.93989,192.7416c-0.3462,-0.22351 -0.53557,-0.22351 -0.53557,0c0,0.09815 0.18083,0.17763 0.40168,0.17603c0.32486,-0.00213 0.35047,-0.03574 0.13389,-0.17603M224.29952,238.15192c1.08234,-0.55851 2.08573,-0.12322 1.87983,0.81509c-0.13229,0.60118 -0.61879,0.91324 -1.42267,0.91324c-0.86843,0 -1.2205,-1.33412 -0.45715,-1.72833M258.89497,238.10925c0.93351,-0.5441 2.00892,-0.12162 2.00892,0.78895c0,0.91644 -1.00019,1.31972 -1.97585,0.79749c-0.45555,-0.24378 -0.47796,-1.32719 -0.03307,-1.58644M224.11869,270.73045c0.34407,-0.06348 2.34765,-0.00053 3.46627,0.10989c1.11381,0.10935 1.35386,0.3622 1.47602,1.5539c0.13336,1.29892 -0.16857,2.36739 -0.74254,2.62877c-0.24645,0.11202 -0.44755,0.32326 -0.44755,0.46942c0,0.14563 -0.1643,0.35313 -0.3654,0.46089c-0.20111,0.10775 -0.44062,0.39154 -0.5313,0.63105c-0.10295,0.26992 -0.30779,0.43582 -0.53877,0.43582c-0.20537,0 -0.53984,0.08908 -0.74308,0.1979c-0.45769,0.24485 -2.39726,-0.12162 -2.70665,-0.51156c-0.11202,-0.14083 -0.38461,-0.45289 -0.60545,-0.69347c-0.22084,-0.24058 -0.40114,-0.4945 -0.40008,-0.56331c0.00107,-0.06935 -0.25445,-0.3366 -0.56704,-0.59371c-0.63586,-0.52223 -0.88284,-1.93851 -0.55691,-3.19261l0.16216,-0.62519l1.41734,-0.12909c0.77988,-0.07148 1.53683,-0.1515 1.68299,-0.1787M256.88872,270.89048c1.70646,-0.20377 6.37189,0.0176 6.67115,0.31686c0.46729,0.46782 0.41555,3.25503 -0.06721,3.58789c-0.1963,0.13549 -0.43742,0.33606 -0.53557,0.44595c-0.09815,0.10935 -0.38727,0.41395 -0.64279,0.6764c-0.25498,0.26298 -0.50783,0.60332 -0.56171,0.75695c-0.33126,0.94525 -3.48067,0.76335 -4.05091,-0.23364c-0.15363,-0.26939 -0.38781,-0.49023 -0.51957,-0.49076c-0.13229,-0.00107 -0.28272,-0.16537 -0.33553,-0.3654c-0.05228,-0.20057 -0.32006,-0.48063 -0.59478,-0.62305c-0.57078,-0.29499 -0.84496,-1.58377 -0.61985,-2.91416c0.14723,-0.87377 0.335,-1.0466 1.25677,-1.15702M228.60435,271.88854c-0.22991,-0.55477 -0.18083,-0.55051 -5.05324,-0.44329c-2.53969,0.05601 -2.43994,-0.0032 -2.50555,1.49469c-0.03147,0.73401 0.03681,0.87483 0.81722,1.68192c0.46836,0.48436 0.98312,1.09941 1.14422,1.36666c0.343,0.56918 1.0562,0.85776 2.07827,0.84069c2.05373,-0.03521 4.26535,-3.14034 3.51908,-4.94068M258.77655,271.49326c-0.19204,-0.10295 -0.45502,-0.1723 -0.58411,-0.1547c-0.12909,0.0176 -0.61612,0.06241 -1.08181,0.09869c-1.69206,0.13389 -1.7326,2.05373 -0.07788,3.66897c0.55797,0.54464 1.01406,1.06474 1.01406,1.15542c0,0.71054 3.24329,0.77348 3.4796,0.06775c0.05388,-0.16056 0.5409,-0.77135 1.08341,-1.35813c2.23136,-2.41486 0.99326,-4.172 -2.46074,-3.49294c-0.71854,0.14136 -1.12768,0.14616 -1.37253,0.01494M224.21044,279.42439c0.31046,-0.13176 2.49168,0.10615 2.67838,0.29286c0.09815,0.09815 0.1899,1.11808 0.20377,2.2671c0.03147,2.62344 0.02134,2.53435 0.28752,2.53755c0.38727,0.0048 0.63692,0.25285 0.76388,0.75801c0.11202,0.44702 0.08215,0.48543 -0.35687,0.44915c-0.82309,-0.06828 -1.18209,-1.15862 -1.0546,-3.20062c0.14349,-2.30018 0.01814,-2.56583 -1.28345,-2.71892c-1.64085,-0.1931 -1.77421,-0.02507 -1.77421,2.23616c0,1.65578 -0.04374,1.9129 -0.40168,2.36846c-0.46409,0.58945 -0.60225,3.40439 -0.18777,3.8194c0.23951,0.23951 3.12647,0.29872 3.48387,0.07095c0.11896,-0.07521 0.33286,-0.41555 0.47582,-0.75588c0.14243,-0.34033 0.47582,-0.81936 0.74094,-1.06527l0.48223,-0.44595l-0.12962,0.98206c-0.15363,1.15969 -0.19524,1.24771 -0.59051,1.25517c-0.16643,0.0032 -0.45822,0.12376 -0.64866,0.26778c-0.24965,0.18884 -0.83323,0.26245 -2.0852,0.26245c-1.94064,0 -2.30018,-0.16963 -2.30018,-1.08394c0,-0.60705 -0.56811,-0.74308 -0.87857,-0.21071c-0.13389,0.23044 -0.1803,-0.06241 -0.17603,-1.11595c0.00427,-0.98632 0.05388,-1.30958 0.16056,-1.045c0.20057,0.4961 0.40328,0.61292 0.72227,0.41608c0.20964,-0.12962 0.24911,-0.68547 0.21177,-3.01605l-0.04534,-2.85708l0.76175,-0.19577c0.41875,-0.10775 0.84176,-0.22991 0.93991,-0.27205M258.76108,279.46013c0.8727,-0.13709 1.41254,-0.11629 2.30764,0.09015l0.90631,0.20964v2.27564c0,2.32898 0.07361,2.84108 0.40701,2.84108c0.92871,0 1.25944,2.52849 0.37447,2.86508c-0.25765,0.09815 -0.62519,0.37714 -0.81669,0.62039c-0.73881,0.93991 -4.27229,0.58091 -4.65103,-0.47262c-0.07201,-0.20057 -0.15683,-0.20484 -0.46836,-0.0208c-0.37661,0.22244 -0.38034,0.20911 -0.38034,-1.38693c0,-1.60884 0.00053,-1.61204 0.43262,-1.53363c0.59531,0.10775 0.63852,-0.08375 0.63852,-2.85015c0,-2.65278 -0.10829,-2.42393 1.24984,-2.63784M260.7908,279.89861c-0.50996,-0.23204 -1.10048,-0.22991 -2.16362,0.008c-0.8455,0.18937 -1.07381,1.0482 -0.49716,1.87129c0.14349,0.20537 0.20804,0.42675 0.14243,0.49236c-0.43848,0.43848 -0.7148,5.48425 -0.32166,5.8774c0.40754,0.40754 3.33024,0.43795 3.66204,0.03787c0.26405,-0.31739 0.26832,-3.17501 0.00533,-3.66577c-0.09815,-0.1835 -0.17977,-1.08234 -0.18137,-1.99718c-0.00267,-2.03452 -0.08482,-2.36846 -0.64599,-2.62397" fill="#646464"/></g></g></svg>