<svg version="1.1" xmlns="http://www.w3.org/2000/svg" xmlns:xlink="http://www.w3.org/1999/xlink" width="112.69237" height="230.52465" viewBox="0,0,112.69237,230.52465"><g transform="translate(-195.20491,-81.39489)"><g data-paper-data="{&quot;isPaintingLayer&quot;:true}" fill-rule="nonzero" stroke="none" stroke-width="1" stroke-linecap="butt" stroke-linejoin="miter" stroke-miterlimit="10" stroke-dasharray="" stroke-dashoffset="0" style="mix-blend-mode: normal"><path d="M276.04905,267.40979l0.51238,23.77269h-12.30689l-2.19455,-21.09476c1.91419,2.72627 13.98905,-2.67793 13.98905,-2.67793z" fill="#785540"/><path d="M252.89509,271.56688l-2.57159,19.83797h-12.0652v-21.49113c4.49545,0.29003 14.63678,1.65316 14.63678,1.65316z" fill="#785540"/><path d="M295.27796,97.72365c27.87176,24.50743 0,108.14205 0,108.14205h-85.07509c-20.70805,-43.26262 -13.94071,-85.07509 -13.94071,-85.07509c9.13591,-33.15995 36.05057,-29.79562 36.05057,-29.79562c30.76238,-25.00048 62.96524,6.72867 62.96524,6.72867z" fill="#3f200f"/><path d="M258.93736,111.00697c22.9316,-3.02597 32.35754,8.26582 32.35754,8.26582c0.40604,3.06464 0.76374,6.52565 1.0441,9.56128c0.71868,7.56603 0.18959,15.19873 -1.56616,22.59324c-0.22236,0.90876 -0.3577,1.44048 -0.3577,1.44048c-2.58126,12.70326 -15.66155,17.84643 -15.66155,17.84643c-11.08945,4.33999 -23.3443,4.68183 -34.65843,0.96676c-15.57454,-4.86282 -21.73282,-22.06152 -21.73282,-22.06152c-10.05433,-1.65316 -7.7341,-8.51718 -7.7341,-8.51718c1.16978,-7.69543 11.22411,-3.6737 11.22411,-3.6737c-1.09244,-1.57582 -0.89909,-3.95406 -0.22236,-6.31296c1.22672,-4.0846 3.6312,-7.71654 6.91235,-10.44103c11.77517,-10.04466 9.21325,-15.84524 9.21325,-15.84524c5.80057,6.99936 21.18176,6.17761 21.18176,6.17761z" fill="#785540"/><path d="M260.95789,173.98188v2.32023c-0.00964,0.81644 0.55578,1.52725 1.35347,1.7015l2.43624,0.42538c-0.87009,4.42777 -9.25192,4.70813 -9.25192,4.70813c-8.25615,0.12568 -10.25735,-4.25375 -10.25735,-4.25375l1.85618,-0.46405c0.76248,-0.19095 1.29681,-0.87681 1.29546,-1.66283v-3.03563c4.16684,0.5505 8.38181,0.63804 12.56791,0.26103z" fill="#664736"/><path d="M278.14693,199.52374c1.96253,-0.67673 6.20661,-4.40844 7.94679,-5.98426c0.21202,-0.22922 0.51623,-0.35041 0.82779,-0.32976c0.31156,0.02065 0.59712,0.18091 0.77704,0.4361c4.36977,5.17218 6.72867,16.06759 6.87368,16.77333c-0.00123,0.02254 -0.00123,0.04513 0,0.06767c0.67673,2.28156 3.41267,15.20717 3.86705,17.35339c0.03242,0.20761 0.13887,0.39648 0.2997,0.53172c6.20661,4.80481 8.29482,8.99089 8.87488,10.47004c0.14465,0.35801 0.23271,0.73635 0.26103,1.12144c0.26103,3.47068 -1.84652,-0.10634 -1.84652,-0.10634c-2.53292,-3.55769 -2.53292,-2.22355 -2.53292,-2.22355l1.74984,3.29666c0,0.029 0,0.10634 0,0.10634c1.65316,4.0024 -0.44471,3.16131 -0.44471,3.16131c-0.30936,-0.14501 -0.44471,-0.6284 -0.44471,-0.75407c-1.35347,-3.38367 -3.36433,-4.07007 -3.36433,-4.07007c-0.42538,0.03867 1.86585,4.23442 1.86585,4.23442c0.08701,0.20302 0.16435,0.40604 0.22236,0.58973c0.19488,0.50723 -0.05832,1.07641 -0.56556,1.27129c-0.50723,0.19488 -1.07641,-0.05832 -1.27129,-0.56556c-0.18368,-0.49305 -0.16435,-0.47371 -0.37704,-1.07311c-0.10634,-0.2997 -0.21269,-0.47371 -0.21269,-0.56072c-1.7305,-3.403 -2.24289,-2.82295 -2.36857,-2.7166c-0.33837,0.2997 0.76374,2.62959 0.76374,2.62959c0.37422,0.86893 0.45566,1.836 0.23202,2.75527c-0.22236,0.66707 -1.20845,1.03444 -1.62416,0.46405c-0.88868,-1.44984 -1.575,-3.01437 -2.03987,-4.65013c-1.0441,-3.15165 -1.45014,-3.93472 -2.97763,-4.23442c-0.85907,-0.11076 -1.6938,0.33573 -2.07854,1.11178c-0.18368,0.41571 -0.39637,0.83142 -0.59939,1.19879c-0.17907,0.34745 -0.53721,0.56578 -0.92809,0.56578c-0.39088,0 -0.74902,-0.21833 -0.92809,-0.56578c-1.16011,-2.54259 0.61873,-7.0477 1.03444,-8.01446c0.05744,-0.13106 0.08707,-0.27261 0.08701,-0.41571c-0.07734,-5.21085 -2.62959,-14.27908 -2.78428,-14.82047c0,-0.05801 0,-0.05801 0,-0.05801c-1.80221,-5.18975 -4.71929,-9.92176 -8.54618,-13.86337c-0.19225,-0.21254 -0.30201,-0.48692 -0.30936,-0.77341l-0.14501,-1.22779c-0.05964,-0.496 0.23401,-0.96665 0.70574,-1.13111z" fill="#785540"/><path d="M233.4245,204.8506l-0.14501,1.25679c-0.00985,0.28598 -0.11927,0.55953 -0.30936,0.77341c-3.83337,3.93834 -6.75423,8.67113 -8.55585,13.86337c-0.15468,0.55105 -2.7166,9.66762 -2.78428,14.83014c-0.0034,0.14244 0.02294,0.28402 0.07734,0.41571c0.41571,0.96676 2.19455,5.46221 1.03444,8.01446c-0.17907,0.34745 -0.53721,0.56578 -0.92809,0.56578c-0.39088,0 -0.74902,-0.21833 -0.92809,-0.56578c-0.19335,-0.3577 -0.40604,-0.77341 -0.59939,-1.19879c-0.38205,-0.7729 -1.21429,-1.21625 -2.06887,-1.10211c-1.52748,0.29003 -1.93352,1.08277 -2.97763,4.22475c-0.46769,1.63474 -1.15384,3.1989 -2.03987,4.65013c-0.41571,0.58006 -1.41147,0.21269 -1.63383,-0.46405c-0.21918,-0.92042 -0.13439,-1.88707 0.24169,-2.75527l0.76374,-2.61993c0,0 -0.63806,-0.6864 -2.36857,2.7166c0,0.07734 -0.26103,0.57039 -0.28036,0.6574c-0.06761,0.33256 -0.17135,0.65673 -0.30936,0.96676c-0.19488,0.50723 -0.76406,0.76044 -1.27129,0.56556c-0.50723,-0.19488 -0.76044,-0.76406 -0.56556,-1.27129c0.06176,-0.20417 0.13602,-0.40434 0.22236,-0.59939c0,0 1.35347,-4.0604 1.85618,-4.23442c-1.83538,1.07148 -3.19648,2.79875 -3.80904,4.83381c0,0 -2.09787,0.84108 -0.44471,-3.16131v-0.09668l1.78851,-3.23865c0,0 0,-1.32446 -2.53292,2.23322c0,0 -2.10754,3.57702 -1.83685,0.10634c0.0307,-0.3869 0.1153,-0.76762 0.25136,-1.13111c0.58973,-1.47915 2.66826,-5.65556 8.88455,-10.46037c0.1547,-0.14023 0.25984,-0.32677 0.2997,-0.53172c0.45438,-2.15588 3.18065,-15.08149 3.86705,-17.40172c0.00317,-0.02245 0.00317,-0.04523 0,-0.06767c0.15468,-0.70574 2.51358,-11.60115 6.87368,-16.77333c0.18202,-0.22019 0.44632,-0.35617 0.73129,-0.37627c0.28498,-0.02009 0.56574,0.07746 0.77686,0.26992c1.7305,1.57582 5.97459,5.30753 7.93712,5.99393c0.49722,0.13005 0.82809,0.59981 0.78308,1.11178z" fill="#785540"/><path d="M253.04011,270.23274l-0.56072,4.34076l-14.22108,-0.79275v-3.86705c4.49545,0 14.7818,0.31903 14.7818,0.31903z" fill="#664736"/><path d="M254.86729,183.13712c6.05193,0 9.91898,-4.70813 9.91898,-4.70813c4.92082,-1.14078 25.65788,10.56671 25.65788,10.56671c1.3728,3.316 -9.94799,14.91714 -9.94799,14.91714l11.38846,55.43416c0.45039,2.15471 -0.68825,4.32663 -2.7166,5.18185c-30.11465,12.47124 -54.47706,5.18185 -62.92657,1.83685c-2.1856,-0.8682 -3.56073,-3.0481 -3.403,-5.39453c0.88942,-13.68936 9.59028,-56.78763 9.59028,-56.78763c-2.20422,0.83142 -9.38726,-7.45374 -9.38726,-7.45374c4.42777,-14.36609 22.23554,-17.84643 22.23554,-17.84643c3.05497,2.97763 5.09484,4.25375 9.59028,4.25375z" fill="#f0a9cb"/><path d="M271.4956,179.79212c-2.0302,2.07854 -8.13047,7.49241 -16.75399,7.49241c-7.31839,0 -10.95342,-1.93352 -15.70022,-6.35163c2.03658,-0.87405 4.14999,-1.55695 6.31296,-2.03987c3.05497,2.96796 5.09484,4.24409 9.58062,4.24409c6.0616,0 9.92865,-4.70813 9.92865,-4.70813c1.3148,-0.2997 3.76071,0.2997 6.63199,1.36314z" fill="#f1bcd7"/><path d="M289.17769,264.52885c-30.10498,12.43256 -54.4674,5.19151 -62.92657,1.83685c-2.1856,-0.8682 -3.56073,-3.0481 -3.403,-5.39453c0.05801,-0.87975 0.14501,-1.87552 0.26103,-2.97763c0.49473,1.53078 1.64684,2.76088 3.14198,3.35467c8.45917,3.35467 32.82158,10.63439 62.92657,-1.83685c1.00495,-0.42142 1.82498,-1.18998 2.31056,-2.16555l0.40604,1.93352c0.48648,2.17698 -0.65843,4.38939 -2.7166,5.24952z" fill="#f1bcd7"/><path d="M233.55018,199.68809c0,0 -0.44471,2.01087 -1.15045,5.31719c-3.21932,-1.0441 -9.55161,-8.02413 -9.55161,-8.02413c0.42125,-1.28971 0.97189,-2.5335 1.6435,-3.71237c2.49425,2.55225 7.23138,7.03803 9.05856,6.4193z" fill="#f1bcd7"/><path d="M280.56383,204.25121l-1.05377,-4.39877c0,0 6.44831,-6.62232 9.44527,-11.60115l1.47915,0.74441c1.3728,2.89062 -7.00903,12.21021 -9.87064,15.25551z" fill="#f1bcd7"/><path d="M218.69104,149.21342c0,0 6.61266,16.20294 22.17753,20.64038c9.78887,2.80842 20.14389,2.99512 30.02764,0.54139c3.63286,-0.88892 7.06857,-2.44613 10.13167,-4.59212c2.32714,-1.60962 4.46443,-3.47772 6.37096,-5.56855c-2.99982,4.36385 -7.08933,7.86677 -11.86218,10.16067c-11.34269,4.32228 -23.79596,4.77433 -35.42218,1.28579c-15.57454,-4.86282 -21.73282,-22.06152 -21.73282,-22.06152c-9.54195,-1.63383 -8.16914,-7.45374 -7.39573,-9.95765c0.21269,-0.66707 -2.16555,8.52684 7.7051,9.55161z" fill="#664736"/><path d="M221.52365,137.23523c-0.96676,-1.57582 -0.75407,-3.86705 -0.10634,-6.11961c1.22672,-4.0846 3.6312,-7.71654 6.91235,-10.44103c11.77517,-10.04466 9.20358,-15.84524 9.20358,-15.84524c5.80057,6.99936 21.2011,6.17761 21.2011,6.17761c22.92194,-3.02597 32.35754,8.26582 32.35754,8.26582c0,0.30936 0.08701,0.6284 0.12568,0.96676c-3.19032,-2.59092 -12.85794,-8.67186 -31.16842,-6.46764c0,0 -15.41019,0.74441 -21.18176,-5.63622c0,0 2.56192,5.27852 -9.22291,14.44343c-3.2125,2.39747 -5.61991,5.71524 -6.90268,9.51294c-0.67673,2.15588 -0.87009,4.31176 0.21269,5.80057c-0.08701,-0.07734 -0.66707,-0.33837 -1.43081,-0.6574z" fill="#664736"/><path d="M240.11449,126.93922c-1.64547,-0.16161 -3.30646,-0.04063 -4.91115,0.3577c-1.07268,0.27359 -2.0833,0.74937 -2.97763,1.40181c-1.91419,1.36314 -2.93896,1.74017 -3.47068,1.74017c-0.16169,0.005 -0.31714,-0.06256 -0.42379,-0.18418c-0.10665,-0.12162 -0.15334,-0.28457 -0.12726,-0.44422c0.39637,-2.31056 5.58789,-4.56312 5.58789,-4.56312c6.58365,-2.7166 9.11657,-0.84108 9.93832,0.18368c0.1605,0.22033 0.22053,0.49817 0.1653,0.76511c-0.05523,0.26693 -0.22058,0.49815 -0.45533,0.6367c-1.11178,0.53172 -3.32566,0.10634 -3.32566,0.10634z" fill="#3f200f"/><path d="M270.05513,125.38273c-0.23319,-0.14019 -0.39652,-0.37216 -0.44988,-0.63896c-0.05336,-0.26681 0.00818,-0.54375 0.16952,-0.76284c0.81208,-1.02477 3.35467,-2.90029 9.92865,-0.18368c0,0 5.19151,2.26222 5.58789,4.57279c0.02997,0.1577 -0.01428,0.32042 -0.11999,0.44123c-0.10571,0.12081 -0.26111,0.18627 -0.4214,0.1775c-0.53172,0 -1.55649,-0.37704 -3.48034,-1.74017c-0.89425,-0.64829 -1.90531,-1.11771 -2.97763,-1.38247c-1.60323,-0.40714 -3.2652,-0.53146 -4.91115,-0.36737c0,0 -2.20422,0.45438 -3.32566,-0.11601z" fill="#3f200f"/><path d="M245.56703,154.3566c6.54818,3.42271 14.3274,3.55529 20.98841,0.3577c0,0 2.67793,-0.85075 0.69607,1.45014c0,0 -11.64949,5.94559 -22.15819,-0.11601c0,0 -1.77884,-2.01087 0.47371,-1.69183z" fill="#d61b5c"/><path d="M238.25831,291.36617h12.04586l-1.38247,14.40476h-10.66339z" fill="#ede3de"/><path d="M276.56144,305.55824h-10.85674l-1.40181,-14.40476h12.25855z" fill="#ede3de"/><path d="M260.77421,141.39231c0.07689,1.56355 -0.99201,2.9519 -2.52325,3.27732c-3.54802,1.12144 -4.20542,-1.40181 -4.20542,-1.40181c5.52021,1.21812 6.72867,-1.87552 6.72867,-1.87552z" fill="#66412a"/><path d="M230.75623,134.30595c2.3299,-1.93352 8.89421,-5.90692 16.53164,1.28579c0.26126,0.23985 0.40997,0.57826 0.40997,0.93293c0,0.35466 -0.14871,0.69307 -0.40997,0.93293c-2.54259,2.29123 -9.81264,7.41507 -16.72499,-1.3728c-0.43167,-0.54639 -0.34563,-1.33796 0.19335,-1.77884z" fill="#f3eef5"/><path d="M243.45949,134.4703c0.74421,1.20727 0.78114,2.72161 0.09668,3.96373c-0.9893,1.51398 -2.65853,2.44615 -4.46644,2.49425c-5.48154,0.12568 -5.48154,-4.48578 -5.48154,-4.48578c-0.05801,-4.83381 5.48154,-4.83381 5.48154,-4.83381c1.83232,0.19481 3.45877,1.25992 4.36977,2.86162z" fill="#3f200f"/><path d="M238.92537,134.56697c0.1727,0.29912 0.1727,0.66765 0,0.96676c-0.2414,0.37692 -0.65462,0.6089 -1.10211,0.61873c-1.35347,0.029 -1.35347,-1.10211 -1.35347,-1.10211c-0.00967,-1.17945 1.35347,-1.17945 1.35347,-1.17945c0.46057,0.0334 0.87405,0.29454 1.10211,0.69607z" fill="#f3eef5"/><path d="M236.20877,131.14462c1.85338,-0.38569 3.7698,-0.34934 5.60722,0.10634c5.18185,1.38247 5.87792,4.99816 5.87792,4.99816l-1.24712,-1.36314c-8.29482,-6.97036 -16.1546,0.28036 -16.1546,0.28036c0.50272,-2.47491 3.59636,-3.55769 5.91659,-4.02173z" fill="#3f200f"/><path d="M267.63822,134.2286c1.63383,-2.12688 6.3903,-6.76734 13.438,-0.42538c0.50843,0.48506 0.60541,1.26089 0.23202,1.85618c-1.74984,2.53292 -5.72323,7.52141 -13.93105,1.0441c-0.51238,-0.39637 -0.11601,-1.98186 0.26103,-2.47491z" fill="#f3eef5"/><path d="M277.6867,132.77655c0.86518,1.209 1.14724,2.74041 0.76959,4.17832c-0.45244,1.52929 -1.72749,2.67347 -3.29666,2.95829c-4.4181,0.7154 -4.96916,-3.86705 -4.96916,-3.86705c-0.2617,-1.21791 -0.00058,-2.48976 0.71982,-3.50603c0.7204,-1.01628 1.83403,-1.68381 3.06989,-1.84016c1.48286,0.10652 2.84134,0.86762 3.70652,2.07663z" fill="#3f200f"/><path d="M274.1832,133.63888c0.18838,0.28516 0.24144,0.63888 0.14501,0.96676c-0.14603,0.48023 -0.6131,0.7886 -1.11208,0.7342c-0.49898,-0.05439 -0.88865,-0.45615 -0.92778,-0.95656c-0.06162,-0.3046 0.00821,-0.62105 0.19231,-0.87142c0.1841,-0.25037 0.46534,-0.41138 0.77445,-0.44337c0.3839,0.02732 0.73032,0.24022 0.92809,0.57039z" fill="#f3eef5"/><path d="M271.60194,130.53557c1.43466,-0.57596 3.0016,-0.74002 4.52445,-0.47371c2.44834,0.36447 4.50234,2.03659 5.35586,4.3601l-1.18912,-1.22779c-7.53108,-6.0616 -13.1673,2.55225 -13.1673,2.55225c0.09668,-2.52325 2.67793,-4.51478 4.47611,-5.21085z" fill="#3f200f"/><path d="M237.75559,300.75343c0,0 7.17338,-2.90029 12.18121,0.55105c0,0 0.58973,1.08277 -1.14078,0.73474c-2.92964,-1.56061 -6.38435,-1.80311 -9.50327,-0.66707c0,0 -1.63383,0.83142 -1.53715,-0.61873z" fill="#d61b5c"/><path d="M264.27389,301.17881c0,0 7.31839,-3.22899 12.82894,-0.56072c0,0 0.69607,0.96676 -1.14078,0.77341c-3.25214,-1.1813 -6.82876,-1.10198 -10.02533,0.22236c0,0 -1.6435,0.89909 -1.66283,-0.43504z" fill="#d61b5c"/><path d="M243.27581,304.61082c2.33504,0.00116 4.47568,-1.30038 5.54922,-3.374c3.24832,2.57159 3.50935,9.33893 3.50935,9.33893h-18.08813c-0.02648,-3.52602 1.4884,-6.88772 4.14741,-9.20358c0.86042,2.94863 2.92929,3.23865 4.88215,3.23865z" fill="#d61b5c"/><path d="M252.25703,310.04402c1.72084,0.95709 0,1.87552 0,1.87552h-18.13646c-0.35182,-0.18033 -0.5731,-0.54242 -0.5731,-0.93776c0,-0.39534 0.22128,-0.75743 0.5731,-0.93776z" fill="#ba1f5a"/><path d="M281.2019,310.04402c1.60483,0.95709 0,1.87552 0,1.87552h-16.80233c-0.33,-0.1972 -0.53205,-0.55333 -0.53205,-0.93776c0,-0.38443 0.20206,-0.74056 0.53205,-0.93776z" fill="#ba1f5a"/><path d="M276.61944,304.4658c7.24105,1.33413 4.83381,5.60722 4.83381,5.60722h-17.05369c-1.00636,-2.89767 -0.65113,-6.09477 0.96676,-8.70086c3.32566,7.03803 11.24345,3.06464 11.25311,3.09364z" fill="#d61b5c"/></g></g></svg>