<svg version="1.1" xmlns="http://www.w3.org/2000/svg" xmlns:xlink="http://www.w3.org/1999/xlink" width="96.5749" height="215.50087" viewBox="0,0,96.5749,215.50087"><g transform="translate(-191.42509,-83.5)"><g data-paper-data="{&quot;isPaintingLayer&quot;:true}" fill-rule="nonzero" stroke-linejoin="miter" stroke-miterlimit="10" stroke-dasharray="" stroke-dashoffset="0" style="mix-blend-mode: normal"><path d="M240.75,167.5c10.264,0.056 20.472,3.349 30.25,7c3.144,1.174 6.427,3.945 7,7.25c1.995,11.53 0.01,23.513 0.25,35.25c0.092,5.036 3.463,11.037 0.75,15.5c-2.173,3.353 -7.933,3.115 -12,2.5c-2.439,-0.382 -4.392,-3.158 -5,-5.5c-0.856,-3.32 1.115,-6.788 1,-10.25c-0.29,-8.838 -1.47,-26.352 -1.75,-26.5c-0.283,-0.149 2.467,17.531 -1.95,24.3c-3.777,5.788 -11.691,7.95 -19.175,7.95c-7.484,0 -15.286,-2.236 -19.175,-7.95c-4.36,-6.408 -1.905,-23.624 -2.2,-23.55c-0.3,0.137 -1.178,16.333 -1.5,24.5c-0.16,3.886 1.246,7.641 0.25,11.25c-0.684,2.459 -2.096,5.472 -4.5,5.75c-4.329,0.501 -9.918,-0.125 -12,-3.75c-2.559,-4.344 0.979,-9.868 1.25,-14.75c0.4,-11.69 -1.1,-23.582 0.75,-35c0.497,-3.041 2.86,-6.184 5.75,-7.25c10.099,-3.723 21.036,-6.779 32,-6.75z" fill="#f6ceb6" stroke="#e1ad96" stroke-width="3" stroke-linecap="round"/><path d="M235.2,246c0.512,6.086 0.785,12.199 1,18.375c0.252,7.272 0.794,14.634 0,21.875c-0.292,2.657 -0.923,6.088 -3.25,7.5c-4.246,2.574 -9.366,3.432 -14.25,3.5c-2.695,0.035 -5.724,-0.981 -7.5,-3c-1.199,-1.367 -0.633,-3.833 0.25,-5.5c1.554,-3.294 6.012,-5.095 6.75,-8.75c2.176,-10.783 0.798,-22.074 1.5,-33c0.175,-2.731 -0.142,-3.095 1,-3.5c4.051,-1.431 8.877,-1.992 13.25,-1.25c1.233,0.205 0.986,2.204 1.25,3.75z" fill="#f6ceb6" stroke="#e0ac95" stroke-width="3" stroke-linecap="round"/><path d="M245.9,242.5c4.373,-0.742 9.199,-0.181 13.25,1.25c1.142,0.405 0.825,0.769 1,3.5c0.702,10.926 -0.676,22.217 1.5,33c0.738,3.655 5.196,5.456 6.75,8.75c0.883,1.667 1.449,4.133 0.25,5.5c-1.776,2.019 -4.805,3.035 -7.5,3c-4.884,-0.068 -10.004,-0.926 -14.25,-3.5c-2.327,-1.412 -2.958,-4.843 -3.25,-7.5c-0.794,-7.241 -0.252,-14.603 0,-21.875c0.215,-6.176 0.488,-12.289 1,-18.375c0.264,-1.546 0.017,-3.545 1.25,-3.75z" fill="#f6ceb6" stroke="#e0ac95" stroke-width="3" stroke-linecap="round"/><g fill="#ffffff" stroke-linecap="round"><path d="M223,217.25c4.654,1.888 9.579,2.816 14.35,4.05c2.393,0.598 6.472,-0.824 7.15,1.45c1.028,3.456 -2.643,6.747 -3.5,10.25c-1.646,6.737 -2.384,14.067 -4,21c-0.404,1.733 -0.683,1.469 -1.25,2c-1.388,1.084 -2.783,2.342 -4.5,2.75c-2.563,0.605 -5.419,0.603 -7.9,0c-1.64,-0.402 -2.882,-1.791 -4.1,-3c-0.529,-0.589 -0.91,-0.317 -1,-2.25c-0.358,-7.734 -0.274,-15.652 0,-23.25c0.196,-5.424 -0.465,-11.21 1.25,-16.25c0.487,-1.425 2.026,2.652 3.5,3.25z" stroke="#cccccc" stroke-width="3"/><path d="M260.65,214.25c1.715,5.04 1.054,10.826 1.25,16.25c0.274,7.598 0.215,15.511 0,23.25c-0.054,1.935 -0.028,1.503 -0.5,2c-1.28,1.343 -2.68,2.96 -4.5,3.5c-2.693,0.787 -5.78,0.755 -8.6,0.1c-1.701,-0.301 -3.098,-1.559 -4.4,-2.85c-0.556,-0.558 -0.479,-0.53 -0.75,-2.25c-1.082,-6.881 -2.203,-13.799 -2.65,-20.75c-0.24,-3.743 -1.087,-7.727 0.4,-11.05c0.803,-1.772 3.656,-1.333 5.4,-1.85c3.603,-1.067 7.451,-1.643 10.85,-3.1c1.462,-0.626 3.013,-4.675 3.5,-3.25z" stroke="#cccccc" stroke-width="3"/><path d="M240.45,222.8c3.079,-0.059 7.717,-1.481 9.3,0.35c1.218,1.318 -2.836,3.735 -3.7,5.95c-1.211,3.103 -0.551,7.466 -2.45,9.7c-0.851,0.916 -1.587,-3.373 -3.05,-3.4c-1.609,-0.026 -2.924,4.032 -3.8,3c-1.874,-2.118 -0.9,-6.255 -1.7,-9.3c-0.522,-1.986 -3.495,-4.401 -2.3,-5.8c1.463,-1.71 5.126,-0.445 7.7,-0.5z" stroke="none" stroke-width="1"/></g><path d="M234.62839,183.6216c3.369,1.441 7.581,1.361 11,0c2.903,-1.157 3.973,-7.368 6.25,-7c2.142,0.352 1.459,5.573 2.75,8c0.661,1.476 1.825,2.606 3,3.5c0.896,0.655 2.748,-0.407 3,1.5c1.008,7.626 0.771,15.393 0.5,23c-0.148,2.284 0.083,5.302 -1.75,6.5c-5.722,3.772 -12.483,7.286 -19.25,7.25c-6.976,-0.039 -13.797,-3.251 -19.75,-7c-1.906,-1.129 -1.895,-4.107 -2,-6.5c-0.323,-7.575 0.024,-15.216 1,-22.75c0.092,-1.883 1.175,-0.965 1.75,-1.5c1.402,-1.322 3.108,-2.674 4.25,-4.5c1.476,-2.309 1.191,-7.511 3.5,-7.75c2.384,-0.235 2.934,6.014 5.75,7.25z" fill="#ffffff" stroke="#cccccc" stroke-width="3" stroke-linecap="round"/><path d="M239.75,85c12.898,0 24.585,5.239 33.048,13.702c8.463,8.463 13.181,21.146 13.702,33.048c0.571,13.058 -1.366,28.234 -10.5,37.25c-8.823,8.94 -23.772,9.556 -36.25,9.5c-12.41,-0.055 -27.266,-0.954 -36,-9.75c-9.131,-9.069 -11.28,-24.19 -10.75,-37c0.493,-11.908 5.239,-24.585 13.702,-33.048c8.463,-8.463 20.15,-13.702 33.048,-13.702z" fill="#f6ceb6" stroke="#e1ad96" stroke-width="3" stroke-linecap="round"/><g stroke="none"><path d="M258.75,139c3.862,0 7.24,0.681 9.897,2.821c1.824,1.465 1.791,4.376 1.853,6.679c-0.062,2.384 0.013,5.393 -1.853,6.929c-2.63,2.173 -6.035,2.821 -9.897,2.821c-3.862,0 -7.206,-0.714 -9.897,-2.821c-1.861,-1.455 -2.259,-4.33 -2.353,-6.679c0.094,-2.428 0.45,-5.403 2.353,-6.929c2.665,-2.14 6.035,-2.821 9.897,-2.821z" fill="#ffffff" stroke-width="1" stroke-linecap="round"/><path d="M259.2335,141.7851c1.9477,0 3.7132,0.7908 4.9909,2.0693c1.2786,1.2777 2.0693,3.0432 2.0693,4.991c0,1.9478 -0.7907,3.7133 -2.0693,4.991c-1.2777,1.2785 -3.0432,2.0693 -4.9909,2.0693c-1.9478,0 -3.7133,-0.7908 -4.991,-2.0693c-1.2786,-1.2777 -2.0693,-3.0432 -2.0693,-4.991c0,-1.9478 0.7907,-3.7133 2.0693,-4.991c1.2777,-1.2785 3.0432,-2.0693 4.991,-2.0693z" fill="#55351c" stroke-width="0.85579" stroke-linecap="butt"/><path d="M259.659,140.6596c0.5759,0.0274 -1.7587,1.0911 -1.8588,1.8588c-0.0967,0.8592 1.003,1.4753 1.003,2.4201c0,0.9448 -0.3834,1.8006 -1.003,2.4202c-0.6196,0.6196 -1.4754,1.003 -2.4202,1.003c-0.9448,0 -1.6688,-1.4326 -2.4202,-1.003c-1.1767,0.6881 -1.893,4.6821 -1.8587,3.9983c-0.0343,-1.4326 0.0231,-6.4578 1.8587,-8.8386c1.3394,-1.7253 4.855,-1.8314 6.6992,-1.8588z" fill="#ffffff" stroke-width="0.85579" stroke-linecap="round"/></g><g stroke="none"><path d="M223,139.5c3.862,0 7.24,0.681 9.897,2.821c1.824,1.465 1.791,4.376 1.853,6.679c-0.062,2.384 0.013,5.393 -1.853,6.929c-2.63,2.173 -6.035,2.821 -9.897,2.821c-3.862,0 -7.206,-0.714 -9.897,-2.821c-1.861,-1.455 -2.259,-4.33 -2.353,-6.679c0.094,-2.428 0.45,-5.403 2.353,-6.929c2.665,-2.14 6.035,-2.821 9.897,-2.821z" fill="#ffffff" stroke-width="1" stroke-linecap="round"/><path d="M223.4835,142.2851c1.9477,0 3.7132,0.7908 4.9909,2.0693c1.2786,1.2777 2.0693,3.0432 2.0693,4.991c0,1.9478 -0.7907,3.7133 -2.0693,4.991c-1.2777,1.2785 -3.0432,2.0693 -4.9909,2.0693c-1.9478,0 -3.7133,-0.7908 -4.991,-2.0693c-1.2786,-1.2777 -2.0693,-3.0432 -2.0693,-4.991c0,-1.9478 0.7907,-3.7133 2.0693,-4.991c1.2777,-1.2785 3.0432,-2.0693 4.991,-2.0693z" fill="#55351c" stroke-width="0.85579" stroke-linecap="butt"/><path d="M223.909,141.1596c0.5759,0.0274 -1.7587,1.0911 -1.8588,1.8588c-0.0967,0.8592 1.003,1.4753 1.003,2.4201c0,0.9448 -0.3834,1.8006 -1.003,2.4202c-0.6196,0.6196 -1.4754,1.003 -2.4202,1.003c-0.9448,0 -1.6688,-1.4326 -2.4202,-1.003c-1.1767,0.6881 -1.893,4.6821 -1.8587,3.9983c-0.0343,-1.4326 0.0231,-6.4578 1.8587,-8.8386c1.3394,-1.7253 4.855,-1.8314 6.6992,-1.8588z" fill="#ffffff" stroke-width="0.85579" stroke-linecap="round"/></g><path d="M245.75,167.75c0,0 -1.328,2.352 -2.5,2.75c-1.801,0.609 -3.924,0.606 -5.75,0c-1.164,-0.391 -2.5,-2.75 -2.5,-2.75" fill="none" stroke="#55351c" stroke-width="2" stroke-linecap="round"/></g></g></svg>