<svg xmlns="http://www.w3.org/2000/svg" xmlns:xlink="http://www.w3.org/1999/xlink" version="1.1" width="96.6664047241211" height="215.5008544921875" viewBox="0.4250936508178711 0.5 96.6664047241211 215.5008544921875">
  <!-- Exported by Scratch - http://scratch.mit.edu/ -->
  <path id="ID0.3346390607766807" fill="#A57659" stroke="#7C5843" stroke-width="3" stroke-linecap="round" d="M 49.75 84.5 C 60.014 84.556 70.222 87.849 80 91.5 C 83.144 92.674 86.427 95.445 87 98.75 C 88.995 110.28 87.01 122.263 87.25 134 C 87.342 139.036 90.713 145.037 88 149.5 C 85.827 152.853 80.067 152.615 76 152 C 73.561 151.618 71.608 148.842 71 146.5 C 70.144 143.18 72.115 139.712 72 136.25 C 71.71 127.412 70.53 109.898 70.25 109.75 C 69.967 109.601 72.717 127.281 68.3 134.05 C 64.523 139.838 56.609 142 49.125 142 C 41.641 142 33.839 139.764 29.95 134.05 C 25.59 127.642 28.045 110.426 27.75 110.5 C 27.45 110.637 26.572 126.833 26.25 135 C 26.09 138.886 27.496 142.641 26.5 146.25 C 25.816 148.709 24.404 151.722 22 152 C 17.671 152.501 12.082 151.875 10 148.25 C 7.441 143.906 10.979 138.382 11.25 133.5 C 11.65 121.81 10.15 109.918 12 98.5 C 12.497 95.459 14.86 92.316 17.75 91.25 C 27.849 87.527 38.786 84.471 49.75 84.5 Z "/>
  <path id="ID0.9093863544985652" fill="#A57659" stroke="#7C5843" stroke-width="3" stroke-linecap="round" d="M 42.95 159.25 C 38.577 158.508 33.751 159.069 29.7 160.5 C 28.558 160.905 28.875 161.269 28.7 164 C 27.998 174.926 29.376 186.217 27.2 197 C 26.462 200.655 22.004 202.456 20.45 205.75 C 19.567 207.417 19.001 209.883 20.2 211.25 C 21.976 213.269 25.005 214.285 27.7 214.25 C 32.584 214.182 37.704 213.324 41.95 210.75 C 44.277 209.338 44.908 205.907 45.2 203.25 C 45.994 196.009 45.452 188.647 45.2 181.375 C 44.985 175.199 44.712 169.086 44.2 163 C 43.936 161.454 44.183 159.455 42.95 159.25 Z "/>
  <path id="ID0.9093863544985652" fill="#A57659" stroke="#7C5843" stroke-width="3" stroke-linecap="round" d="M 54.9 159.5 C 59.273 158.758 64.099 159.319 68.15 160.75 C 69.292 161.155 68.975 161.519 69.15 164.25 C 69.852 175.176 68.474 186.467 70.65 197.25 C 71.388 200.905 75.846 202.706 77.4 206 C 78.283 207.667 78.849 210.133 77.65 211.5 C 75.874 213.519 72.845 214.535 70.15 214.5 C 65.266 214.432 60.146 213.574 55.9 211 C 53.573 209.588 52.942 206.157 52.65 203.5 C 51.856 196.259 52.398 188.897 52.65 181.625 C 52.865 175.449 53.138 169.336 53.65 163.25 C 53.914 161.704 53.667 159.705 54.9 159.5 Z "/>
  <g id="ID0.5968425003811717">
    <path id="ID0.017830292228609324" fill="#FFFFFF" stroke="#CCCCCC" stroke-width="3" stroke-linecap="round" d="M 32 134.25 C 36.654 136.138 41.579 137.066 46.35 138.3 C 48.743 138.898 52.822 137.476 53.5 139.75 C 54.528 143.206 50.857 146.497 50 150 C 48.354 156.737 47.616 164.067 46 171 C 45.596 172.733 45.317 172.469 44.75 173 C 43.362 174.084 41.967 175.342 40.25 175.75 C 37.687 176.355 34.831 176.353 32.35 175.75 C 30.71 175.348 29.468 173.959 28.25 172.75 C 27.721 172.161 27.34 172.433 27.25 170.5 C 26.892 162.766 26.976 154.848 27.25 147.25 C 27.446 141.826 26.785 136.04 28.5 131 C 28.987 129.575 30.526 133.652 32 134.25 Z "/>
    <path id="ID0.017830292228609324" fill="#FFFFFF" stroke="#CCCCCC" stroke-width="3" stroke-linecap="round" d="M 66.15 134.5 C 62.751 135.957 58.903 136.533 55.3 137.6 C 53.556 138.117 50.703 137.678 49.9 139.45 C 48.413 142.773 49.26 146.757 49.5 150.5 C 49.947 157.451 51.068 164.369 52.15 171.25 C 52.421 172.97 52.344 172.942 52.9 173.5 C 54.202 174.791 55.599 176.049 57.3 176.35 C 60.12 177.005 63.207 177.037 65.9 176.25 C 67.72 175.71 69.12 174.093 70.4 172.75 C 70.872 172.253 70.846 172.685 70.9 170.75 C 71.115 163.011 71.174 155.098 70.9 147.5 C 70.704 142.076 71.365 136.29 69.65 131.25 C 69.163 129.825 67.612 133.874 66.15 134.5 Z "/>
    <path id="ID0.02243475941941142" fill="#FFFFFF" stroke="none" stroke-linecap="round" d="M 49.45 139.8 C 52.529 139.741 57.167 138.319 58.75 140.15 C 59.968 141.468 55.914 143.885 55.05 146.1 C 53.839 149.203 54.499 153.566 52.6 155.8 C 51.749 156.716 51.013 152.427 49.55 152.4 C 47.941 152.374 46.626 156.432 45.75 155.4 C 43.876 153.282 44.85 149.145 44.05 146.1 C 43.528 144.114 40.555 141.699 41.75 140.3 C 43.213 138.59 46.876 139.855 49.45 139.8 Z " stroke-width="1"/>
  </g>
  <path id="ID0.21381877968087792" fill="#FFFFFF" stroke="#CCCCCC" stroke-width="3" stroke-linecap="round" d="M 43.75 100.5 C 47.119 101.941 51.331 101.861 54.75 100.5 C 57.653 99.343 58.723 93.132 61 93.5 C 63.142 93.852 62.459 99.073 63.75 101.5 C 64.411 102.976 65.575 104.106 66.75 105 C 67.646 105.655 69.498 104.593 69.75 106.5 C 70.758 114.126 70.521 121.893 70.25 129.5 C 70.102 131.784 70.333 134.802 68.5 136 C 62.778 139.772 56.017 143.286 49.25 143.25 C 42.274 143.211 35.453 139.999 29.5 136.25 C 27.594 135.121 27.605 132.143 27.5 129.75 C 27.177 122.175 27.524 114.534 28.5 107 C 28.592 105.117 29.675 106.035 30.25 105.5 C 31.652 104.178 33.358 102.826 34.5 101 C 35.976 98.691 35.691 93.489 38 93.25 C 40.384 93.015 40.934 99.264 43.75 100.5 Z "/>
  <path id="ID0.033494020346552134" fill="#A57659" stroke="#7C5843" stroke-width="3" stroke-linecap="round" d="M 48.75 2 C 61.648 2 73.335 7.239 81.798 15.702 C 90.261 24.165 94.979 36.848 95.5 48.75 C 96.071 61.808 94.134 76.984 85 86 C 76.177 94.94 61.228 95.556 48.75 95.5 C 36.34 95.445 21.484 94.546 12.75 85.75 C 3.619 76.681 1.47 61.56 2 48.75 C 2.493 36.842 7.239 24.165 15.702 15.702 C 24.165 7.239 35.852 2 48.75 2 Z "/>
  <g id="ID0.9242127509787679">
    <path id="ID0.835814081132412" fill="#FFFFFF" stroke="none" stroke-linecap="round" d="M 67.75 56 C 71.612 56 74.99 56.681 77.647 58.821 C 79.471 60.286 79.438 63.197 79.5 65.5 C 79.438 67.884 79.513 70.893 77.647 72.429 C 75.017 74.602 71.612 75.25 67.75 75.25 C 63.888 75.25 60.544 74.536 57.853 72.429 C 55.992 70.974 55.594 68.099 55.5 65.75 C 55.594 63.322 55.95 60.347 57.853 58.821 C 60.518 56.681 63.888 56 67.75 56 Z " stroke-width="1"/>
    <path id="ID0.7992389593273401" fill="#55351C" stroke="none" d="M 68.2335 58.7851 C 70.1812 58.7851 71.9467 59.5759 73.2244 60.8544 C 74.503 62.1321 75.2937 63.8976 75.2937 65.8454 C 75.2937 67.7932 74.503 69.5587 73.2244 70.8364 C 71.9467 72.1149 70.1812 72.9057 68.2335 72.9057 C 66.2857 72.9057 64.5202 72.1149 63.2425 70.8364 C 61.9639 69.5587 61.1732 67.7932 61.1732 65.8454 C 61.1732 63.8976 61.9639 62.1321 63.2425 60.8544 C 64.5202 59.5759 66.2857 58.7851 68.2335 58.7851 Z " stroke-width="0.8557919859886169"/>
    <path id="ID0.7958622938022017" fill="#FFFFFF" stroke="none" stroke-linecap="round" d="M 68.659 57.6596 C 69.2349 57.687 66.9003 58.7507 66.8002 59.5184 C 66.7035 60.3776 67.8032 60.9937 67.8032 61.9385 C 67.8032 62.8833 67.4198 63.7391 66.8002 64.3587 C 66.1806 64.9783 65.3248 65.3617 64.38 65.3617 C 63.4352 65.3617 62.7112 63.9291 61.9598 64.3587 C 60.7831 65.0468 60.0668 69.0408 60.1011 68.357 C 60.0668 66.9244 60.1242 61.8992 61.9598 59.5184 C 63.2992 57.7931 66.8148 57.687 68.659 57.6596 Z " stroke-width="0.8557919859886169"/>
  </g>
  <g id="ID0.9242127509787679">
    <path id="ID0.835814081132412" fill="#FFFFFF" stroke="none" stroke-linecap="round" d="M 32 56.5 C 35.862 56.5 39.24 57.181 41.897 59.321 C 43.721 60.786 43.688 63.697 43.75 66 C 43.688 68.384 43.763 71.393 41.897 72.929 C 39.267 75.102 35.862 75.75 32 75.75 C 28.138 75.75 24.794 75.036 22.103 72.929 C 20.242 71.474 19.844 68.599 19.75 66.25 C 19.844 63.822 20.2 60.847 22.103 59.321 C 24.768 57.181 28.138 56.5 32 56.5 Z " stroke-width="1"/>
    <path id="ID0.7992389593273401" fill="#55351C" stroke="none" d="M 32.4835 59.2851 C 34.4312 59.2851 36.1967 60.0759 37.4744 61.3544 C 38.753 62.6321 39.5437 64.3976 39.5437 66.3454 C 39.5437 68.2932 38.753 70.0587 37.4744 71.3364 C 36.1967 72.6149 34.4312 73.4057 32.4835 73.4057 C 30.5357 73.4057 28.7702 72.6149 27.4925 71.3364 C 26.2139 70.0587 25.4232 68.2932 25.4232 66.3454 C 25.4232 64.3976 26.2139 62.6321 27.4925 61.3544 C 28.7702 60.0759 30.5357 59.2851 32.4835 59.2851 Z " stroke-width="0.8557919859886169"/>
    <path id="ID0.7958622938022017" fill="#FFFFFF" stroke="none" stroke-linecap="round" d="M 32.909 58.1596 C 33.4849 58.187 31.1503 59.2507 31.0502 60.0184 C 30.9535 60.8776 32.0532 61.4937 32.0532 62.4385 C 32.0532 63.3833 31.6698 64.2391 31.0502 64.8587 C 30.4306 65.4783 29.5748 65.8617 28.63 65.8617 C 27.6852 65.8617 26.9612 64.4291 26.2098 64.8587 C 25.0331 65.5468 24.3168 69.5408 24.3511 68.857 C 24.3168 67.4244 24.3742 62.3992 26.2098 60.0184 C 27.5492 58.2931 31.0648 58.187 32.909 58.1596 Z " stroke-width="0.8557919859886169"/>
  </g>
  <path id="ID0.21285319281741977" fill="none" stroke="#55351C" stroke-width="2" stroke-linecap="round" d="M 44 84.75 C 44 84.75 45.336 87.109 46.5 87.5 C 48.326 88.106 50.449 88.109 52.25 87.5 C 53.422 87.102 54.75 84.75 54.75 84.75 "/>
</svg>